<svg width="100" height="100" viewBox="0 0 100 100" fill="none" xmlns="http://www.w3.org/2000/svg">
<mask id="mask0" mask-type="alpha" maskUnits="userSpaceOnUse" x="0" y="2" width="101" height="96">
<path fill-rule="evenodd" clip-rule="evenodd" d="M87.1224 49.9446V45.8934C87.1224 43.4876 89.0727 41.5373 91.4785 41.5373C93.8844 41.5373 95.8347 43.4876 95.8347 45.8934V49.9471C95.8225 71.1681 81.8538 89.8535 61.5037 95.8704C41.1535 101.887 19.2697 93.8024 7.71951 75.9999C-3.83063 58.1975 -2.29562 34.9185 11.4921 18.7869C25.2799 2.65522 48.0359 -2.4862 67.4198 6.15075C69.6173 7.12992 70.605 9.70514 69.6258 11.9027C68.6467 14.1002 66.0714 15.0879 63.8739 14.1087C48.0143 7.04214 29.3958 11.2488 18.1149 24.4474C6.83403 37.646 5.57812 56.6925 15.0282 71.2581C24.4784 85.8237 42.3833 92.4386 59.0335 87.5157C75.6836 82.5928 87.1125 67.3047 87.1224 49.9446ZM37.9316 42.5067L47.9197 52.4948L92.7566 7.65786C94.4578 5.95669 97.2159 5.95669 98.9171 7.65786C100.618 9.35902 100.618 12.1172 98.9171 13.8183L50.9999 61.7355C49.2987 63.4367 46.5406 63.4367 44.8394 61.7355L31.7711 48.6672C30.0699 46.966 30.0699 44.2079 31.7711 42.5067C33.4723 40.8056 36.2304 40.8056 37.9316 42.5067Z" fill="white"/>
</mask>
<g mask="url(#mask0)">
<path fill-rule="evenodd" clip-rule="evenodd" d="M0 0H100V100H0V0Z" fill="#12B051"/>
</g>
</svg>
