<svg width="40" height="40" viewBox="0 0 40 40" fill="none" xmlns="http://www.w3.org/2000/svg">
<path fill-rule="evenodd" clip-rule="evenodd" d="M19.9982 17.4128L29.6762 7.73477C30.3903 7.0207 31.548 7.0207 32.2621 7.73477C32.9762 8.44884 32.9762 9.60658 32.2621 10.3207L22.5841 19.9987L32.2621 29.6767C32.9762 30.3908 32.9762 31.5485 32.2621 32.2626C31.548 32.9767 30.3903 32.9767 29.6762 32.2626L19.9982 22.5846L10.3202 32.2626C9.60609 32.9767 8.44836 32.9767 7.73428 32.2626C7.02021 31.5485 7.02021 30.3908 7.73428 29.6767L17.4123 19.9987L7.73428 10.3207C7.02021 9.60658 7.02021 8.44884 7.73428 7.73477C8.44836 7.0207 9.60609 7.0207 10.3202 7.73477L19.9982 17.4128Z" fill="#FF2B5E"/>
<mask id="mask0" mask-type="alpha" maskUnits="userSpaceOnUse" x="4" y="4" width="33" height="32">
<path fill-rule="evenodd" clip-rule="evenodd" d="M20.0005 16.7675L32.0985 4.66947C32.9911 3.77684 34.4384 3.77684 35.331 4.66947C36.2236 5.5621 36.2236 7.00933 35.331 7.90196L23.233 20L35.331 32.098C36.2236 32.9907 36.2236 34.4379 35.331 35.3305C34.4384 36.2231 32.9911 36.2231 32.0985 35.3305L20.0005 23.2325L7.90244 35.3305C7.00982 36.2231 5.56258 36.2231 4.66996 35.3305C3.77733 34.4379 3.77733 32.9907 4.66996 32.098L16.768 20L4.66996 7.90196C3.77733 7.00933 3.77733 5.5621 4.66996 4.66947C5.56258 3.77684 7.00982 3.77684 7.90244 4.66947L20.0005 16.7675Z" fill="white"/>
</mask>
<g mask="url(#mask0)">
</g>
</svg>
