<svg width="391" height="389" viewBox="0 0 391 389" fill="none" xmlns="http://www.w3.org/2000/svg">
<path fill-rule="evenodd" clip-rule="evenodd" d="M206.349 16.7569C207.318 18.3182 207.802 19.0989 207.625 19.9588C207.447 20.8188 206.621 21.3929 204.969 22.5411C182.402 38.2254 167.599 64.5485 167.599 94.3758C167.599 124.074 182.274 150.298 204.675 166.006C206.294 167.141 207.104 167.709 207.284 168.555C207.465 169.401 207 170.177 206.071 171.728C199.777 182.24 190.985 188.884 181.224 189.21C181.221 189.21 181.219 189.212 181.219 189.215C181.219 189.217 181.216 189.219 181.214 189.22C181.075 189.22 180.937 189.221 180.799 189.221C137.036 189.221 101.559 146.862 101.559 94.6104C101.559 42.3585 137.036 0 180.799 0C181.18 0 181.561 0.00322211 181.942 0.00964481C181.942 0.0096578 181.943 0.0102581 181.943 0.0110263C181.943 0.0117854 181.944 0.0123823 181.945 0.0124075C191.478 0.328314 200.087 6.67005 206.349 16.7569Z" fill="white"/>
<path fill-rule="evenodd" clip-rule="evenodd" d="M219.615 147.062C220.842 139.058 227.277 132.455 235.374 132.455L246.327 132.455L276.975 132.455C285.248 132.455 292.097 139.433 289.586 147.316C281.36 173.142 254.123 189.222 223.51 189.222L188.725 189.222C188.721 189.222 188.719 189.219 188.719 189.215C188.719 189.212 188.722 189.21 188.725 189.209C203.551 188.672 215.951 170.966 219.615 147.062Z" fill="white"/>
<path fill-rule="evenodd" clip-rule="evenodd" d="M224.175 6.68825e-06L189.39 5.30793e-06C189.386 5.30779e-06 189.384 0.00306639 189.384 0.00668443C189.384 0.00990469 189.387 0.0124462 189.39 0.012563C204.217 0.549588 216.616 18.2553 220.281 42.1599C221.508 50.1634 227.942 56.7662 236.039 56.7662L246.992 56.7662L277.64 56.7662C285.913 56.7662 292.762 49.7892 290.251 41.906C282.025 16.0798 254.788 1.25734e-05 224.175 6.68825e-06Z" fill="white"/>
<path d="M48.6838 360.211C40.531 360.211 33.1547 358.425 26.5548 354.853C20.0326 351.204 14.908 346.235 11.181 339.946C7.45398 333.579 5.59048 326.435 5.59048 318.515C5.59048 310.596 7.45398 303.491 11.181 297.202C14.908 290.835 20.0714 285.865 26.6713 282.294C33.2711 278.644 40.6475 276.82 48.8003 276.82C55.1672 276.82 60.9906 277.907 66.2705 280.081C71.5504 282.177 76.0539 285.322 79.7809 289.515L72.2104 296.852C66.0764 290.408 58.4283 287.185 49.2661 287.185C43.2098 287.185 37.7358 288.544 32.8441 291.262C27.9524 293.979 24.109 297.745 21.3137 302.559C18.5961 307.296 17.2373 312.614 17.2373 318.515C17.2373 324.416 18.5961 329.774 21.3137 334.588C24.109 339.324 27.9524 343.051 32.8441 345.769C37.7358 348.487 43.2098 349.845 49.2661 349.845C58.3507 349.845 65.9988 346.584 72.2104 340.062L79.7809 347.4C76.0539 351.592 71.5116 354.776 66.154 356.95C60.8741 359.124 55.0507 360.211 48.6838 360.211ZM118.588 359.978C112.454 359.978 106.941 358.619 102.049 355.902C97.1574 353.184 93.3139 349.457 90.5187 344.721C87.8011 339.907 86.4423 334.472 86.4423 328.415C86.4423 322.359 87.8011 316.962 90.5187 312.226C93.3139 307.412 97.1574 303.685 102.049 301.045C106.941 298.328 112.454 296.969 118.588 296.969C124.722 296.969 130.196 298.328 135.01 301.045C139.901 303.685 143.706 307.412 146.424 312.226C149.219 316.962 150.616 322.359 150.616 328.415C150.616 334.472 149.219 339.907 146.424 344.721C143.706 349.457 139.901 353.184 135.01 355.902C130.196 358.619 124.722 359.978 118.588 359.978ZM118.588 350.195C122.547 350.195 126.08 349.302 129.186 347.516C132.37 345.652 134.854 343.09 136.64 339.829C138.426 336.49 139.319 332.686 139.319 328.415C139.319 324.145 138.426 320.379 136.64 317.118C134.854 313.779 132.37 311.217 129.186 309.431C126.08 307.645 122.547 306.752 118.588 306.752C114.628 306.752 111.056 307.645 107.872 309.431C104.767 311.217 102.282 313.779 100.418 317.118C98.6326 320.379 97.7397 324.145 97.7397 328.415C97.7397 332.686 98.6326 336.49 100.418 339.829C102.282 343.09 104.767 345.652 107.872 347.516C111.056 349.302 114.628 350.195 118.588 350.195ZM225.129 297.551V350.894C225.129 361.686 222.45 369.645 217.093 374.77C211.735 379.972 203.737 382.573 193.1 382.573C187.277 382.573 181.725 381.758 176.445 380.127C171.165 378.574 166.895 376.323 163.634 373.372L168.991 364.753C171.864 367.238 175.397 369.179 179.59 370.577C183.86 372.052 188.247 372.79 192.751 372.79C199.972 372.79 205.29 371.081 208.707 367.665C212.201 364.249 213.948 359.046 213.948 352.058V347.167C211.308 350.35 208.047 352.757 204.165 354.388C200.36 355.941 196.206 356.717 191.702 356.717C185.801 356.717 180.444 355.475 175.63 352.99C170.893 350.428 167.166 346.895 164.449 342.391C161.731 337.81 160.372 332.608 160.372 326.785C160.372 320.961 161.731 315.798 164.449 311.294C167.166 306.713 170.893 303.18 175.63 300.696C180.444 298.211 185.801 296.969 191.702 296.969C196.361 296.969 200.67 297.823 204.63 299.531C208.668 301.239 211.968 303.763 214.53 307.101V297.551H225.129ZM192.984 346.934C197.021 346.934 200.632 346.08 203.815 344.371C207.076 342.663 209.6 340.295 211.386 337.267C213.249 334.161 214.181 330.667 214.181 326.785C214.181 320.806 212.201 315.992 208.241 312.343C204.281 308.616 199.195 306.752 192.984 306.752C186.694 306.752 181.57 308.616 177.61 312.343C173.65 315.992 171.67 320.806 171.67 326.785C171.67 330.667 172.563 334.161 174.349 337.267C176.212 340.295 178.736 342.663 181.919 344.371C185.18 346.08 188.868 346.934 192.984 346.934ZM246.493 297.551H257.674V359.279H246.493V297.551ZM252.083 285.671C249.909 285.671 248.084 284.972 246.609 283.575C245.211 282.177 244.513 280.469 244.513 278.45C244.513 276.431 245.211 274.723 246.609 273.326C248.084 271.85 249.909 271.113 252.083 271.113C254.257 271.113 256.043 271.812 257.441 273.209C258.916 274.529 259.654 276.199 259.654 278.217C259.654 280.314 258.916 282.1 257.441 283.575C256.043 284.972 254.257 285.671 252.083 285.671ZM313.729 355.669C312.099 357.066 310.08 358.153 307.673 358.93C305.266 359.629 302.781 359.978 300.219 359.978C294.007 359.978 289.193 358.309 285.777 354.97C282.361 351.631 280.652 346.856 280.652 340.644V306.752H270.17V297.551H280.652V284.041H291.833V297.551H309.537V306.752H291.833V340.178C291.833 343.517 292.649 346.08 294.279 347.865C295.987 349.651 298.394 350.544 301.5 350.544C304.917 350.544 307.828 349.574 310.235 347.632L313.729 355.669ZM351.638 359.978C345.504 359.978 339.991 358.619 335.1 355.902C330.208 353.184 326.364 349.457 323.569 344.721C320.852 339.907 319.493 334.472 319.493 328.415C319.493 322.359 320.852 316.962 323.569 312.226C326.364 307.412 330.208 303.685 335.1 301.045C339.991 298.328 345.504 296.969 351.638 296.969C357.772 296.969 363.246 298.328 368.06 301.045C372.952 303.685 376.756 307.412 379.474 312.226C382.269 316.962 383.667 322.359 383.667 328.415C383.667 334.472 382.269 339.907 379.474 344.721C376.756 349.457 372.952 353.184 368.06 355.902C363.246 358.619 357.772 359.978 351.638 359.978ZM351.638 350.195C355.598 350.195 359.131 349.302 362.237 347.516C365.42 345.652 367.905 343.09 369.691 339.829C371.477 336.49 372.369 332.686 372.369 328.415C372.369 324.145 371.477 320.379 369.691 317.118C367.905 313.779 365.42 311.217 362.237 309.431C359.131 307.645 355.598 306.752 351.638 306.752C347.678 306.752 344.106 307.645 340.923 309.431C337.817 311.217 335.333 313.779 333.469 317.118C331.683 320.379 330.79 324.145 330.79 328.415C330.79 332.686 331.683 336.49 333.469 339.829C335.333 343.09 337.817 345.652 340.923 347.516C344.106 349.302 347.678 350.195 351.638 350.195Z" fill="white"/>
</svg>
