<svg width="64" height="33" viewBox="0 0 64 33" fill="none" xmlns="http://www.w3.org/2000/svg">
<path d="M42.5923 28.6087C42.965 28.7267 43.2569 28.9255 43.4681 29.205C43.6793 29.4783 43.7849 29.8168 43.7849 30.2205C43.7849 30.7919 43.5613 31.2329 43.1141 31.5435C42.6731 31.8478 42.0271 32 41.1762 32H37.8035V25.4783H40.9898C41.7849 25.4783 42.3936 25.6304 42.8159 25.9348C43.2445 26.2391 43.4588 26.6522 43.4588 27.1739C43.4588 27.4907 43.3812 27.7733 43.2259 28.0217C43.0768 28.2702 42.8656 28.4658 42.5923 28.6087ZM39.3035 26.6149V28.1522H40.8035C41.1762 28.1522 41.4588 28.087 41.6513 27.9565C41.8439 27.8261 41.9402 27.6335 41.9402 27.3789C41.9402 27.1242 41.8439 26.9348 41.6513 26.8106C41.4588 26.6801 41.1762 26.6149 40.8035 26.6149H39.3035ZM41.0644 30.8634C41.4619 30.8634 41.76 30.7981 41.9588 30.6677C42.1638 30.5373 42.2662 30.3354 42.2662 30.0621C42.2662 29.5217 41.8656 29.2516 41.0644 29.2516H39.3035V30.8634H41.0644ZM49.9773 30.7888V32H44.9276V25.4783H49.8561V26.6894H46.4276V28.1056H49.4555V29.2795H46.4276V30.7888H49.9773ZM52.5291 26.7081H50.4421V25.4783H56.1254V26.7081H54.0384V32H52.5291V26.7081ZM60.905 30.6025H57.877L57.2994 32H55.7528L58.6596 25.4783H60.1503L63.0664 32H61.4826L60.905 30.6025ZM60.4298 29.4565L59.3956 26.9596L58.3615 29.4565H60.4298Z" fill="#FBFBFB"/>
<path fill-rule="evenodd" clip-rule="evenodd" d="M13.6013 0.00212153C13.6014 0.00212209 13.6014 0.00214819 13.6014 0.00218152V0.00218152C13.6014 0.00221446 13.6014 0.0022404 13.6015 0.0022415C15.2123 0.0556171 16.6672 1.12528 17.7263 2.8271C17.8925 3.09406 17.9755 3.22754 17.9452 3.37483C17.9148 3.52212 17.7734 3.62051 17.4905 3.81729C13.6761 6.47046 11.1744 10.9199 11.1744 15.9613C11.1744 20.9808 13.6545 25.4136 17.4411 28.0707C17.7184 28.2653 17.857 28.3626 17.8878 28.5075C17.9186 28.6525 17.8389 28.7851 17.6797 29.0504C16.6149 30.824 15.1291 31.9445 13.4798 31.9996C13.4792 31.9996 13.4788 32 13.4787 32.0006V32.0006C13.4787 32.0012 13.4792 32.0017 13.4798 32.0017H13.4985C13.4683 32.002 13.438 32.0021 13.4078 32.0021C6.00287 32.0021 0 24.8383 0 16.0013C0 7.16429 6.00287 0.000488281 13.4078 0.000488281C13.4724 0.000488281 13.5369 0.00103391 13.6013 0.00212153Z" fill="#FBFBFB"/>
<path fill-rule="evenodd" clip-rule="evenodd" d="M19.971 24.901C20.1838 23.5316 21.2847 22.4012 22.6705 22.4012L24.4953 22.4012L29.6515 22.4012C31.0676 22.4012 32.2403 23.5958 31.8057 24.9435C30.4026 29.2943 25.8029 32.0017 20.6345 32.0017L14.7487 32.0017C14.7481 32.0017 14.7476 32.0012 14.7477 32.0006V32.0006C14.7477 32 14.7482 31.9996 14.7487 31.9996C17.2513 31.909 19.3453 28.9289 19.971 24.901Z" fill="#FBFBFB"/>
<path fill-rule="evenodd" clip-rule="evenodd" d="M20.7474 1.14444e-06L14.8617 8.97697e-07C14.8611 8.97671e-07 14.8606 0.000532165 14.8606 0.00116008V0.00116008C14.8606 0.00171894 14.8611 0.00215999 14.8617 0.00218026C17.3643 0.0928432 19.4582 3.07292 20.0839 7.10073C20.2966 8.47011 21.3976 9.60048 22.7834 9.60048L24.6083 9.60048L29.7644 9.60048C31.1805 9.60048 32.3532 8.40588 31.9186 7.0582C30.5155 2.7074 25.9158 2.14921e-06 20.7474 1.14444e-06Z" fill="#FBFBFB"/>
</svg>
