<svg width="75" height="75" viewBox="0 0 75 75" fill="none" xmlns="http://www.w3.org/2000/svg">
<path fill-rule="evenodd" clip-rule="evenodd" d="M31.6595 0.00391529C31.6598 0.00392054 31.6601 0.00416268 31.6601 0.00447263C31.6601 0.00477886 31.6604 0.0050196 31.6607 0.00502978C35.4154 0.12964 38.8062 2.62755 41.2723 6.60048C41.654 7.21541 41.8449 7.52287 41.7748 7.86156C41.7048 8.20025 41.3795 8.42637 40.7288 8.87861C31.8411 15.0561 26.011 25.4235 26.011 37.171C26.011 48.8678 31.7908 59.1963 40.6138 65.3832C41.2515 65.8303 41.5704 66.0539 41.6414 66.3873C41.7124 66.7206 41.5294 67.0261 41.1636 67.6371C38.6844 71.7773 35.2216 74.3938 31.3771 74.5221C31.3759 74.5222 31.375 74.5231 31.3749 74.5243C31.3748 74.5255 31.3738 74.5265 31.3726 74.5265C31.3183 74.5268 31.2639 74.527 31.2096 74.527C13.973 74.527 0 57.8436 0 37.2635C0 16.6835 13.973 0.00012207 31.2096 0.00012207C31.3598 0.00012207 31.5098 0.0013893 31.6595 0.00391529Z" fill="white"/>
<path fill-rule="evenodd" clip-rule="evenodd" d="M46.4977 57.9218C46.9809 54.7695 49.5151 52.1689 52.7042 52.1689L57.0187 52.1689L69.0895 52.1689C72.348 52.1689 75.0457 54.9169 74.0567 58.0218C70.8168 68.1938 60.0891 74.527 48.0317 74.527L34.3313 74.527C34.3299 74.527 34.3288 74.5258 34.3289 74.5243C34.3289 74.5231 34.33 74.5221 34.3312 74.522C40.1708 74.3103 45.0544 67.3367 46.4977 57.9218Z" fill="white"/>
<path fill-rule="evenodd" clip-rule="evenodd" d="M46.7603 16.6052C47.2436 19.7574 49.7778 22.3581 52.9669 22.358L57.2811 22.358L69.3519 22.3581C72.6104 22.3581 75.3081 19.6101 74.3191 16.5052C71.0792 6.33323 60.3515 4.95218e-06 48.2941 2.63425e-06L34.5937 2.09059e-06C34.5923 2.09054e-06 34.5912 0.00119672 34.5913 0.00260871C34.5913 0.00386545 34.5924 0.00485728 34.5936 0.00490287C40.4333 0.216463 45.317 7.19009 46.7603 16.6052Z" fill="white"/>
</svg>
