<svg width="128" height="34" viewBox="0 0 128 34" fill="none" xmlns="http://www.w3.org/2000/svg">
<path fill-rule="evenodd" clip-rule="evenodd" d="M14.0257 0.00217456C14.0257 0.00217481 14.0257 0.00218669 14.0257 0.00220192V0.00220192C14.0257 0.00221697 14.0257 0.00222878 14.0257 0.00222928C15.6868 0.0573427 17.1871 1.16044 18.2792 2.9154C18.4505 3.19069 18.5361 3.32833 18.5049 3.4802C18.4736 3.63208 18.3277 3.73354 18.036 3.93646C14.1028 6.67239 11.5232 11.2605 11.5232 16.459C11.5232 21.6351 14.0807 26.2061 17.9854 28.9461C18.2713 29.1468 18.4143 29.2471 18.446 29.3966C18.4777 29.546 18.3956 29.6828 18.2314 29.9564C17.1334 31.7853 15.6012 32.9408 13.9003 32.9975C13.8998 32.9976 13.8993 32.998 13.8993 32.9986V32.9986C13.8992 32.9992 13.8997 32.9997 13.9004 32.9997H13.9256C13.8924 33 13.8592 33.0001 13.8259 33.0001C6.19008 33.0001 0 25.6129 0 16.5003C0 7.38771 6.19008 0.000488281 13.8259 0.000488281C13.8926 0.000488281 13.9592 0.00105163 14.0257 0.00217456Z" fill="#FBFBFB"/>
<path fill-rule="evenodd" clip-rule="evenodd" d="M20.5939 25.6775C20.8133 24.2654 21.9485 23.0998 23.3776 23.0998L25.2594 23.0998L30.5764 23.0998C32.0366 23.0998 33.2459 24.3317 32.7977 25.7214C31.3509 30.2079 26.6078 32.9997 21.2782 32.9997L15.2089 32.9997C15.2082 32.9997 15.2077 32.9992 15.2078 32.9985V32.9985C15.2078 32.998 15.2083 32.9975 15.2088 32.9975C17.7895 32.904 19.9487 29.831 20.5939 25.6775Z" fill="#FBFBFB"/>
<path fill-rule="evenodd" clip-rule="evenodd" d="M20.7105 7.32218C20.9299 8.73427 22.0652 9.89989 23.4942 9.89989L25.3759 9.8999L30.6929 9.8999C32.1531 9.8999 33.3623 8.66804 32.9142 7.27832C31.4674 2.79184 26.7242 2.21624e-06 21.3946 1.18014e-06L15.3253 9.25693e-07C15.3247 9.25667e-07 15.3242 0.000533037 15.3242 0.00116195V0.00116195C15.3243 0.00172171 15.3247 0.00216347 15.3253 0.00218375C17.906 0.0955741 20.0653 3.16865 20.7105 7.32218Z" fill="#FBFBFB"/>
<path d="M57.1453 21.9323C55.4463 21.9323 53.9092 21.5601 52.5338 20.8158C51.1746 20.0553 50.1067 19.0197 49.33 17.7091C48.5533 16.3823 48.165 14.8937 48.165 13.2432C48.165 11.5928 48.5533 10.1123 49.33 8.80162C50.1067 7.4748 51.1827 6.43923 52.5581 5.69492C53.9334 4.93443 55.4706 4.55418 57.1696 4.55418C58.4964 4.55418 59.71 4.78071 60.8102 5.23377C61.9105 5.67065 62.849 6.32597 63.6257 7.19973L62.0481 8.7288C60.7698 7.3858 59.176 6.71431 57.2667 6.71431C56.0046 6.71431 54.8638 6.99747 53.8444 7.56379C52.8251 8.13012 52.0241 8.91488 51.4416 9.91809C50.8753 10.9051 50.5921 12.0135 50.5921 13.2432C50.5921 14.473 50.8753 15.5894 51.4416 16.5926C52.0241 17.5797 52.8251 18.3563 53.8444 18.9227C54.8638 19.489 56.0046 19.7721 57.2667 19.7721C59.1598 19.7721 60.7536 19.0926 62.0481 17.7334L63.6257 19.2624C62.849 20.1362 61.9024 20.7996 60.786 21.2527C59.6857 21.7057 58.4721 21.9323 57.1453 21.9323ZM71.7127 21.8837C70.4344 21.8837 69.2856 21.6006 68.2662 21.0342C67.2468 20.4679 66.4459 19.6912 65.8634 18.7042C65.297 17.701 65.0139 16.5684 65.0139 15.3063C65.0139 14.0442 65.297 12.9196 65.8634 11.9326C66.4459 10.9294 67.2468 10.1527 68.2662 9.60256C69.2856 9.03624 70.4344 8.75307 71.7127 8.75307C72.991 8.75307 74.1317 9.03624 75.1349 9.60256C76.1543 10.1527 76.9472 10.9294 77.5135 11.9326C78.096 12.9196 78.3872 14.0442 78.3872 15.3063C78.3872 16.5684 78.096 17.701 77.5135 18.7042C76.9472 19.6912 76.1543 20.4679 75.1349 21.0342C74.1317 21.6006 72.991 21.8837 71.7127 21.8837ZM71.7127 19.845C72.5379 19.845 73.2741 19.6589 73.9214 19.2867C74.5848 18.8984 75.1026 18.3644 75.4747 17.6848C75.8469 16.9891 76.0329 16.1962 76.0329 15.3063C76.0329 14.4163 75.8469 13.6316 75.4747 12.952C75.1026 12.2562 74.5848 11.7222 73.9214 11.3501C73.2741 10.9779 72.5379 10.7918 71.7127 10.7918C70.8875 10.7918 70.1432 10.9779 69.4798 11.3501C68.8325 11.7222 68.3147 12.2562 67.9264 12.952C67.5542 13.6316 67.3682 14.4163 67.3682 15.3063C67.3682 16.1962 67.5542 16.9891 67.9264 17.6848C68.3147 18.3644 68.8325 18.8984 69.4798 19.2867C70.1432 19.6589 70.8875 19.845 71.7127 19.845ZM93.915 8.87443V19.9906C93.915 22.2397 93.3568 23.8982 92.2403 24.9662C91.1239 26.0503 89.4572 26.5923 87.2405 26.5923C86.0269 26.5923 84.87 26.4224 83.7697 26.0826C82.6694 25.759 81.7795 25.2898 81.0999 24.6749L82.2164 22.8788C82.8151 23.3966 83.5513 23.8011 84.425 24.0924C85.315 24.3998 86.2292 24.5535 87.1677 24.5535C88.6725 24.5535 89.7809 24.1976 90.4928 23.4856C91.2209 22.7737 91.585 21.6896 91.585 20.2333V19.2139C91.0349 19.8773 90.3553 20.3789 89.5462 20.7187C88.7534 21.0423 87.8877 21.2041 86.9492 21.2041C85.7195 21.2041 84.603 20.9452 83.5998 20.4275C82.6128 19.8935 81.8361 19.1573 81.2698 18.2188C80.7035 17.2641 80.4203 16.18 80.4203 14.9665C80.4203 13.7529 80.7035 12.6769 81.2698 11.7384C81.8361 10.7838 82.6128 10.0475 83.5998 9.52975C84.603 9.01197 85.7195 8.75307 86.9492 8.75307C87.9201 8.75307 88.8181 8.93106 89.6433 9.28704C90.4847 9.64301 91.1724 10.1689 91.7064 10.8647V8.87443H93.915ZM87.2162 19.1654C88.0576 19.1654 88.81 18.9874 89.4734 18.6314C90.153 18.2754 90.6789 17.7819 91.051 17.1509C91.4394 16.5036 91.6336 15.7755 91.6336 14.9665C91.6336 13.7206 91.2209 12.7173 90.3957 11.9569C89.5705 11.1802 88.5107 10.7918 87.2162 10.7918C85.9056 10.7918 84.8377 11.1802 84.0124 11.9569C83.1872 12.7173 82.7746 13.7206 82.7746 14.9665C82.7746 15.7755 82.9607 16.5036 83.3328 17.1509C83.7212 17.7819 84.2471 18.2754 84.9105 18.6314C85.5901 18.9874 86.3586 19.1654 87.2162 19.1654ZM98.3671 8.87443H100.697V21.7381H98.3671V8.87443ZM99.5321 6.39878C99.079 6.39878 98.6988 6.25315 98.3913 5.9619C98.1001 5.67065 97.9545 5.31467 97.9545 4.89398C97.9545 4.47328 98.1001 4.1173 98.3913 3.82605C98.6988 3.51861 99.079 3.3649 99.5321 3.3649C99.9851 3.3649 100.357 3.51052 100.649 3.80178C100.956 4.07685 101.11 4.42473 101.11 4.84543C101.11 5.28231 100.956 5.65447 100.649 5.9619C100.357 6.25315 99.9851 6.39878 99.5321 6.39878ZM112.379 20.9857C112.039 21.2769 111.618 21.5035 111.117 21.6653C110.615 21.8109 110.097 21.8837 109.563 21.8837C108.269 21.8837 107.266 21.5358 106.554 20.8401C105.842 20.1443 105.486 19.1492 105.486 17.8547V10.7918H103.301V8.87443H105.486V6.05899H107.816V8.87443H111.505V10.7918H107.816V17.7576C107.816 18.4534 107.986 18.9874 108.325 19.3595C108.681 19.7317 109.183 19.9178 109.83 19.9178C110.542 19.9178 111.149 19.7155 111.651 19.311L112.379 20.9857ZM120.279 21.8837C119 21.8837 117.851 21.6006 116.832 21.0342C115.813 20.4679 115.012 19.6912 114.429 18.7042C113.863 17.701 113.58 16.5684 113.58 15.3063C113.58 14.0442 113.863 12.9196 114.429 11.9326C115.012 10.9294 115.813 10.1527 116.832 9.60256C117.851 9.03624 119 8.75307 120.279 8.75307C121.557 8.75307 122.698 9.03624 123.701 9.60256C124.72 10.1527 125.513 10.9294 126.079 11.9326C126.662 12.9196 126.953 14.0442 126.953 15.3063C126.953 16.5684 126.662 17.701 126.079 18.7042C125.513 19.6912 124.72 20.4679 123.701 21.0342C122.698 21.6006 121.557 21.8837 120.279 21.8837ZM120.279 19.845C121.104 19.845 121.84 19.6589 122.487 19.2867C123.151 18.8984 123.668 18.3644 124.041 17.6848C124.413 16.9891 124.599 16.1962 124.599 15.3063C124.599 14.4163 124.413 13.6316 124.041 12.952C123.668 12.2562 123.151 11.7222 122.487 11.3501C121.84 10.9779 121.104 10.7918 120.279 10.7918C119.453 10.7918 118.709 10.9779 118.046 11.3501C117.398 11.7222 116.881 12.2562 116.492 12.952C116.12 13.6316 115.934 14.4163 115.934 15.3063C115.934 16.1962 116.12 16.9891 116.492 17.6848C116.881 18.3644 117.398 18.8984 118.046 19.2867C118.709 19.6589 119.453 19.845 120.279 19.845Z" fill="#FBFBFB"/>
<path d="M105.099 28.3549C105.467 28.4348 105.75 28.5947 105.947 28.8345C106.149 29.069 106.251 29.3728 106.251 29.7459C106.251 30.2255 106.072 30.5959 105.715 30.8571C105.363 31.1129 104.841 31.2408 104.148 31.2408H101.574V25.6449H103.988C104.612 25.6449 105.094 25.7701 105.435 26.0206C105.782 26.2711 105.955 26.6255 105.955 27.0838C105.955 27.3929 105.877 27.6567 105.723 27.8752C105.574 28.0884 105.366 28.2483 105.099 28.3549ZM102.165 26.1325V28.163H103.948C104.401 28.163 104.75 28.0778 104.995 27.9072C105.241 27.7313 105.363 27.4782 105.363 27.1478C105.363 26.8173 105.241 26.5669 104.995 26.3963C104.75 26.2205 104.401 26.1325 103.948 26.1325H102.165ZM104.14 30.7531C104.641 30.7531 105.019 30.6679 105.275 30.4973C105.531 30.3268 105.659 30.0603 105.659 29.6979C105.659 28.9998 105.153 28.6507 104.14 28.6507H102.165V30.7531H104.14ZM111.558 30.7292V31.2408H107.601V25.6449H111.438V26.1565H108.192V28.147H111.086V28.6507H108.192V30.7292H111.558ZM114.036 26.1565H112.069V25.6449H116.594V26.1565H114.627V31.2408H114.036V26.1565ZM120.767 29.7459H117.649L116.978 31.2408H116.362L118.921 25.6449H119.504L122.062 31.2408H121.439L120.767 29.7459ZM120.551 29.2662L119.208 26.2604L117.865 29.2662H120.551Z" fill="white"/>
</svg>
