<svg width="155" height="39" viewBox="0 0 155 39" fill="none" xmlns="http://www.w3.org/2000/svg">
<path fill-rule="evenodd" clip-rule="evenodd" d="M16.5756 0.00244706C16.5757 0.00244807 16.5757 0.00249503 16.5757 0.00255528V0.00255528C16.5757 0.00261481 16.5758 0.0026615 16.5758 0.00266348C18.5389 0.0677339 20.3119 1.3713 21.6026 3.44524C21.8051 3.77058 21.9063 3.93325 21.8694 4.11275C21.8324 4.29224 21.66 4.41215 21.3152 4.65197C16.6667 7.88533 13.618 13.3078 13.618 19.4515C13.618 25.5688 16.6405 30.9709 21.2552 34.2091C21.5931 34.4462 21.762 34.5648 21.7995 34.7414C21.837 34.9181 21.74 35.0797 21.5459 35.403C20.2483 37.5645 18.4376 38.9301 16.4275 38.9972C16.4269 38.9972 16.4263 38.9977 16.4263 38.9984V38.9984C16.4262 38.9991 16.4268 38.9998 16.4276 38.9998H16.4431C16.4087 39 16.3742 39.0001 16.3398 39.0001C7.31557 39.0001 0 30.2698 0 19.5003C0 8.73083 7.31557 0.000457764 16.3398 0.000457764C16.4185 0.000457764 16.4971 0.00112234 16.5756 0.00244706Z" fill="#FBFBFB"/>
<path fill-rule="evenodd" clip-rule="evenodd" d="M24.3383 30.3463C24.5975 28.6775 25.9392 27.2999 27.628 27.2999L29.852 27.2999L36.1357 27.2999C37.8614 27.2999 39.2905 28.7557 38.7609 30.3981C37.051 35.7003 31.4455 38.9998 25.1468 38.9998L17.974 38.9998C17.9733 38.9998 17.9727 38.9992 17.9727 38.9984V38.9984C17.9728 38.9978 17.9733 38.9972 17.974 38.9972C21.0239 38.8868 23.5757 35.255 24.3383 30.3463Z" fill="#FBFBFB"/>
<path fill-rule="evenodd" clip-rule="evenodd" d="M25.2843 1.39471e-06L18.1115 1.094e-06C18.1108 1.09397e-06 18.1102 0.000632191 18.1102 0.0013781V0.0013781C18.1103 0.00204199 18.1108 0.00256592 18.1115 0.00258998C21.1614 0.112992 23.7133 3.7448 24.4759 8.6535C24.7351 10.3223 26.0768 11.6999 27.7656 11.6999L29.9895 11.6999L36.2732 11.6999C37.9989 11.6999 39.4281 10.2441 38.8984 8.60168C37.1885 3.29945 31.583 2.6192e-06 25.2843 1.39471e-06Z" fill="#FBFBFB"/>
<path d="M70.1405 30.3737C68.106 30.3737 66.2651 29.928 64.6181 29.0367C62.9905 28.126 61.7116 26.8859 60.7815 25.3163C59.8514 23.7274 59.3863 21.9447 59.3863 19.9683C59.3863 17.9919 59.8514 16.2189 60.7815 14.6493C61.7116 13.0604 63.0001 11.8203 64.6472 10.929C66.2942 10.0183 68.135 9.5629 70.1696 9.5629C71.7585 9.5629 73.2118 9.83418 74.5294 10.3767C75.847 10.8999 76.9709 11.6847 77.901 12.731L76.0117 14.5621C74.481 12.9539 72.5723 12.1497 70.2859 12.1497C68.7745 12.1497 67.4084 12.4888 66.1876 13.167C64.9669 13.8452 64.0077 14.785 63.3102 15.9863C62.632 17.1683 62.2929 18.4957 62.2929 19.9683C62.2929 21.4409 62.632 22.778 63.3102 23.9793C64.0077 25.1613 64.9669 26.0914 66.1876 26.7696C67.4084 27.4478 68.7745 27.7869 70.2859 27.7869C72.553 27.7869 74.4616 26.9731 76.0117 25.3454L77.901 27.1765C76.9709 28.2229 75.8373 29.0173 74.5003 29.5599C73.1827 30.1024 71.7294 30.3737 70.1405 30.3737ZM87.5854 30.3156C86.0546 30.3156 84.6789 29.9765 83.4581 29.2983C82.2374 28.6201 81.2782 27.69 80.5807 26.508C79.9025 25.3066 79.5634 23.9503 79.5634 22.4389C79.5634 20.9275 79.9025 19.5808 80.5807 18.3988C81.2782 17.1974 82.2374 16.2673 83.4581 15.6085C84.6789 14.9303 86.0546 14.5912 87.5854 14.5912C89.1162 14.5912 90.4823 14.9303 91.6836 15.6085C92.9044 16.2673 93.8538 17.1974 94.532 18.3988C95.2296 19.5808 95.5784 20.9275 95.5784 22.4389C95.5784 23.9503 95.2296 25.3066 94.532 26.508C93.8538 27.69 92.9044 28.6201 91.6836 29.2983C90.4823 29.9765 89.1162 30.3156 87.5854 30.3156ZM87.5854 27.8741C88.5736 27.8741 89.4553 27.6512 90.2304 27.2056C91.0248 26.7405 91.6449 26.1011 92.0905 25.2873C92.5362 24.4541 92.7591 23.5046 92.7591 22.4389C92.7591 21.3731 92.5362 20.4333 92.0905 19.6195C91.6449 18.7863 91.0248 18.1469 90.2304 17.7012C89.4553 17.2555 88.5736 17.0327 87.5854 17.0327C86.5972 17.0327 85.7059 17.2555 84.9114 17.7012C84.1363 18.1469 83.5163 18.7863 83.0512 19.6195C82.6056 20.4333 82.3827 21.3731 82.3827 22.4389C82.3827 23.5046 82.6056 24.4541 83.0512 25.2873C83.5163 26.1011 84.1363 26.7405 84.9114 27.2056C85.7059 27.6512 86.5972 27.8741 87.5854 27.8741ZM114.173 14.7365V28.0485C114.173 30.7419 113.505 32.728 112.168 34.0069C110.831 35.3051 108.835 35.9542 106.18 35.9542C104.727 35.9542 103.342 35.7508 102.024 35.3439C100.706 34.9563 99.6407 34.3944 98.8269 33.6581L100.164 31.5072C100.881 32.1273 101.763 32.6117 102.809 32.9605C103.875 33.3287 104.969 33.5128 106.093 33.5128C107.895 33.5128 109.223 33.0865 110.075 32.2339C110.947 31.3813 111.383 30.083 111.383 28.3391V27.1184C110.724 27.9128 109.91 28.5135 108.942 28.9204C107.992 29.308 106.956 29.5017 105.832 29.5017C104.359 29.5017 103.022 29.1917 101.821 28.5716C100.639 27.9322 99.7085 27.0506 99.0304 25.9267C98.3522 24.7835 98.0131 23.4852 98.0131 22.0319C98.0131 20.5787 98.3522 19.2901 99.0304 18.1662C99.7085 17.023 100.639 16.1414 101.821 15.5213C103.022 14.9012 104.359 14.5912 105.832 14.5912C106.994 14.5912 108.07 14.8044 109.058 15.2306C110.066 15.6569 110.889 16.2867 111.528 17.1199V14.7365H114.173ZM106.151 27.0602C107.159 27.0602 108.06 26.8471 108.854 26.4208C109.668 25.9945 110.298 25.4035 110.744 24.6478C111.209 23.8727 111.441 23.0008 111.441 22.0319C111.441 20.5399 110.947 19.3386 109.959 18.4278C108.971 17.4977 107.702 17.0327 106.151 17.0327C104.582 17.0327 103.303 17.4977 102.315 18.4278C101.327 19.3386 100.832 20.5399 100.832 22.0319C100.832 23.0008 101.055 23.8727 101.501 24.6478C101.966 25.4035 102.596 25.9945 103.39 26.4208C104.204 26.8471 105.124 27.0602 106.151 27.0602ZM119.505 14.7365H122.295V30.1412H119.505V14.7365ZM120.9 11.7719C120.357 11.7719 119.902 11.5975 119.534 11.2487C119.185 10.8999 119.011 10.4736 119.011 9.96982C119.011 9.46602 119.185 9.03973 119.534 8.69094C119.902 8.32278 120.357 8.1387 120.9 8.1387C121.443 8.1387 121.888 8.31309 122.237 8.66188C122.605 8.99128 122.789 9.40789 122.789 9.91169C122.789 10.4349 122.605 10.8805 122.237 11.2487C121.888 11.5975 121.443 11.7719 120.9 11.7719ZM136.284 29.2401C135.877 29.5889 135.373 29.8602 134.773 30.054C134.172 30.2284 133.552 30.3156 132.913 30.3156C131.362 30.3156 130.161 29.899 129.309 29.0658C128.456 28.2325 128.03 27.0409 128.03 25.4907V17.0327H125.414V14.7365H128.03V11.365H130.82V14.7365H135.238V17.0327H130.82V25.3745C130.82 26.2077 131.023 26.8471 131.43 27.2928C131.857 27.7384 132.457 27.9613 133.232 27.9613C134.085 27.9613 134.812 27.7191 135.412 27.2346L136.284 29.2401ZM145.745 30.3156C144.214 30.3156 142.838 29.9765 141.617 29.2983C140.396 28.6201 139.437 27.69 138.74 26.508C138.062 25.3066 137.722 23.9503 137.722 22.4389C137.722 20.9275 138.062 19.5808 138.74 18.3988C139.437 17.1974 140.396 16.2673 141.617 15.6085C142.838 14.9303 144.214 14.5912 145.745 14.5912C147.275 14.5912 148.641 14.9303 149.843 15.6085C151.063 16.2673 152.013 17.1974 152.691 18.3988C153.389 19.5808 153.737 20.9275 153.737 22.4389C153.737 23.9503 153.389 25.3066 152.691 26.508C152.013 27.69 151.063 28.6201 149.843 29.2983C148.641 29.9765 147.275 30.3156 145.745 30.3156ZM145.745 27.8741C146.733 27.8741 147.614 27.6512 148.389 27.2056C149.184 26.7405 149.804 26.1011 150.25 25.2873C150.695 24.4541 150.918 23.5046 150.918 22.4389C150.918 21.3731 150.695 20.4333 150.25 19.6195C149.804 18.7863 149.184 18.1469 148.389 17.7012C147.614 17.2555 146.733 17.0327 145.745 17.0327C144.756 17.0327 143.865 17.2555 143.071 17.7012C142.295 18.1469 141.675 18.7863 141.21 19.6195C140.765 20.4333 140.542 21.3731 140.542 22.4389C140.542 23.5046 140.765 24.4541 141.21 25.2873C141.675 26.1011 142.295 26.7405 143.071 27.2056C143.865 27.6512 144.756 27.8741 145.745 27.8741Z" fill="#FBFBFB"/>
</svg>
