<svg width="117" height="47" viewBox="0 0 117 47" fill="none" xmlns="http://www.w3.org/2000/svg">
<g filter="url(#filter0_d)">
<path d="M4.3961 5.16884C4.3961 3.6375 5.6375 2.3961 7.16884 2.3961H109.831C111.362 2.3961 112.604 3.6375 112.604 5.16884V29.3727C112.604 30.904 111.362 32.1454 109.831 32.1454H58.5H12.2691C11.9169 32.1454 11.5828 32.3017 11.357 32.5721L5.09625 40.0693C4.85891 40.3535 4.3961 40.1857 4.3961 39.8154V32.5415V5.16884Z" fill="#4787D3" stroke="#4787D3" stroke-width="0.79221"/>
<path d="M23.2209 18.058L21.5984 19.7058V22H20.3309V13.1273H21.5984V18.0833L26.4151 13.1273H27.8601L24.0701 17.12L28.1009 22H26.6179L23.2209 18.058ZM31.8441 22.0761C31.1765 22.0761 30.5766 21.9282 30.0442 21.6324C29.5118 21.3367 29.0935 20.931 28.7893 20.4156C28.4936 19.8917 28.3457 19.3001 28.3457 18.641C28.3457 17.9819 28.4936 17.3946 28.7893 16.8792C29.0935 16.3552 29.5118 15.9496 30.0442 15.6623C30.5766 15.3666 31.1765 15.2187 31.8441 15.2187C32.5117 15.2187 33.1074 15.3666 33.6313 15.6623C34.1637 15.9496 34.5777 16.3552 34.8735 16.8792C35.1777 17.3946 35.3298 17.9819 35.3298 18.641C35.3298 19.3001 35.1777 19.8917 34.8735 20.4156C34.5777 20.931 34.1637 21.3367 33.6313 21.6324C33.1074 21.9282 32.5117 22.0761 31.8441 22.0761ZM31.8441 21.0113C32.2751 21.0113 32.6595 20.9141 32.9976 20.7198C33.344 20.517 33.6144 20.2381 33.8088 19.8832C34.0031 19.5199 34.1003 19.1058 34.1003 18.641C34.1003 18.1763 34.0031 17.7664 33.8088 17.4115C33.6144 17.0482 33.344 16.7693 32.9976 16.5749C32.6595 16.3806 32.2751 16.2834 31.8441 16.2834C31.4131 16.2834 31.0244 16.3806 30.678 16.5749C30.34 16.7693 30.0695 17.0482 29.8667 17.4115C29.6724 17.7664 29.5752 18.1763 29.5752 18.641C29.5752 19.1058 29.6724 19.5199 29.8667 19.8832C30.0695 20.2381 30.34 20.517 30.678 20.7198C31.0244 20.9141 31.4131 21.0113 31.8441 21.0113ZM45.4164 15.2187C46.2615 15.2187 46.929 15.4637 47.4191 15.9539C47.9177 16.444 48.167 17.1707 48.167 18.134V22H46.9502V18.2734C46.9502 17.6228 46.798 17.1327 46.4938 16.8031C46.1981 16.4735 45.7713 16.3088 45.2136 16.3088C44.5968 16.3088 44.1066 16.5031 43.7433 16.8918C43.3799 17.2721 43.1982 17.8214 43.1982 18.5396V22H41.9814V18.2734C41.9814 17.6228 41.8293 17.1327 41.5251 16.8031C41.2293 16.4735 40.8026 16.3088 40.2449 16.3088C39.628 16.3088 39.1379 16.5031 38.7745 16.8918C38.4112 17.2721 38.2295 17.8214 38.2295 18.5396V22H37.0127V15.2821H38.1788V16.2834C38.4239 15.937 38.745 15.675 39.1421 15.4975C39.5393 15.3116 39.9914 15.2187 40.4984 15.2187C41.0223 15.2187 41.4871 15.3243 41.8927 15.5356C42.2983 15.7468 42.611 16.0553 42.8307 16.4609C43.0842 16.0722 43.4349 15.7679 43.8827 15.5482C44.339 15.3285 44.8503 15.2187 45.4164 15.2187ZM58.8097 15.2187C59.6548 15.2187 60.3223 15.4637 60.8124 15.9539C61.311 16.444 61.5603 17.1707 61.5603 18.134V22H60.3434V18.2734C60.3434 17.6228 60.1913 17.1327 59.8871 16.8031C59.5914 16.4735 59.1646 16.3088 58.6069 16.3088C57.9901 16.3088 57.4999 16.5031 57.1366 16.8918C56.7732 17.2721 56.5915 17.8214 56.5915 18.5396V22H55.3747V18.2734C55.3747 17.6228 55.2226 17.1327 54.9184 16.8031C54.6226 16.4735 54.1959 16.3088 53.6382 16.3088C53.0213 16.3088 52.5312 16.5031 52.1678 16.8918C51.8045 17.2721 51.6228 17.8214 51.6228 18.5396V22H50.406V15.2821H51.5721V16.2834C51.8172 15.937 52.1383 15.675 52.5354 15.4975C52.9326 15.3116 53.3847 15.2187 53.8917 15.2187C54.4156 15.2187 54.8804 15.3243 55.286 15.5356C55.6916 15.7468 56.0043 16.0553 56.224 16.4609C56.4775 16.0722 56.8281 15.7679 57.276 15.5482C57.7323 15.3285 58.2436 15.2187 58.8097 15.2187ZM69.9079 18.6791C69.9079 18.772 69.8994 18.8945 69.8825 19.0466H64.4321C64.5082 19.6382 64.7659 20.1156 65.2053 20.479C65.6532 20.8339 66.2067 21.0113 66.8658 21.0113C67.6686 21.0113 68.315 20.7409 68.8051 20.2001L69.4769 20.986C69.1727 21.3409 68.7925 21.6113 68.3362 21.7972C67.8883 21.9831 67.3855 22.0761 66.8278 22.0761C66.118 22.0761 65.4884 21.9324 64.9392 21.6451C64.3899 21.3493 63.9632 20.9395 63.6589 20.4156C63.3632 19.8917 63.2153 19.3001 63.2153 18.641C63.2153 17.9904 63.359 17.4031 63.6463 16.8792C63.942 16.3552 64.3434 15.9496 64.8504 15.6623C65.3659 15.3666 65.9447 15.2187 66.587 15.2187C67.2292 15.2187 67.7996 15.3666 68.2981 15.6623C68.8051 15.9496 69.1981 16.3552 69.4769 16.8792C69.7642 17.4031 69.9079 18.003 69.9079 18.6791ZM66.587 16.2454C66.0039 16.2454 65.5138 16.4228 65.1166 16.7778C64.7279 17.1327 64.4997 17.5974 64.4321 18.172H68.7418C68.6742 17.6059 68.4418 17.1453 68.0446 16.7904C67.6559 16.4271 67.17 16.2454 66.587 16.2454ZM75.1847 15.2187C76.0382 15.2187 76.7142 15.468 77.2128 15.9665C77.7198 16.4566 77.9733 17.1791 77.9733 18.134V22H76.7564V18.2734C76.7564 17.6228 76.6001 17.1327 76.2875 16.8031C75.9748 16.4735 75.5269 16.3088 74.9439 16.3088C74.2848 16.3088 73.7651 16.5031 73.3848 16.8918C73.0045 17.2721 72.8144 17.8214 72.8144 18.5396V22H71.5976V15.2821H72.7637V16.2961C73.0088 15.9496 73.3383 15.6834 73.7524 15.4975C74.1749 15.3116 74.6523 15.2187 75.1847 15.2187ZM84.0025 21.6071C83.825 21.7592 83.6053 21.8775 83.3434 21.962C83.0814 22.038 82.811 22.0761 82.5321 22.0761C81.8561 22.0761 81.3322 21.8944 80.9604 21.531C80.5886 21.1677 80.4027 20.648 80.4027 19.9719V16.2834H79.2619V15.2821H80.4027V13.8117H81.6195V15.2821H83.5462V16.2834H81.6195V19.9212C81.6195 20.2846 81.7083 20.5635 81.8857 20.7578C82.0716 20.9522 82.3336 21.0493 82.6716 21.0493C83.0434 21.0493 83.3603 20.9437 83.6222 20.7325L84.0025 21.6071Z" fill="white"/>
<path d="M102.996 19.8976C102.996 20.1834 102.882 20.4576 102.68 20.6597C102.478 20.8618 102.204 20.9754 101.919 20.9754H95.4541L93.2993 23.131V14.5085C93.2993 14.2226 93.4128 13.9485 93.6149 13.7464C93.8169 13.5442 94.091 13.4307 94.3767 13.4307H101.919C102.204 13.4307 102.478 13.5442 102.68 13.7464C102.882 13.9485 102.996 14.2226 102.996 14.5085V19.8976Z" stroke="white" stroke-width="0.98368" stroke-linecap="round" stroke-linejoin="round"/>
</g>
<defs>
<filter id="filter0_d" x="0.0389512" y="0.41558" width="116.922" height="46.5313" filterUnits="userSpaceOnUse" color-interpolation-filters="sRGB">
<feFlood flood-opacity="0" result="BackgroundImageFix"/>
<feColorMatrix in="SourceAlpha" type="matrix" values="0 0 0 0 0 0 0 0 0 0 0 0 0 0 0 0 0 0 127 0"/>
<feOffset dy="2.37663"/>
<feGaussianBlur stdDeviation="1.98052"/>
<feColorMatrix type="matrix" values="0 0 0 0 0.278431 0 0 0 0 0.529412 0 0 0 0 0.827451 0 0 0 0.25 0"/>
<feBlend mode="normal" in2="BackgroundImageFix" result="effect1_dropShadow"/>
<feBlend mode="normal" in="SourceGraphic" in2="effect1_dropShadow" result="shape"/>
</filter>
</defs>
</svg>
