<svg width="105" height="36" viewBox="0 0 105 36" fill="none" xmlns="http://www.w3.org/2000/svg">
<path d="M3 0.396105H102C103.438 0.396105 104.604 1.56191 104.604 3V24C104.604 25.4381 103.438 26.6039 102 26.6039H52H8.19119C7.15449 26.6039 6.17457 27.0774 5.53037 27.8896L1.47315 33.0052C1.11763 33.4534 0.396105 33.202 0.396105 32.6299V27.778V3C0.396105 1.56191 1.56191 0.396105 3 0.396105Z" fill="#4787D3" stroke="#4787D3" stroke-width="0.79221"/>
<path d="M18.2983 18.1014C17.411 18.1014 16.6083 17.907 15.89 17.5183C15.1802 17.1212 14.6224 16.5804 14.2168 15.8959C13.8112 15.203 13.6084 14.4255 13.6084 13.5636C13.6084 12.7017 13.8112 11.9285 14.2168 11.244C14.6224 10.5511 15.1844 10.0103 15.9027 9.62159C16.6209 9.22443 17.4237 9.02585 18.311 9.02585C19.0039 9.02585 19.6377 9.14415 20.2123 9.38076C20.7869 9.60891 21.277 9.95115 21.6826 10.4075L20.8587 11.206C20.1912 10.5046 19.3588 10.154 18.3617 10.154C17.7026 10.154 17.1068 10.3018 16.5745 10.5976C16.0421 10.8934 15.6238 11.3032 15.3196 11.8271C15.0238 12.3426 14.876 12.9214 14.876 13.5636C14.876 14.2058 15.0238 14.7889 15.3196 15.3128C15.6238 15.8283 16.0421 16.2339 16.5745 16.5297C17.1068 16.8254 17.7026 16.9733 18.3617 16.9733C19.3504 16.9733 20.1827 16.6184 20.8587 15.9086L21.6826 16.7071C21.277 17.1634 20.7827 17.5099 20.1996 17.7465C19.625 17.9831 18.9912 18.1014 18.2983 18.1014ZM25.906 18.0761C25.2384 18.0761 24.6385 17.9282 24.1061 17.6324C23.5737 17.3367 23.1554 16.931 22.8512 16.4156C22.5555 15.8917 22.4076 15.3001 22.4076 14.641C22.4076 13.9819 22.5555 13.3946 22.8512 12.8792C23.1554 12.3552 23.5737 11.9496 24.1061 11.6623C24.6385 11.3666 25.2384 11.2187 25.906 11.2187C26.5736 11.2187 27.1693 11.3666 27.6932 11.6623C28.2256 11.9496 28.6396 12.3552 28.9354 12.8792C29.2396 13.3946 29.3917 13.9819 29.3917 14.641C29.3917 15.3001 29.2396 15.8917 28.9354 16.4156C28.6396 16.931 28.2256 17.3367 27.6932 17.6324C27.1693 17.9282 26.5736 18.0761 25.906 18.0761ZM25.906 17.0113C26.337 17.0113 26.7214 16.9141 27.0594 16.7198C27.4059 16.517 27.6763 16.2381 27.8707 15.8832C28.065 15.5199 28.1622 15.1058 28.1622 14.641C28.1622 14.1763 28.065 13.7664 27.8707 13.4115C27.6763 13.0482 27.4059 12.7693 27.0594 12.5749C26.7214 12.3806 26.337 12.2834 25.906 12.2834C25.475 12.2834 25.0863 12.3806 24.7399 12.5749C24.4018 12.7693 24.1314 13.0482 23.9286 13.4115C23.7343 13.7664 23.6371 14.1763 23.6371 14.641C23.6371 15.1058 23.7343 15.5199 23.9286 15.8832C24.1314 16.2381 24.4018 16.517 24.7399 16.7198C25.0863 16.9141 25.475 17.0113 25.906 17.0113ZM39.4783 11.2187C40.3233 11.2187 40.9909 11.4637 41.481 11.9539C41.9796 12.444 42.2289 13.1707 42.2289 14.134V18H41.012V14.2734C41.012 13.6228 40.8599 13.1327 40.5557 12.8031C40.26 12.4735 39.8332 12.3088 39.2755 12.3088C38.6587 12.3088 38.1685 12.5031 37.8052 12.8918C37.4418 13.2721 37.2601 13.8214 37.2601 14.5396V18H36.0433V14.2734C36.0433 13.6228 35.8912 13.1327 35.587 12.8031C35.2912 12.4735 34.8645 12.3088 34.3068 12.3088C33.6899 12.3088 33.1998 12.5031 32.8364 12.8918C32.4731 13.2721 32.2914 13.8214 32.2914 14.5396V18H31.0746V11.2821H32.2407V12.2834C32.4858 11.937 32.8069 11.675 33.204 11.4975C33.6012 11.3116 34.0533 11.2187 34.5603 11.2187C35.0842 11.2187 35.549 11.3243 35.9546 11.5356C36.3602 11.7468 36.6728 12.0553 36.8926 12.4609C37.1461 12.0722 37.4967 11.7679 37.9446 11.5482C38.4009 11.3285 38.9122 11.2187 39.4783 11.2187ZM52.8716 11.2187C53.7166 11.2187 54.3842 11.4637 54.8743 11.9539C55.3729 12.444 55.6222 13.1707 55.6222 14.134V18H54.4053V14.2734C54.4053 13.6228 54.2532 13.1327 53.949 12.8031C53.6533 12.4735 53.2265 12.3088 52.6688 12.3088C52.0519 12.3088 51.5618 12.5031 51.1985 12.8918C50.8351 13.2721 50.6534 13.8214 50.6534 14.5396V18H49.4366V14.2734C49.4366 13.6228 49.2845 13.1327 48.9803 12.8031C48.6845 12.4735 48.2578 12.3088 47.7001 12.3088C47.0832 12.3088 46.5931 12.5031 46.2297 12.8918C45.8664 13.2721 45.6847 13.8214 45.6847 14.5396V18H44.4679V11.2821H45.634V12.2834C45.879 11.937 46.2002 11.675 46.5973 11.4975C46.9945 11.3116 47.4466 11.2187 47.9536 11.2187C48.4775 11.2187 48.9423 11.3243 49.3479 11.5356C49.7535 11.7468 50.0661 12.0553 50.2858 12.4609C50.5394 12.0722 50.89 11.7679 51.3379 11.5482C51.7942 11.3285 52.3055 11.2187 52.8716 11.2187ZM63.9698 14.6791C63.9698 14.772 63.9613 14.8945 63.9444 15.0466H58.494C58.5701 15.6382 58.8278 16.1156 59.2672 16.479C59.7151 16.8339 60.2686 17.0113 60.9277 17.0113C61.7305 17.0113 62.3769 16.7409 62.867 16.2001L63.5388 16.986C63.2346 17.3409 62.8544 17.6113 62.398 17.7972C61.9502 17.9831 61.4474 18.0761 60.8897 18.0761C60.1799 18.0761 59.5503 17.9324 59.001 17.6451C58.4518 17.3493 58.025 16.9395 57.7208 16.4156C57.4251 15.8917 57.2772 15.3001 57.2772 14.641C57.2772 13.9904 57.4209 13.4031 57.7082 12.8792C58.0039 12.3552 58.4053 11.9496 58.9123 11.6623C59.4278 11.3666 60.0066 11.2187 60.6488 11.2187C61.2911 11.2187 61.8614 11.3666 62.36 11.6623C62.867 11.9496 63.26 12.3552 63.5388 12.8792C63.8261 13.4031 63.9698 14.003 63.9698 14.6791ZM60.6488 12.2454C60.0658 12.2454 59.5757 12.4228 59.1785 12.7778C58.7898 13.1327 58.5616 13.5974 58.494 14.172H62.8037C62.736 13.6059 62.5037 13.1453 62.1065 12.7904C61.7178 12.4271 61.2319 12.2454 60.6488 12.2454ZM69.2466 11.2187C70.1001 11.2187 70.7761 11.468 71.2747 11.9665C71.7817 12.4566 72.0352 13.1791 72.0352 14.134V18H70.8183V14.2734C70.8183 13.6228 70.662 13.1327 70.3494 12.8031C70.0367 12.4735 69.5888 12.3088 69.0058 12.3088C68.3466 12.3088 67.827 12.5031 67.4467 12.8918C67.0664 13.2721 66.8763 13.8214 66.8763 14.5396V18H65.6595V11.2821H66.8256V12.2961C67.0707 11.9496 67.4002 11.6834 67.8143 11.4975C68.2368 11.3116 68.7142 11.2187 69.2466 11.2187ZM78.0644 17.6071C77.8869 17.7592 77.6672 17.8775 77.4053 17.962C77.1433 18.038 76.8729 18.0761 76.594 18.0761C75.918 18.0761 75.3941 17.8944 75.0223 17.531C74.6505 17.1677 74.4646 16.648 74.4646 15.9719V12.2834H73.3238V11.2821H74.4646V9.81172H75.6814V11.2821H77.6081V12.2834H75.6814V15.9212C75.6814 16.2846 75.7701 16.5635 75.9476 16.7578C76.1335 16.9522 76.3955 17.0493 76.7335 17.0493C77.1053 17.0493 77.4222 16.9437 77.6841 16.7325L78.0644 17.6071Z" fill="white"/>
<path d="M94.3202 16.1763C94.3202 16.431 94.219 16.6753 94.039 16.8554C93.859 17.0355 93.6148 17.1366 93.3602 17.1366H87.6002L85.6802 19.0574V11.3744C85.6802 11.1197 85.7813 10.8755 85.9614 10.6953C86.1414 10.5152 86.3856 10.4141 86.6402 10.4141H93.3602C93.6148 10.4141 93.859 10.5152 94.039 10.6953C94.219 10.8755 94.3202 11.1197 94.3202 11.3744V16.1763Z" stroke="white" stroke-width="0.876488" stroke-linecap="round" stroke-linejoin="round"/>
</svg>
