<svg width="105" height="36" viewBox="0 0 105 36" fill="none" xmlns="http://www.w3.org/2000/svg">
<g clip-path="url(#clip0)">
<path d="M2.99989 0.396484H102C103.438 0.396484 104.604 1.56229 104.604 3.00038V24.0004C104.604 25.4385 103.438 26.6043 102 26.6043H51.9999H8.19108C7.15438 26.6043 6.17446 27.0778 5.53026 27.89L1.47304 33.0056C1.11752 33.4538 0.395996 33.2024 0.395996 32.6303V27.7784V3.00038C0.395996 1.56229 1.5618 0.396484 2.99989 0.396484Z" fill="#4787D3" stroke="#4787D3" stroke-width="0.79221"/>
<path d="M94.3202 16.1763C94.3202 16.431 94.219 16.6753 94.039 16.8554C93.859 17.0355 93.6148 17.1366 93.3602 17.1366H87.6002L85.6802 19.0574V11.3744C85.6802 11.1197 85.7813 10.8755 85.9614 10.6953C86.1414 10.5152 86.3856 10.4141 86.6402 10.4141H93.3602C93.6148 10.4141 93.859 10.5152 94.039 10.6953C94.219 10.8755 94.3202 11.1197 94.3202 11.3744V16.1763Z" stroke="white" stroke-width="0.876488" stroke-linecap="round" stroke-linejoin="round"/>
<path d="M18.996 14.268L17.46 15.828V18H16.26V9.6H17.46V14.292L22.02 9.6H23.388L19.8 13.38L23.616 18H22.212L18.996 14.268ZM27.1598 18.072C26.5278 18.072 25.9598 17.932 25.4558 17.652C24.9518 17.372 24.5558 16.988 24.2678 16.5C23.9878 16.004 23.8478 15.444 23.8478 14.82C23.8478 14.196 23.9878 13.64 24.2678 13.152C24.5558 12.656 24.9518 12.272 25.4558 12C25.9598 11.72 26.5278 11.58 27.1598 11.58C27.7918 11.58 28.3558 11.72 28.8518 12C29.3558 12.272 29.7478 12.656 30.0278 13.152C30.3158 13.64 30.4598 14.196 30.4598 14.82C30.4598 15.444 30.3158 16.004 30.0278 16.5C29.7478 16.988 29.3558 17.372 28.8518 17.652C28.3558 17.932 27.7918 18.072 27.1598 18.072ZM27.1598 17.064C27.5678 17.064 27.9318 16.972 28.2518 16.788C28.5798 16.596 28.8358 16.332 29.0198 15.996C29.2038 15.652 29.2958 15.26 29.2958 14.82C29.2958 14.38 29.2038 13.992 29.0198 13.656C28.8358 13.312 28.5798 13.048 28.2518 12.864C27.9318 12.68 27.5678 12.588 27.1598 12.588C26.7518 12.588 26.3838 12.68 26.0558 12.864C25.7358 13.048 25.4798 13.312 25.2878 13.656C25.1038 13.992 25.0118 14.38 25.0118 14.82C25.0118 15.26 25.1038 15.652 25.2878 15.996C25.4798 16.332 25.7358 16.596 26.0558 16.788C26.3838 16.972 26.7518 17.064 27.1598 17.064ZM40.0089 11.58C40.8089 11.58 41.4409 11.812 41.9049 12.276C42.3769 12.74 42.6129 13.428 42.6129 14.34V18H41.4609V14.472C41.4609 13.856 41.3169 13.392 41.0289 13.08C40.7489 12.768 40.3449 12.612 39.8169 12.612C39.2329 12.612 38.7689 12.796 38.4249 13.164C38.0809 13.524 37.9089 14.044 37.9089 14.724V18H36.7569V14.472C36.7569 13.856 36.6129 13.392 36.3249 13.08C36.0449 12.768 35.6409 12.612 35.1129 12.612C34.5289 12.612 34.0649 12.796 33.7209 13.164C33.3769 13.524 33.2049 14.044 33.2049 14.724V18H32.0529V11.64H33.1569V12.588C33.3889 12.26 33.6929 12.012 34.0689 11.844C34.4449 11.668 34.8729 11.58 35.3529 11.58C35.8489 11.58 36.2889 11.68 36.6729 11.88C37.0569 12.08 37.3529 12.372 37.5609 12.756C37.8009 12.388 38.1329 12.1 38.5569 11.892C38.9889 11.684 39.4729 11.58 40.0089 11.58ZM52.6886 11.58C53.4886 11.58 54.1206 11.812 54.5846 12.276C55.0566 12.74 55.2926 13.428 55.2926 14.34V18H54.1406V14.472C54.1406 13.856 53.9966 13.392 53.7086 13.08C53.4286 12.768 53.0246 12.612 52.4966 12.612C51.9126 12.612 51.4486 12.796 51.1046 13.164C50.7606 13.524 50.5886 14.044 50.5886 14.724V18H49.4366V14.472C49.4366 13.856 49.2926 13.392 49.0046 13.08C48.7246 12.768 48.3206 12.612 47.7926 12.612C47.2086 12.612 46.7446 12.796 46.4006 13.164C46.0566 13.524 45.8846 14.044 45.8846 14.724V18H44.7326V11.64H45.8366V12.588C46.0686 12.26 46.3726 12.012 46.7486 11.844C47.1246 11.668 47.5526 11.58 48.0326 11.58C48.5286 11.58 48.9686 11.68 49.3526 11.88C49.7366 12.08 50.0326 12.372 50.2406 12.756C50.4806 12.388 50.8126 12.1 51.2366 11.892C51.6686 11.684 52.1526 11.58 52.6886 11.58ZM63.1955 14.856C63.1955 14.944 63.1875 15.06 63.1715 15.204H58.0115C58.0835 15.764 58.3275 16.216 58.7435 16.56C59.1675 16.896 59.6915 17.064 60.3155 17.064C61.0755 17.064 61.6875 16.808 62.1515 16.296L62.7875 17.04C62.4995 17.376 62.1395 17.632 61.7075 17.808C61.2835 17.984 60.8075 18.072 60.2795 18.072C59.6075 18.072 59.0115 17.936 58.4915 17.664C57.9715 17.384 57.5675 16.996 57.2795 16.5C56.9995 16.004 56.8595 15.444 56.8595 14.82C56.8595 14.204 56.9955 13.648 57.2675 13.152C57.5475 12.656 57.9275 12.272 58.4075 12C58.8955 11.72 59.4435 11.58 60.0515 11.58C60.6595 11.58 61.1995 11.72 61.6715 12C62.1515 12.272 62.5235 12.656 62.7875 13.152C63.0595 13.648 63.1955 14.216 63.1955 14.856ZM60.0515 12.552C59.4995 12.552 59.0355 12.72 58.6595 13.056C58.2915 13.392 58.0755 13.832 58.0115 14.376H62.0915C62.0275 13.84 61.8075 13.404 61.4315 13.068C61.0635 12.724 60.6035 12.552 60.0515 12.552ZM68.1911 11.58C68.9991 11.58 69.6391 11.816 70.1111 12.288C70.5911 12.752 70.8311 13.436 70.8311 14.34V18H69.6791V14.472C69.6791 13.856 69.5311 13.392 69.2351 13.08C68.9391 12.768 68.5151 12.612 67.9631 12.612C67.3391 12.612 66.8471 12.796 66.4871 13.164C66.1271 13.524 65.9471 14.044 65.9471 14.724V18H64.7951V11.64H65.8991V12.6C66.1311 12.272 66.4431 12.02 66.8351 11.844C67.2351 11.668 67.6871 11.58 68.1911 11.58ZM76.5391 17.628C76.3711 17.772 76.1631 17.884 75.9151 17.964C75.6671 18.036 75.4111 18.072 75.1471 18.072C74.5071 18.072 74.0111 17.9 73.6591 17.556C73.3071 17.212 73.1311 16.72 73.1311 16.08V12.588H72.0511V11.64H73.1311V10.248H74.2831V11.64H76.1071V12.588H74.2831V16.032C74.2831 16.376 74.3671 16.64 74.5351 16.824C74.7111 17.008 74.9591 17.1 75.2791 17.1C75.6311 17.1 75.9311 17 76.1791 16.8L76.5391 17.628Z" fill="white"/>
</g>
<defs>
<clipPath id="clip0">
<rect width="105" height="36" fill="white"/>
</clipPath>
</defs>
</svg>
