<svg width="76" height="47" viewBox="0 0 76 47" fill="none" xmlns="http://www.w3.org/2000/svg">
<ellipse cx="21.9603" cy="20.8433" rx="3.56672" ry="2.58874" fill="#4787D3"/>
<ellipse cx="32.0655" cy="39.3958" rx="4.16118" ry="3.02019" fill="#4787D3"/>
<ellipse cx="7.09868" cy="18.6858" rx="4.16118" ry="3.02019" fill="#4787D3"/>
<ellipse cx="13.637" cy="28.6092" rx="3.56672" ry="2.58874" fill="#4787D3"/>
<ellipse cx="30.876" cy="29.904" rx="4.16118" ry="3.02019" fill="#4787D3"/>
<ellipse cx="11.8541" cy="36.8071" rx="2.97227" ry="2.15728" fill="#4787D3"/>
<path fill-rule="evenodd" clip-rule="evenodd" d="M41.6607 37.3455C37.8193 40.2903 32.3178 42.2423 26.055 42.2423C19.7868 42.2423 14.2812 40.2869 10.4393 37.3379C6.60221 34.3925 4.61158 30.6454 4.61158 26.8538C4.61158 23.0621 6.60221 19.3151 10.4393 16.3697C14.2812 13.4206 19.7868 11.4653 26.055 11.4653C26.4613 11.4653 26.8644 11.4735 27.2641 11.4897C28.0654 9.93011 29.1146 8.46644 30.3745 7.12728C28.9695 6.94734 27.5265 6.8537 26.055 6.8537C11.6652 6.8537 0 15.808 0 26.8538C0 37.8995 11.6652 46.8539 26.055 46.8539C34.7552 46.8539 42.4595 43.5805 47.1917 38.5507C45.2686 38.3044 43.4167 37.8964 41.6607 37.3455Z" fill="#4787D3"/>
<mask id="path-8-inside-1" fill="white">
<path fill-rule="evenodd" clip-rule="evenodd" d="M25.4565 18.824C25.4565 10.2384 32.5041 2.91641 42.4008 0.0806936C43.7559 -0.30759 45.0556 0.765616 45.7167 2.01058C46.6305 3.73107 48.3525 5.13261 50.5208 5.93725C51.1211 6.16 51.5114 6.75552 51.5114 7.39576C51.5114 12.9186 57.344 17.3958 64.5388 17.3958C65.0524 17.3958 65.5247 17.6772 65.7952 18.1138C67.3505 20.6241 70.2286 22.5582 73.7379 23.3852C75.2262 23.736 76.2653 25.2506 75.529 26.5907C71.5793 33.7787 62.313 38.8241 51.5115 38.8241C37.1218 38.8241 25.4565 29.8697 25.4565 18.824Z"/>
</mask>
<path d="M75.529 26.5907L79.5715 28.8121L75.529 26.5907ZM65.7952 18.1138L61.8741 20.5432L65.7952 18.1138ZM41.1303 -4.35353C30.0276 -1.17227 20.8439 7.4749 20.8439 18.824H30.0692C30.0692 13.002 34.9806 7.00509 43.6714 4.51492L41.1303 -4.35353ZM52.1256 1.61275C50.7964 1.11949 50.0729 0.378738 49.7905 -0.152973L41.643 4.17413C43.188 7.08339 45.9087 9.14573 48.916 10.2617L52.1256 1.61275ZM64.5388 12.7831C61.8683 12.7831 59.6198 11.9471 58.1357 10.8079C56.6563 9.67229 56.124 8.42557 56.124 7.39576H46.8987C46.8987 11.8888 49.2827 15.6421 52.5183 18.1258C55.7492 20.6059 60.0145 22.0085 64.5388 22.0085V12.7831ZM74.7959 18.8955C72.2308 18.291 70.5062 16.9595 69.7162 15.6844L61.8741 20.5432C64.1949 24.2888 68.2264 26.8254 72.6798 27.8749L74.7959 18.8955ZM51.5115 43.4367C63.5821 43.4367 74.63 37.8051 79.5715 28.8121L71.4864 24.3694C68.5285 29.7524 61.0438 34.2114 51.5115 34.2114V43.4367ZM20.8439 18.824C20.8439 26.0785 24.6861 32.3318 30.2792 36.6252C35.8676 40.9149 43.3897 43.4367 51.5115 43.4367V34.2114C45.2435 34.2114 39.7382 32.2561 35.8965 29.3072C32.0596 26.362 30.0692 22.6152 30.0692 18.824H20.8439ZM72.6798 27.8749C72.262 27.7764 71.8245 27.5107 71.5117 26.989C71.1422 26.3729 70.9581 25.3308 71.4864 24.3694L79.5715 28.8121C80.8362 26.5105 80.5007 24.0411 79.4237 22.2449C78.4033 20.5432 76.702 19.3447 74.7959 18.8955L72.6798 27.8749ZM48.916 10.2617C47.598 9.77263 46.8987 8.56379 46.8987 7.39576H56.124C56.124 4.94724 54.6442 2.54736 52.1256 1.61275L48.916 10.2617ZM64.5388 22.0085C63.3435 22.0085 62.3838 21.3659 61.8741 20.5432L69.7162 15.6844C68.6655 13.9885 66.7614 12.7831 64.5388 12.7831V22.0085ZM43.6714 4.51492C42.7501 4.7789 42.0402 4.45353 41.8034 4.29949C41.6124 4.17523 41.6104 4.11286 41.643 4.17413L49.7905 -0.152973C49.1619 -1.33666 48.1795 -2.55812 46.8346 -3.43315C45.444 -4.33796 43.4067 -5.0058 41.1303 -4.35353L43.6714 4.51492Z" fill="#4787D3" mask="url(#path-8-inside-1)"/>
<ellipse cx="49.4618" cy="13.1874" rx="3.03207" ry="2.67754" fill="#4787D3"/>
<ellipse cx="58.0521" cy="32.3767" rx="3.53742" ry="3.12379" fill="#4787D3"/>
<ellipse cx="36.827" cy="10.9566" rx="3.53742" ry="3.12379" fill="#4787D3"/>
<ellipse cx="42.3861" cy="21.2206" rx="3.03207" ry="2.67754" fill="#4787D3"/>
<ellipse cx="57.0413" cy="22.5589" rx="3.53742" ry="3.12379" fill="#4787D3"/>
<ellipse cx="40.869" cy="29.6991" rx="2.52673" ry="2.23128" fill="#4787D3"/>
</svg>
