<?xml version="1.0" encoding="utf-8"?>
<!-- Generator: Adobe Illustrator 19.2.1, SVG Export Plug-In . SVG Version: 6.00 Build 0)  -->
<svg version="1.1" id="Layer_1" xmlns="http://www.w3.org/2000/svg" xmlns:xlink="http://www.w3.org/1999/xlink" x="0px" y="0px"
	 viewBox="0 0 218.4 109.3" xml:space="preserve">
<style type="text/css">
	.st0{clip-path:url(#SVGID_2_);}
	.st1{clip-path:url(#SVGID_4_);fill:#FFFFFF;}
	.st2{clip-path:url(#SVGID_6_);}
	.st3{clip-path:url(#SVGID_8_);fill:#FFFFFF;}
	.st4{clip-path:url(#SVGID_10_);}
	.st5{clip-path:url(#SVGID_12_);fill:#FFFFFF;}
	.st6{clip-path:url(#SVGID_14_);}
	.st7{clip-path:url(#SVGID_16_);fill:#FFFFFF;}
	.st8{clip-path:url(#SVGID_18_);}
	.st9{clip-path:url(#SVGID_20_);fill:#FFFFFF;}
	.st10{clip-path:url(#SVGID_22_);}
	.st11{clip-path:url(#SVGID_24_);fill:#FFFFFF;}
	.st12{clip-path:url(#SVGID_26_);}
	.st13{clip-path:url(#SVGID_28_);fill:#FFFFFF;}
	.st14{clip-path:url(#SVGID_30_);}
	.st15{clip-path:url(#SVGID_32_);fill:#FFFFFF;}
	.st16{clip-path:url(#SVGID_34_);}
	.st17{clip-path:url(#SVGID_36_);fill:#FFFFFF;}
	.st18{clip-path:url(#SVGID_38_);}
	.st19{clip-path:url(#SVGID_40_);fill:#FFFFFF;}
	.st20{clip-path:url(#SVGID_42_);}
	.st21{clip-path:url(#SVGID_44_);fill:#FFFFFF;}
	.st22{clip-path:url(#SVGID_46_);}
	.st23{clip-path:url(#SVGID_48_);fill:#FFFFFF;}
	.st24{clip-path:url(#SVGID_50_);}
	.st25{clip-path:url(#SVGID_52_);fill:#FFFFFF;}
	.st26{clip-path:url(#SVGID_54_);}
	.st27{clip-path:url(#SVGID_56_);fill:#FFFFFF;}
	.st28{clip-path:url(#SVGID_58_);}
	.st29{clip-path:url(#SVGID_60_);fill:#FFFFFF;}
	.st30{clip-path:url(#SVGID_62_);}
	.st31{clip-path:url(#SVGID_64_);fill:#FFFFFF;}
	.st32{clip-path:url(#SVGID_66_);}
	.st33{clip-path:url(#SVGID_68_);fill:#FFFFFF;}
	.st34{clip-path:url(#SVGID_70_);}
	.st35{clip-path:url(#SVGID_72_);fill:#FFFFFF;}
	.st36{clip-path:url(#SVGID_74_);}
	.st37{clip-path:url(#SVGID_76_);fill:#FFFFFF;}
	.st38{clip-path:url(#SVGID_78_);}
	.st39{clip-path:url(#SVGID_80_);fill:#FFFFFF;}
	.st40{clip-path:url(#SVGID_82_);}
	.st41{clip-path:url(#SVGID_84_);fill:#FFFFFF;}
	.st42{clip-path:url(#SVGID_86_);}
	.st43{clip-path:url(#SVGID_88_);fill:#FFFFFF;}
	.st44{clip-path:url(#SVGID_90_);}
	.st45{clip-path:url(#SVGID_92_);fill:#FFFFFF;}
	.st46{clip-path:url(#SVGID_94_);}
	.st47{clip-path:url(#SVGID_96_);fill:#FFFFFF;}
	.st48{clip-path:url(#SVGID_98_);}
	.st49{clip-path:url(#SVGID_100_);fill:#FFFFFF;}
	.st50{clip-path:url(#SVGID_102_);}
	.st51{clip-path:url(#SVGID_104_);fill:#FFFFFF;}
	.st52{clip-path:url(#SVGID_106_);}
	.st53{clip-path:url(#SVGID_108_);fill:#FFFFFF;}
	.st54{clip-path:url(#SVGID_110_);}
	.st55{clip-path:url(#SVGID_112_);fill:#FFFFFF;}
	.st56{clip-path:url(#SVGID_114_);}
	.st57{clip-path:url(#SVGID_116_);fill:#FFFFFF;}
</style>
<g>
	<defs>
		<path id="SVGID_1_" d="M14.1,25.9h-1.3V11.4h1.3c5.4,0,8.7,2.8,8.7,7.3c0,2.4-1.2,4.8-3,6.1C18.5,25.6,16.9,25.9,14.1,25.9z
			 M11.7,9c-0.6,0-1.2,0.5-1.2,1.2v16.9c0,0.6,0.5,1.2,1.2,1.2h2.4c3.3,0,5.3-0.5,7-1.7c2.5-1.8,4.1-4.8,4.1-8c0-5.8-4.4-9.6-11-9.6
			H11.7z"/>
	</defs>
	<clipPath id="SVGID_2_">
		<use xlink:href="#SVGID_1_"  style="overflow:visible;"/>
	</clipPath>
	<g class="st0">
		<defs>
			<rect id="SVGID_3_" x="-99.6" y="-40.2" width="1400" height="7424"/>
		</defs>
		<clipPath id="SVGID_4_">
			<use xlink:href="#SVGID_3_"  style="overflow:visible;"/>
		</clipPath>
		<rect x="5.5" y="4" class="st1" width="24.7" height="29.3"/>
	</g>
</g>
<g>
	<defs>
		<path id="SVGID_5_" d="M8.8,36.1h6.1c4,0,7.2-0.7,9.9-2.3c1.5-0.8,2.8-1.9,3.9-3.1c0.2-0.2,0.3-0.5,0.3-0.8c0-0.3-0.1-0.6-0.4-0.8
			c-0.5-0.4-1.2-0.4-1.7,0c-1,1.1-2.2,2-3.4,2.7c-2.3,1.3-5.2,2-8.7,2H8.8c-2.2,0-2.7-0.1-3.5-1c-0.7-0.7-0.9-1.4-0.9-3.5V7.9
			c0-2.2,0.2-2.8,0.9-3.6c0.7-0.7,1.3-0.9,3.5-0.9h6.1c4.8,0,7.8,1,10.8,3.4c3.6,3,5.6,7.3,5.6,11.8v10.6c0,2.4,0.2,3.8,1.6,5.2
			l0.1,0.1c1.4,1.3,2.8,1.6,5.2,1.6h11.8c1.5,0,2.5-0.2,3.4-0.6l0.1,0c0.8-0.4,1.4-1,1.9-1.9c0.3-0.6,0.1-1.3-0.4-1.6
			c-0.2-0.1-0.4-0.2-0.6-0.2c-0.4,0-0.8,0.2-1,0.6c-0.2,0.4-0.6,0.8-0.9,0.9c-0.6,0.3-1.4,0.4-2.5,0.4H38.1c-2.2,0-2.8-0.2-3.5-0.9
			c-0.7-0.7-0.9-1.4-0.9-3.6V18.6c0-5.3-2.4-10.2-6.5-13.7c-3.4-2.8-6.9-4-12.3-4H8.8C6.5,1,5.1,1.3,3.7,2.6l0.1,0.1L3.6,2.7
			C2.3,4.1,2,5.5,2,7.9v21.4c0,2.4,0.2,3.7,1.6,5.2C5.2,35.9,6.4,36.1,8.8,36.1z"/>
	</defs>
	<clipPath id="SVGID_6_">
		<use xlink:href="#SVGID_5_"  style="overflow:visible;"/>
	</clipPath>
	<g class="st2">
		<defs>
			<rect id="SVGID_7_" x="-99.6" y="-40.2" width="1400" height="7424"/>
		</defs>
		<clipPath id="SVGID_8_">
			<use xlink:href="#SVGID_7_"  style="overflow:visible;"/>
		</clipPath>
		<rect x="-3" y="-4" class="st3" width="63.5" height="45.1"/>
	</g>
</g>
<g>
	<defs>
		<path id="SVGID_9_" d="M32.5,7.3c0,0,0.1,0,0.1,0h0c0.6,0,1.1-0.5,1.2-1c0.1-1,0.4-1.5,0.9-2c0.7-0.7,1.4-0.9,3.5-0.9h11.5
			c1.2,0,1.9,0.1,2.5,0.4c0.8,0.4,1.3,1.4,1.3,2.4c0,1-0.6,2-1.3,2.4c-0.6,0.3-1.4,0.4-2.6,0.4H41c-0.6,0-1.2,0.5-1.2,1.2v4.6
			c0,0.6,0.5,1.2,1.2,1.2h6.7c1,0,1.7,0.1,2.3,0.3c0.7,0.3,1.2,1.3,1.2,2.1c0,0.8-0.5,1.8-1.2,2.1l0,0c-0.5,0.3-1.2,0.4-2.2,0.4H41
			c-0.6,0-1.2,0.5-1.2,1.2v5.2c0,0.6,0.5,1.2,1.2,1.2h9c3.8,0,6.1,1.8,8.5,3.8c2.7,2.1,5.7,4.6,10.9,4.6c7.8,0,13.2-5,13.2-12.1
			c0-4.4-2.2-7.8-6.2-9.8c-1.8-0.8-3.9-1.5-6.6-2.1c-2.5-0.6-2.5-1-2.5-1.2c0-0.5,0.8-1.1,1.7-1.1c0.8,0,1.7,0.4,2.6,1.1l0.1,0.1
			c2.3,1.8,2.8,2.2,4.4,2.2c2.7,0,5-2.3,5-5.1c0-4.3-5.2-7.9-11.7-7.9c-7.6,0-12.8,4.6-12.8,11.1c0,5.4,2.7,8.3,9.6,10.3
			c4,1.1,4,1.1,4.8,1.5c0.6,0.3,0.7,0.6,0.7,1c0,0.9-0.8,1.6-1.8,1.6c-1.2,0-2.3-0.6-3.9-2c-1.9-1.7-3.2-2.3-5.1-2.3
			c-1.6,0-3.2,0.8-4.1,2.2c-0.2,0.3-0.2,0.6-0.2,0.9c0.1,0.3,0.2,0.6,0.5,0.8c0.2,0.1,0.4,0.2,0.7,0.2c0.4,0,0.8-0.2,1-0.5
			c0.5-0.8,1.3-1.2,2.2-1.2c1,0,1.9,0.3,3.5,1.7c2,1.8,3.6,2.6,5.4,2.6c2.3,0,4.2-1.7,4.2-3.9c0-1.4-0.6-2.4-1.9-3.1l0,0
			c-1-0.5-1.1-0.6-5.3-1.7c-6.6-2-7.9-4.4-7.9-8.1c0-5.1,4.3-8.7,10.5-8.7c5,0,9.3,2.5,9.3,5.5c0,1.5-1.2,2.8-2.6,2.8
			c-0.8,0-0.8,0-3-1.7l-0.1-0.1c-1.3-1.1-2.7-1.6-4-1.6c-2.3,0-4.1,1.6-4.1,3.5c0,2,1.6,2.8,4.3,3.5c2.5,0.6,4.5,1.2,6.2,2
			c3.1,1.5,4.8,4.2,4.8,7.6c0,5.8-4.5,9.8-10.9,9.8c-4.4,0-6.8-2-9.4-4c-2.6-2.1-5.4-4.3-10-4.3h-7.8v-2.8h5.5
			c1.4,0,2.4-0.2,3.3-0.6c1.5-0.7,2.5-2.5,2.5-4.2c0-1.7-1.1-3.5-2.5-4.2L50.9,14c-0.8-0.4-1.9-0.5-3.2-0.5h-5.5v-2.3h7.5
			c1.5,0,2.6-0.2,3.5-0.6l0.1,0c1.6-0.8,2.6-2.6,2.6-4.5c0-1.9-1.1-3.7-2.6-4.5l-0.1,0c-0.9-0.4-2-0.6-3.5-0.6H38.1
			c-2.4,0-3.7,0.2-5.2,1.6l0,0c-0.9,1-1.3,1.9-1.5,3.3c0,0.3,0.1,0.6,0.3,0.9C31.9,7.1,32.1,7.3,32.5,7.3z"/>
	</defs>
	<clipPath id="SVGID_10_">
		<use xlink:href="#SVGID_9_"  style="overflow:visible;"/>
	</clipPath>
	<g class="st4">
		<defs>
			<rect id="SVGID_11_" x="-99.6" y="-40.2" width="1400" height="7424"/>
		</defs>
		<clipPath id="SVGID_12_">
			<use xlink:href="#SVGID_11_"  style="overflow:visible;"/>
		</clipPath>
		<rect x="26.4" y="-4.4" class="st5" width="61.1" height="46"/>
	</g>
</g>
<g>
	<defs>
		<path id="SVGID_13_" d="M83.8,33.5l-0.1,0.1c0.8,1.7,2.7,2.8,4.8,2.8c4.7,0,5.4-4.2,5.4-6.7c0-0.6-0.5-1.2-1.2-1.2
			s-1.2,0.5-1.2,1.2c0,2.1-0.4,4.3-3,4.3c-1.2,0-2.2-0.6-2.7-1.5c-0.3-0.8-0.4-1.5-0.4-2.8V7.4c0-1.4,0.1-2.1,0.5-2.8
			C86.3,3.6,87.3,3,88.5,3c1.1,0,2.1,0.6,2.6,1.5c0,0,0,0,0,0.1c0.4,0.7,0.4,1.1,0.4,2.8v11.2c0,4.8,1.9,9.3,5.4,12.7
			c3.5,3.4,8,5.3,12.8,5.3c3.7,0,7.6-1.3,10.5-3.4c0.3-0.2,0.4-0.5,0.5-0.8c0-0.3,0-0.6-0.2-0.9c-0.2-0.3-0.6-0.5-0.9-0.5
			c-0.3,0-0.5,0.1-0.7,0.2c-2.4,1.8-5.9,2.9-9.1,2.9c-4.2,0-8.1-1.6-11.2-4.6c-3-3-4.7-6.9-4.7-11V7.4c0-1.9-0.1-2.7-0.7-3.8
			c-0.8-1.7-2.7-2.8-4.7-2.8c-2,0-3.9,1.1-4.7,2.8c-0.5,1-0.7,2.1-0.7,3.8v22.4c0,1.6,0.2,2.7,0.6,3.8L83.8,33.5z"/>
	</defs>
	<clipPath id="SVGID_14_">
		<use xlink:href="#SVGID_13_"  style="overflow:visible;"/>
	</clipPath>
	<g class="st6">
		<defs>
			<rect id="SVGID_15_" x="-99.6" y="-40.2" width="1400" height="7424"/>
		</defs>
		<clipPath id="SVGID_16_">
			<use xlink:href="#SVGID_15_"  style="overflow:visible;"/>
		</clipPath>
		<rect x="78" y="-4.3" class="st7" width="47.6" height="45.9"/>
	</g>
</g>
<g>
	<defs>
		<path id="SVGID_17_" d="M95.5,9.2c0.2,0.2,0.5,0.2,0.7,0.2c0.4,0,0.7-0.2,0.9-0.5c0.4-0.5,0.8-1,1.3-1.5c3-3,6.9-4.6,11.1-4.6
			c3,0,6.1,0.9,8.6,2.6c0.2,0.1,0.4,0.2,0.6,0.2c0.4,0,0.8-0.2,1-0.5c0.2-0.3,0.2-0.6,0.2-0.9c-0.1-0.3-0.2-0.6-0.5-0.7
			c-2.8-1.9-6.4-2.9-9.9-2.9c-4.8,0-9.4,1.9-12.8,5.3c-0.5,0.5-1,1.1-1.5,1.7C94.9,8,95,8.8,95.5,9.2z"/>
	</defs>
	<clipPath id="SVGID_18_">
		<use xlink:href="#SVGID_17_"  style="overflow:visible;"/>
	</clipPath>
	<g class="st8">
		<defs>
			<rect id="SVGID_19_" x="-99.6" y="-40.2" width="1400" height="7424"/>
		</defs>
		<clipPath id="SVGID_20_">
			<use xlink:href="#SVGID_19_"  style="overflow:visible;"/>
		</clipPath>
		<rect x="90" y="-4.4" class="st9" width="34.9" height="18.8"/>
	</g>
</g>
<g>
	<defs>
		<path id="SVGID_21_" d="M124.3,20.9c0-0.4,0-0.9-0.1-1.5c-0.2-1.7-0.4-2.5-1.5-3.5c-1.4-1.4-2.8-1.6-5.2-1.6h-6.4
			c-1.5,0-2.5,0.2-3.4,0.6l-0.1,0c-1.6,0.8-2.6,2.6-2.6,4.5c0,1.9,1.1,3.7,2.6,4.5l0.1,0c0.9,0.4,2,0.6,3.4,0.6h2.6
			c0,0.2-0.1,0.3-0.1,0.4c-0.3,0.7-1.5,1.2-3.2,1.2c-4.6,0-8.1-3.2-8.1-7.5c0-3.9,3.3-7.3,7.3-7.3c1.2,0,2.5,0.4,3.7,1.1
			c1.5,0.9,3.2,1.4,4.8,1.4c1.2,0,2.3-0.3,3.3-0.8c1.9-1.1,3-3.2,3-5.9c0-1.5,0.1-2.1,0.5-2.7c0.6-0.8,1.4-1.2,2.3-1.2
			c1.2,0,1.9,0.4,2.9,1.8l12.2,15.3c0.3,0.4,0.8,0.5,1.3,0.4c0.5-0.2,0.8-0.6,0.8-1.1V7.4c0-1.3,0.1-2.1,0.4-2.8
			c0.4-0.8,1.6-1.5,2.6-1.5c1.1,0,2.2,0.6,2.7,1.5c0.3,0.7,0.4,1.5,0.4,2.8V30c0,1.7-0.1,2.2-0.5,2.8c-0.6,0.9-1.6,1.4-2.7,1.4
			c-1.2,0-1.7-0.3-3-2.1l-11.7-15c-0.2-0.3-0.6-0.5-0.9-0.5c-0.1,0-0.3,0-0.4,0.1c-0.5,0.2-0.8,0.6-0.8,1.1v11.9
			c0,1.3-0.1,2.1-0.4,2.8c-0.4,0.9-1.5,1.5-2.6,1.5c-1.1,0-2.2-0.6-2.7-1.5c-0.3-0.7-0.4-1.5-0.4-2.8V21
			C124.3,20.9,124.3,20.9,124.3,20.9z M147.3,36.6c1.8,0,3.6-0.9,4.7-2.5c0.8-1.2,0.9-2.2,0.9-4.1V7.4c0-1.7-0.2-2.8-0.6-3.8l0-0.1
			c-0.8-1.7-2.8-2.8-4.8-2.8c-2,0-3.9,1.2-4.7,2.8l0,0.1c-0.4,1-0.6,2.1-0.6,3.8v8.8L132,3.5c-1.2-1.6-2.5-2.7-4.8-2.7
			c-1.7,0-3.2,0.8-4.2,2.2c-0.9,1.2-1,2.2-1,4.1c0,1.8-0.6,3.1-1.8,3.8c-0.6,0.3-1.3,0.5-2.1,0.5c-1.2,0-2.4-0.4-3.6-1
			c-1.5-0.9-3.3-1.4-4.9-1.4c-5.2,0-9.7,4.4-9.7,9.6c0,5.6,4.5,9.8,10.4,9.8c2.7,0,4.6-0.9,5.3-2.6c0.3-0.6,0.4-1.2,0.4-2.5
			c0-0.3-0.1-0.6-0.3-0.8c-0.2-0.2-0.5-0.3-0.8-0.3h-3.8c-1.1,0-1.9-0.1-2.5-0.4c-0.8-0.4-1.3-1.4-1.3-2.4c0-1,0.6-2,1.3-2.4
			c0.6-0.3,1.4-0.4,2.5-0.4h6.4c2.2,0,2.8,0.2,3.5,1l0,0c0.5,0.5,0.6,0.6,0.8,2.1l0,0c0.1,0.8,0.1,0.9,0.1,1.1c0,0.1,0,0.3,0,0.4
			v8.5c0,1.7,0.2,2.8,0.6,3.8l0,0.1c0.8,1.7,2.8,2.8,4.8,2.8c2,0,3.9-1.2,4.7-2.9c0.5-1,0.6-2.1,0.6-3.8v-8.5l9.6,12.3
			C144,35.7,145.1,36.6,147.3,36.6z"/>
	</defs>
	<clipPath id="SVGID_22_">
		<use xlink:href="#SVGID_21_"  style="overflow:visible;"/>
	</clipPath>
	<g class="st10">
		<defs>
			<rect id="SVGID_23_" x="-99.6" y="-40.2" width="1400" height="7424"/>
		</defs>
		<clipPath id="SVGID_24_">
			<use xlink:href="#SVGID_23_"  style="overflow:visible;"/>
		</clipPath>
		<rect x="95" y="-4.3" class="st11" width="62.9" height="45.9"/>
	</g>
</g>
<g>
	<defs>
		<path id="SVGID_25_" d="M48.3,49.2c1.5,0,2.6-0.2,3.5-0.6l0.1,0c1.6-0.8,2.6-2.6,2.6-4.5c0-1.9-1.1-3.7-2.6-4.5l-0.1,0
			c-0.9-0.4-2-0.6-3.5-0.6H34.8c-0.6,0-1.2,0.5-1.2,1.2c0,0.6,0.5,1.2,1.2,1.2h13.5c1.2,0,1.9,0.1,2.5,0.4c0.8,0.4,1.3,1.4,1.3,2.4
			c0,1-0.6,2-1.3,2.4c-0.6,0.3-1.4,0.4-2.6,0.4h-9.2c-0.6,0-1.2,0.5-1.2,1.2v4.6c0,0.6,0.5,1.2,1.2,1.2h7.2c1,0,1.7,0.1,2.3,0.3
			c0.7,0.3,1.2,1.3,1.2,2.1c0,0.8-0.5,1.8-1.2,2.1l0,0c-0.5,0.3-1.2,0.4-2.2,0.4h-7.2c-0.6,0-1.2,0.5-1.2,1.2V65
			c0,0.6,0.5,1.2,1.2,1.2h11.3c0.6,0,1.2-0.5,1.2-1.2c0-0.6-0.5-1.2-1.2-1.2H40.3V61h6c1.4,0,2.4-0.2,3.3-0.6
			c1.5-0.7,2.5-2.4,2.5-4.2c0-1.7-1.1-3.5-2.5-4.2l-0.1,0c-0.8-0.4-1.9-0.5-3.2-0.5h-6v-2.3L48.3,49.2L48.3,49.2z"/>
	</defs>
	<clipPath id="SVGID_26_">
		<use xlink:href="#SVGID_25_"  style="overflow:visible;"/>
	</clipPath>
	<g class="st12">
		<defs>
			<rect id="SVGID_27_" x="-99.6" y="-40.2" width="1400" height="7424"/>
		</defs>
		<clipPath id="SVGID_28_">
			<use xlink:href="#SVGID_27_"  style="overflow:visible;"/>
		</clipPath>
		<rect x="28.6" y="34" class="st13" width="30.9" height="37.2"/>
	</g>
</g>
<g>
	<defs>
		<path id="SVGID_29_" d="M126.1,38.7c-1.9,0-3.3,1-4.2,2.8c-0.5,1-0.7,2.1-0.7,3.8v15.8c0,0.6,0.5,1.2,1.2,1.2
			c0.6,0,1.2-0.5,1.2-1.2V45.3c0-1.4,0.1-2.1,0.5-2.8c0.6-1.1,1.1-1.5,2.1-1.5c1.3,0,2.7,0.7,3.1,1.5l0,0.1c0.4,0.7,0.4,1.1,0.4,2.8
			v22.4c0,2.1-0.4,4.3-3,4.3c-1.9,0-4.6-0.6-5.8-5.6l-5.7-23.2c-0.7-2.8-2.7-4.6-5.3-4.6c-3.3,0-4.5,2.5-5.2,4.4l-3.2,8.9l-3.4-9.4
			c-1.3-3.3-3.5-3.9-5.1-3.9c-2.5,0-4.5,1.7-5.1,4.4l-5.5,23.4c-0.7,2.8-1.6,5.5-4.6,5.5c-0.7,0-1.3-0.3-2.1-0.9l-9.1-7.5
			c-0.3-0.3-0.8-0.3-1.2-0.2c-0.4,0.2-0.7,0.6-0.7,1.1v3.2c0,1.3-0.1,2.1-0.4,2.8c-0.4,0.9-1.5,1.5-2.6,1.5c-0.2,0-0.5,0-0.7-0.1
			c-0.1,0-0.2,0-0.3,0c-0.5,0-1,0.4-1.1,0.9c-0.1,0.6,0.2,1.3,0.9,1.4c0.4,0.1,0.8,0.1,1.3,0.1c2,0,3.9-1.2,4.7-2.9
			c0.5-1,0.6-2.1,0.6-3.8V67l7.2,5.9c1.2,1,2.4,1.4,3.6,1.4c3.6,0,5.7-2.2,6.9-7.3L90,43.6c0.4-1.6,1.5-2.6,2.9-2.6
			c0.8,0,2,0.3,2.9,2.4l4.5,12.4c0.2,0.5,0.6,0.8,1.1,0.8c0.5,0,0.9-0.3,1.1-0.8l4.3-12c0.9-2.5,1.9-2.8,3-2.8c1.5,0,2.6,1,3,2.8
			l5.7,23.2c1.2,4.9,3.9,7.4,8.1,7.4c4.7,0,5.4-4.2,5.4-6.7V45.3c0-1.9-0.1-2.7-0.7-3.8C130.4,39.7,128,38.7,126.1,38.7z"/>
	</defs>
	<clipPath id="SVGID_30_">
		<use xlink:href="#SVGID_29_"  style="overflow:visible;"/>
	</clipPath>
	<g class="st14">
		<defs>
			<rect id="SVGID_31_" x="-99.6" y="-40.2" width="1400" height="7424"/>
		</defs>
		<clipPath id="SVGID_32_">
			<use xlink:href="#SVGID_31_"  style="overflow:visible;"/>
		</clipPath>
		<rect x="54.2" y="33.7" class="st15" width="82.8" height="45.7"/>
	</g>
</g>
<g>
	<defs>
		<path id="SVGID_33_" d="M70.9,54.7c-0.5,0.3-1.1,0.5-3.2,0.5h-0.9v-5.9h0.8c1.6,0,2.4,0.1,2.8,0.3c1.1,0.5,1.8,1.5,1.8,2.7
			C72.1,53.3,71.6,54.2,70.9,54.7z M71.3,47.5c-0.8-0.4-1.7-0.5-3.8-0.5h-1.9c-0.6,0-1.2,0.5-1.2,1.2v8.2c0,0.6,0.5,1.2,1.2,1.2h2.1
			c2,0,3.3-0.1,4.5-0.9c1.4-1,2.3-2.6,2.3-4.4C74.5,50.2,73.2,48.3,71.3,47.5z"/>
	</defs>
	<clipPath id="SVGID_34_">
		<use xlink:href="#SVGID_33_"  style="overflow:visible;"/>
	</clipPath>
	<g class="st16">
		<defs>
			<rect id="SVGID_35_" x="-99.6" y="-40.2" width="1400" height="7424"/>
		</defs>
		<clipPath id="SVGID_36_">
			<use xlink:href="#SVGID_35_"  style="overflow:visible;"/>
		</clipPath>
		<rect x="59.4" y="42" class="st17" width="20" height="20.6"/>
	</g>
</g>
<g>
	<defs>
		<path id="SVGID_37_" d="M118,71.4c-0.2,0-0.4,0.1-0.6,0.2c-0.5,0.3-1.1,0.4-1.6,0.4c-0.9,0-1.7-0.3-2.2-0.9c0,0,0,0,0-0.1
			c-0.5-0.6-0.6-0.9-1-2.5L110,58c-0.1-0.5-0.6-0.9-1.1-0.9c-0.5,0-1,0.3-1.1,0.8l-3.5,11.3c-0.7,2.3-1.6,2.7-2.8,2.7
			c-1.6,0-2.4-1.5-2.8-2.7L95.2,58c-0.2-0.5-0.6-0.8-1.2-0.8c-0.5,0-1,0.4-1.1,0.9l-2.4,10.3c-0.4,1.6-0.5,2-1.1,2.6l0,0
			c-0.4,0.6-1.3,0.9-2.2,0.9c-0.5,0-1-0.1-1.4-0.4c-0.2-0.1-0.4-0.1-0.6-0.1c-0.4,0-0.8,0.2-1,0.6C84,72.4,83.9,72.7,84,73
			c0.1,0.3,0.3,0.5,0.6,0.7c0.8,0.4,1.7,0.6,2.6,0.6c1.6,0,3.1-0.7,4-1.8c0.9-1,1.1-1.8,1.6-3.5l1.5-6.2l2.2,7.2
			c0.9,2.8,2.7,4.3,5,4.3c3.2,0,4.4-2.5,5-4.3l2.3-7.3l1.5,6.3c0.4,1.7,0.6,2.4,1.5,3.5c0.9,1.1,2.4,1.8,4,1.8c1,0,2-0.3,2.9-0.8
			c0.6-0.3,0.7-1.1,0.4-1.6C118.8,71.6,118.4,71.4,118,71.4z"/>
	</defs>
	<clipPath id="SVGID_38_">
		<use xlink:href="#SVGID_37_"  style="overflow:visible;"/>
	</clipPath>
	<g class="st18">
		<defs>
			<rect id="SVGID_39_" x="-99.6" y="-40.2" width="1400" height="7424"/>
		</defs>
		<clipPath id="SVGID_40_">
			<use xlink:href="#SVGID_39_"  style="overflow:visible;"/>
		</clipPath>
		<rect x="79" y="52.2" class="st19" width="45.2" height="27.2"/>
	</g>
</g>
<g>
	<defs>
		<path id="SVGID_41_" d="M62.8,41.3h4.6c3.9,0,6.1,0.5,8.2,1.9c3,2.1,4.8,5.4,4.8,8.9c0,3.8-2.1,6.8-5.8,8.5
			c-0.4,0.2-0.7,0.5-0.7,0.9c0,0.4,0.1,0.8,0.5,1.1l4.5,3.2c0.2,0.1,0.4,0.2,0.7,0.2c0.4,0,0.7-0.2,1-0.5c0.2-0.3,0.3-0.6,0.2-0.9
			s-0.2-0.6-0.5-0.8l-2.9-2.1c3.5-2.2,5.5-5.6,5.5-9.7c0-4.3-2.2-8.4-5.8-10.9c-2.5-1.7-5.1-2.3-9.5-2.3h-4.6
			c-2.3,0-3.7,0.2-5.2,1.6l-0.1,0.1c-1.3,1.4-1.6,2.8-1.6,5.2V69c0,1-0.6,2-1.3,2.4c-0.6,0.3-1.4,0.4-2.5,0.4H36.3
			c-2.2,0-2.8-0.2-3.5-0.9c-0.7-0.7-0.9-1.4-0.9-3.6V48c0-4.8-0.5-9-7.2-9H6.8c-1.5,0-2.6,0.2-3.5,0.6l0,0c-1.6,0.8-2.6,2.6-2.6,4.5
			c0,1.9,1.1,3.7,2.6,4.5l0.1,0c0.9,0.4,2,0.6,3.4,0.6h3.5v18.5c0,1.7,0.2,2.8,0.6,3.8l0.1,0.1c0.8,1.6,2.8,2.8,4.8,2.8
			c1.9,0,3.9-1.2,4.8-2.8l0-0.1c0.4-0.9,0.6-2.2,0.6-3.7V49.2H26c0.6,0,1.2-0.5,1.2-1.2c0-0.6-0.5-1.2-1.2-1.2h-6
			c-0.6,0-1.2,0.5-1.2,1.2v19.7c0,1.1-0.2,2.2-0.4,2.8c-0.4,0.8-1.6,1.5-2.7,1.5c-1,0-2.2-0.7-2.7-1.5c-0.3-0.7-0.4-1.5-0.4-2.8V48
			c0-0.6-0.5-1.2-1.2-1.2H6.8c-1.1,0-1.9-0.1-2.5-0.4C3.5,46.1,3,45.1,3,44.1c0-1,0.6-2,1.3-2.4c0.6-0.3,1.4-0.4,2.5-0.4h17.8
			c3.6,0,4.8,1,4.8,6.7v19.2c0,2.4,0.2,3.8,1.6,5.2l0.1,0.1c1.4,1.3,2.8,1.6,5.2,1.6h15.9c1.5,0,2.5-0.2,3.5-0.6l0.1,0
			c1.6-0.8,2.6-2.6,2.6-4.5V45.8c0-2.2,0.2-2.8,0.9-3.5C60,41.6,60.6,41.3,62.8,41.3z"/>
	</defs>
	<clipPath id="SVGID_42_">
		<use xlink:href="#SVGID_41_"  style="overflow:visible;"/>
	</clipPath>
	<g class="st20">
		<defs>
			<rect id="SVGID_43_" x="-99.6" y="-40.2" width="1400" height="7424"/>
		</defs>
		<clipPath id="SVGID_44_">
			<use xlink:href="#SVGID_43_"  style="overflow:visible;"/>
		</clipPath>
		<rect x="-4.4" y="34" class="st21" width="92.1" height="45.4"/>
	</g>
</g>
<g>
	<defs>
		<path id="SVGID_45_" d="M176,43.1c0.6-1.3,1.6-1.9,2.9-1.9c1.3,0,2.4,0.7,2.9,1.9l7.9,17.2c0.2,0.4,0.6,0.7,1.1,0.7
			c0.2,0,0.3,0,0.5-0.1c0.6-0.3,0.9-1,0.6-1.6L184,42.2c-0.9-2.1-2.8-3.3-5.1-3.3c-2.2,0-4.1,1.2-5.1,3.3l-10.4,23.4
			c-1.5,3.4-3.1,6.6-4.6,6.6c-1.2,0-1.7-0.3-3-2.1l-11.7-15c-0.3-0.4-0.8-0.6-1.3-0.4c-0.5,0.2-0.8,0.6-0.8,1.1v11.9
			c0,1.3-0.1,2.1-0.4,2.8c-0.4,0.9-1.5,1.5-2.6,1.5c-1.1,0-2.2-0.6-2.7-1.5c-0.3-0.7-0.4-1.5-0.4-2.8V45c0-1.5,0.1-2.1,0.5-2.7
			c0.6-0.8,1.4-1.2,2.3-1.2c1.1,0,1.8,0.4,2.9,1.8l12.2,15.3c0.3,0.4,0.8,0.5,1.3,0.4c0.5-0.2,0.8-0.6,0.8-1.1V45.3
			c0-1.3,0.1-2.1,0.4-2.8c0.4-0.8,1.6-1.5,2.6-1.5c1.1,0,2.2,0.6,2.7,1.5c0.3,0.7,0.4,1.5,0.4,2.8v15.3c0,0.6,0.5,1.2,1.2,1.2
			c0.6,0,1.2-0.5,1.2-1.2V45.3c0-1.7-0.2-2.8-0.6-3.8l0-0.1c-0.8-1.7-2.8-2.8-4.8-2.8c-2,0-3.9,1.2-4.7,2.8l0,0
			c-0.4,1-0.6,2.1-0.6,3.8v8.8l-10.1-12.7c-1.4-1.7-2.6-2.7-4.7-2.7c-1.7,0-3.2,0.8-4.2,2.2c-0.9,1.2-1,2.2-1,4.1v22.8
			c0,1.7,0.2,2.8,0.6,3.8l0,0.1c0.8,1.7,2.8,2.8,4.8,2.8c2,0,3.9-1.2,4.7-2.9c0.5-1,0.6-2.1,0.6-3.8v-8.5l9.6,12.3
			c1.6,2.1,2.7,3,4.9,3c3,0,4.7-3.3,6.8-8L176,43.1z"/>
	</defs>
	<clipPath id="SVGID_46_">
		<use xlink:href="#SVGID_45_"  style="overflow:visible;"/>
	</clipPath>
	<g class="st22">
		<defs>
			<rect id="SVGID_47_" x="-99.6" y="-40.2" width="1400" height="7424"/>
		</defs>
		<clipPath id="SVGID_48_">
			<use xlink:href="#SVGID_47_"  style="overflow:visible;"/>
		</clipPath>
		<rect x="128.5" y="33.7" class="st23" width="68.5" height="45.9"/>
	</g>
</g>
<g>
	<defs>
		<path id="SVGID_49_" d="M214.9,64.5L214.9,64.5c-1-0.4-2.1-0.6-3.6-0.6h-6.8V45.3c0-1.7-0.2-2.8-0.6-3.8l0-0.1
			c-0.8-1.7-2.8-2.8-4.8-2.8c-2,0-3.9,1.1-4.7,2.8l0,0.1c-0.4,1-0.6,2.1-0.6,3.8v21.1c0,3.7-1.2,5.6-3.5,5.6c-1.5,0-2.3-0.7-3.3-2.9
			l-0.9-2c-0.2-0.4-0.6-0.7-1.1-0.7h-11.9c-0.5,0-0.9,0.3-1.1,0.7l-0.8,1.9c-1,2.4-1.7,3-3.2,3c-0.6,0-1.2-0.2-1.8-0.5
			c-0.2-0.1-0.4-0.2-0.6-0.2c-0.4,0-0.8,0.2-1,0.5c-0.2,0.3-0.2,0.6-0.2,0.9c0.1,0.3,0.2,0.6,0.5,0.7c0.9,0.6,2,0.9,3,0.9
			c3.2,0,4.4-2.1,5.4-4.4l0.5-1.2h10.3l0.6,1.3c1,2.1,2.3,4.3,5.5,4.3c2.2,0,5.9-1,5.9-7.9V45.3c0-1.3,0.1-2.1,0.4-2.8
			c0.4-0.8,1.6-1.5,2.6-1.5c1.1,0,2.2,0.6,2.7,1.5c0.3,0.7,0.4,1.5,0.4,2.8V65c0,0.6,0.5,1.2,1.2,1.2h8c1.2,0,1.9,0.1,2.6,0.4
			c0.8,0.4,1.3,1.4,1.3,2.4c0,1-0.6,2-1.3,2.4c-0.6,0.3-1.4,0.4-2.6,0.4h-10.8c-1.2,0-2-0.1-2.5-0.3c-0.1,0-0.3-0.1-0.4-0.1
			c-0.5,0-0.9,0.3-1.1,0.8c-0.2,0.6,0.1,1.3,0.7,1.5c0.8,0.3,1.8,0.4,3.3,0.4h10.8c1.5,0,2.6-0.2,3.5-0.6l0.1,0
			c1.6-0.8,2.6-2.6,2.6-4.5C217.6,67.1,216.5,65.3,214.9,64.5z"/>
	</defs>
	<clipPath id="SVGID_50_">
		<use xlink:href="#SVGID_49_"  style="overflow:visible;"/>
	</clipPath>
	<g class="st24">
		<defs>
			<rect id="SVGID_51_" x="-99.6" y="-40.2" width="1400" height="7424"/>
		</defs>
		<clipPath id="SVGID_52_">
			<use xlink:href="#SVGID_51_"  style="overflow:visible;"/>
		</clipPath>
		<rect x="159.4" y="33.7" class="st25" width="63.2" height="45.6"/>
	</g>
</g>
<g>
	<defs>
		<path id="SVGID_53_" d="M180.1,58.9h-2.2l1.1-2.6L180.1,58.9z M179,52c-0.5,0-0.9,0.3-1.1,0.7l-2.8,6.8c-0.1,0.4-0.1,0.8,0.1,1.1
			c0.2,0.3,0.6,0.5,1,0.5h5.7c0.4,0,0.8-0.2,1-0.5c0.2-0.3,0.3-0.7,0.1-1.1l-2.9-6.8C179.9,52.3,179.5,52,179,52z"/>
	</defs>
	<clipPath id="SVGID_54_">
		<use xlink:href="#SVGID_53_"  style="overflow:visible;"/>
	</clipPath>
	<g class="st26">
		<defs>
			<rect id="SVGID_55_" x="-99.6" y="-40.2" width="1400" height="7424"/>
		</defs>
		<clipPath id="SVGID_56_">
			<use xlink:href="#SVGID_55_"  style="overflow:visible;"/>
		</clipPath>
		<rect x="170" y="47" class="st27" width="18" height="19.2"/>
	</g>
</g>
<g>
	<defs>
		<path id="SVGID_57_" d="M4,106.5h98.2V91.8H4V106.5z M104.1,108.4H2.1V89.9h102L104.1,108.4L104.1,108.4z"/>
	</defs>
	<clipPath id="SVGID_58_">
		<use xlink:href="#SVGID_57_"  style="overflow:visible;"/>
	</clipPath>
	<g class="st28">
		<defs>
			<rect id="SVGID_59_" x="-99.6" y="-40.2" width="1400" height="7424"/>
		</defs>
		<clipPath id="SVGID_60_">
			<use xlink:href="#SVGID_59_"  style="overflow:visible;"/>
		</clipPath>
		<rect x="-2.9" y="84.9" class="st29" width="112" height="28.5"/>
	</g>
</g>
<g>
	<defs>
		<path id="SVGID_61_" d="M12.3,98.9c0-0.8-0.1-1.4-0.4-1.9c-0.3-0.4-0.7-0.6-1.3-0.6c-0.5,0-1,0.2-1.3,0.6c-0.3,0.4-0.4,1-0.4,1.9
			v0.4c0,0.8,0.1,1.4,0.4,1.9c0.3,0.4,0.7,0.7,1.3,0.7c0.5,0,1-0.2,1.2-0.6c0.3-0.4,0.4-1,0.4-1.9L12.3,98.9L12.3,98.9z M13.9,99.3
			c0,0.8-0.1,1.4-0.4,2c-0.3,0.6-0.7,1-1.2,1.3c-0.5,0.3-1.1,0.5-1.7,0.5c-0.6,0-1.2-0.2-1.7-0.5c-0.5-0.3-0.9-0.8-1.2-1.3
			c-0.3-0.6-0.4-1.2-0.4-2V99c0-0.8,0.1-1.4,0.4-2c0.3-0.6,0.7-1,1.2-1.3c0.5-0.3,1.1-0.5,1.7-0.5c0.7,0,1.2,0.2,1.7,0.5
			c0.5,0.3,0.9,0.8,1.2,1.3c0.3,0.6,0.4,1.3,0.4,2L13.9,99.3z"/>
	</defs>
	<clipPath id="SVGID_62_">
		<use xlink:href="#SVGID_61_"  style="overflow:visible;"/>
	</clipPath>
	<g class="st30">
		<defs>
			<rect id="SVGID_63_" x="-99.6" y="-40.2" width="1400" height="7424"/>
		</defs>
		<clipPath id="SVGID_64_">
			<use xlink:href="#SVGID_63_"  style="overflow:visible;"/>
		</clipPath>
		<rect x="2.3" y="90.1" class="st31" width="16.7" height="18"/>
	</g>
</g>
<g>
	<defs>
		<path id="SVGID_65_" d="M16.9,99h1.4c0.4,0,0.8-0.1,1-0.3c0.2-0.2,0.3-0.5,0.3-0.9c0-0.4-0.1-0.7-0.3-0.9
			c-0.2-0.2-0.5-0.4-0.9-0.4h-1.5L16.9,99L16.9,99z M16.9,100.3v2.8h-1.6v-7.8h3c0.6,0,1.1,0.1,1.5,0.3s0.8,0.5,1,0.9
			c0.2,0.4,0.4,0.8,0.4,1.4c0,0.8-0.3,1.4-0.8,1.8c-0.5,0.4-1.3,0.7-2.2,0.7L16.9,100.3L16.9,100.3z"/>
	</defs>
	<clipPath id="SVGID_66_">
		<use xlink:href="#SVGID_65_"  style="overflow:visible;"/>
	</clipPath>
	<g class="st32">
		<defs>
			<rect id="SVGID_67_" x="-99.6" y="-40.2" width="1400" height="7424"/>
		</defs>
		<clipPath id="SVGID_68_">
			<use xlink:href="#SVGID_67_"  style="overflow:visible;"/>
		</clipPath>
		<rect x="10.3" y="90.2" class="st33" width="16" height="17.8"/>
	</g>
</g>
<g>
	<defs>
		<polygon id="SVGID_69_" points="27.9,96.5 25.5,96.5 25.5,103 23.9,103 23.9,96.5 21.5,96.5 21.5,95.2 27.9,95.2 27.9,96.5 		"/>
	</defs>
	<clipPath id="SVGID_70_">
		<use xlink:href="#SVGID_69_"  style="overflow:visible;"/>
	</clipPath>
	<g class="st34">
		<defs>
			<rect id="SVGID_71_" x="-99.6" y="-40.2" width="1400" height="7424"/>
		</defs>
		<clipPath id="SVGID_72_">
			<use xlink:href="#SVGID_71_"  style="overflow:visible;"/>
		</clipPath>
		<rect x="16.5" y="90.2" class="st35" width="16.4" height="17.8"/>
	</g>
</g>
<g>
	<defs>
		<rect id="SVGID_73_" x="28.9" y="95.2" width="1.6" height="7.8"/>
	</defs>
	<clipPath id="SVGID_74_">
		<use xlink:href="#SVGID_73_"  style="overflow:visible;"/>
	</clipPath>
	<g class="st36">
		<defs>
			<rect id="SVGID_75_" x="-99.6" y="-40.2" width="1400" height="7424"/>
		</defs>
		<clipPath id="SVGID_76_">
			<use xlink:href="#SVGID_75_"  style="overflow:visible;"/>
		</clipPath>
		<rect x="23.9" y="90.2" class="st37" width="11.6" height="17.8"/>
	</g>
</g>
<g>
	<defs>
		<polygon id="SVGID_77_" points="34.7,95.2 36.8,100.9 38.8,95.2 40.9,95.2 40.9,103 39.2,103 39.2,100.9 39.4,97.2 37.3,103 
			36.2,103 34.1,97.2 34.3,100.9 34.3,103 32.6,103 32.6,95.2 34.7,95.2 		"/>
	</defs>
	<clipPath id="SVGID_78_">
		<use xlink:href="#SVGID_77_"  style="overflow:visible;"/>
	</clipPath>
	<g class="st38">
		<defs>
			<rect id="SVGID_79_" x="-99.6" y="-40.2" width="1400" height="7424"/>
		</defs>
		<clipPath id="SVGID_80_">
			<use xlink:href="#SVGID_79_"  style="overflow:visible;"/>
		</clipPath>
		<rect x="27.6" y="90.2" class="st39" width="18.2" height="17.8"/>
	</g>
</g>
<g>
	<defs>
		<rect id="SVGID_81_" x="43" y="95.2" width="1.6" height="7.8"/>
	</defs>
	<clipPath id="SVGID_82_">
		<use xlink:href="#SVGID_81_"  style="overflow:visible;"/>
	</clipPath>
	<g class="st40">
		<defs>
			<rect id="SVGID_83_" x="-99.6" y="-40.2" width="1400" height="7424"/>
		</defs>
		<clipPath id="SVGID_84_">
			<use xlink:href="#SVGID_83_"  style="overflow:visible;"/>
		</clipPath>
		<rect x="38" y="90.2" class="st41" width="11.6" height="17.8"/>
	</g>
</g>
<g>
	<defs>
		<path id="SVGID_85_" d="M50.4,101c0-0.3-0.1-0.5-0.3-0.7c-0.2-0.2-0.6-0.3-1.2-0.5c-0.6-0.2-1-0.4-1.3-0.5
			c-0.9-0.5-1.3-1.1-1.3-1.9c0-0.4,0.1-0.8,0.4-1.1c0.2-0.3,0.6-0.6,1-0.8c0.4-0.2,0.9-0.3,1.5-0.3c0.6,0,1.1,0.1,1.5,0.3
			c0.4,0.2,0.8,0.5,1,0.9c0.2,0.4,0.4,0.8,0.4,1.3h-1.6c0-0.4-0.1-0.6-0.3-0.8c-0.2-0.2-0.5-0.3-0.9-0.3c-0.4,0-0.7,0.1-0.9,0.2
			c-0.2,0.2-0.3,0.4-0.3,0.7c0,0.3,0.1,0.5,0.4,0.6c0.3,0.2,0.6,0.3,1.1,0.5c0.9,0.3,1.6,0.6,2,1c0.4,0.4,0.6,0.9,0.6,1.5
			c0,0.7-0.3,1.2-0.8,1.6c-0.5,0.4-1.2,0.6-2.1,0.6c-0.6,0-1.1-0.1-1.6-0.3c-0.5-0.2-0.9-0.5-1.1-0.9c-0.3-0.4-0.4-0.8-0.4-1.3h1.6
			c0,0.9,0.5,1.3,1.5,1.3c0.4,0,0.7-0.1,0.9-0.2C50.3,101.5,50.4,101.3,50.4,101z"/>
	</defs>
	<clipPath id="SVGID_86_">
		<use xlink:href="#SVGID_85_"  style="overflow:visible;"/>
	</clipPath>
	<g class="st42">
		<defs>
			<rect id="SVGID_87_" x="-99.6" y="-40.2" width="1400" height="7424"/>
		</defs>
		<clipPath id="SVGID_88_">
			<use xlink:href="#SVGID_87_"  style="overflow:visible;"/>
		</clipPath>
		<rect x="41" y="90.1" class="st43" width="16" height="18"/>
	</g>
</g>
<g>
	<defs>
		<polygon id="SVGID_89_" points="58.8,96.5 56.4,96.5 56.4,103 54.8,103 54.8,96.5 52.4,96.5 52.4,95.2 58.8,95.2 58.8,96.5 		"/>
	</defs>
	<clipPath id="SVGID_90_">
		<use xlink:href="#SVGID_89_"  style="overflow:visible;"/>
	</clipPath>
	<g class="st44">
		<defs>
			<rect id="SVGID_91_" x="-99.6" y="-40.2" width="1400" height="7424"/>
		</defs>
		<clipPath id="SVGID_92_">
			<use xlink:href="#SVGID_91_"  style="overflow:visible;"/>
		</clipPath>
		<rect x="47.4" y="90.2" class="st45" width="16.4" height="17.8"/>
	</g>
</g>
<g>
	<defs>
		<path id="SVGID_93_" d="M63.4,101c0-0.3-0.1-0.5-0.3-0.7c-0.2-0.2-0.6-0.3-1.2-0.5c-0.6-0.2-1-0.4-1.3-0.5
			c-0.9-0.5-1.3-1.1-1.3-1.9c0-0.4,0.1-0.8,0.4-1.1s0.6-0.6,1-0.8c0.4-0.2,0.9-0.3,1.5-0.3c0.6,0,1.1,0.1,1.5,0.3
			c0.4,0.2,0.8,0.5,1,0.9c0.2,0.4,0.4,0.8,0.4,1.3h-1.6c0-0.4-0.1-0.6-0.3-0.8c-0.2-0.2-0.5-0.3-0.9-0.3c-0.4,0-0.7,0.1-0.9,0.2
			c-0.2,0.2-0.3,0.4-0.3,0.7c0,0.3,0.1,0.5,0.4,0.6c0.3,0.2,0.6,0.3,1.1,0.5c0.9,0.3,1.6,0.6,2,1c0.4,0.4,0.6,0.9,0.6,1.5
			c0,0.7-0.3,1.2-0.8,1.6c-0.5,0.4-1.2,0.6-2.1,0.6c-0.6,0-1.1-0.1-1.6-0.3c-0.5-0.2-0.9-0.5-1.1-0.9c-0.3-0.4-0.4-0.8-0.4-1.3h1.6
			c0,0.9,0.5,1.3,1.5,1.3c0.4,0,0.7-0.1,0.9-0.2C63.3,101.5,63.4,101.3,63.4,101z"/>
	</defs>
	<clipPath id="SVGID_94_">
		<use xlink:href="#SVGID_93_"  style="overflow:visible;"/>
	</clipPath>
	<g class="st46">
		<defs>
			<rect id="SVGID_95_" x="-99.6" y="-40.2" width="1400" height="7424"/>
		</defs>
		<clipPath id="SVGID_96_">
			<use xlink:href="#SVGID_95_"  style="overflow:visible;"/>
		</clipPath>
		<rect x="54.1" y="90.1" class="st47" width="16" height="18"/>
	</g>
</g>
<g>
	<defs>
		<polygon id="SVGID_97_" points="73.6,99.8 70.5,99.8 70.5,103 68.9,103 68.9,95.2 74,95.2 74,96.5 70.5,96.5 70.5,98.5 73.6,98.5 
			73.6,99.8 		"/>
	</defs>
	<clipPath id="SVGID_98_">
		<use xlink:href="#SVGID_97_"  style="overflow:visible;"/>
	</clipPath>
	<g class="st48">
		<defs>
			<rect id="SVGID_99_" x="-99.6" y="-40.2" width="1400" height="7424"/>
		</defs>
		<clipPath id="SVGID_100_">
			<use xlink:href="#SVGID_99_"  style="overflow:visible;"/>
		</clipPath>
		<rect x="63.9" y="90.2" class="st49" width="15.1" height="17.8"/>
	</g>
</g>
<g>
	<defs>
		<rect id="SVGID_101_" x="75.2" y="95.2" width="1.6" height="7.8"/>
	</defs>
	<clipPath id="SVGID_102_">
		<use xlink:href="#SVGID_101_"  style="overflow:visible;"/>
	</clipPath>
	<g class="st50">
		<defs>
			<rect id="SVGID_103_" x="-99.6" y="-40.2" width="1400" height="7424"/>
		</defs>
		<clipPath id="SVGID_104_">
			<use xlink:href="#SVGID_103_"  style="overflow:visible;"/>
		</clipPath>
		<rect x="70.2" y="90.2" class="st51" width="11.6" height="17.8"/>
	</g>
</g>
<g>
	<defs>
		<path id="SVGID_105_" d="M80.4,98.9h1.3c0.4,0,0.7-0.1,0.9-0.3c0.2-0.2,0.3-0.5,0.3-0.9c0-0.4-0.1-0.7-0.3-0.9
			c-0.2-0.2-0.5-0.3-1-0.3h-1.3L80.4,98.9L80.4,98.9z M81.7,100.2h-1.3v2.9h-1.6v-7.8h2.9c0.9,0,1.6,0.2,2.1,0.6
			c0.5,0.4,0.8,1,0.8,1.7c0,0.5-0.1,1-0.3,1.3c-0.2,0.4-0.6,0.6-1.1,0.9l1.7,3.2v0.1h-1.7L81.7,100.2z"/>
	</defs>
	<clipPath id="SVGID_106_">
		<use xlink:href="#SVGID_105_"  style="overflow:visible;"/>
	</clipPath>
	<g class="st52">
		<defs>
			<rect id="SVGID_107_" x="-99.6" y="-40.2" width="1400" height="7424"/>
		</defs>
		<clipPath id="SVGID_108_">
			<use xlink:href="#SVGID_107_"  style="overflow:visible;"/>
		</clipPath>
		<rect x="73.8" y="90.2" class="st53" width="16.1" height="17.8"/>
	</g>
</g>
<g>
	<defs>
		<path id="SVGID_109_" d="M90.1,101c0-0.3-0.1-0.5-0.3-0.7c-0.2-0.2-0.6-0.3-1.2-0.5c-0.6-0.2-1-0.4-1.3-0.5
			c-0.9-0.5-1.3-1.1-1.3-1.9c0-0.4,0.1-0.8,0.4-1.1s0.6-0.6,1-0.8c0.4-0.2,0.9-0.3,1.5-0.3c0.6,0,1.1,0.1,1.5,0.3
			c0.4,0.2,0.8,0.5,1,0.9c0.2,0.4,0.4,0.8,0.4,1.3h-1.6c0-0.4-0.1-0.6-0.3-0.8c-0.2-0.2-0.5-0.3-0.9-0.3c-0.4,0-0.7,0.1-0.9,0.2
			c-0.2,0.2-0.3,0.4-0.3,0.7c0,0.3,0.1,0.5,0.4,0.6c0.3,0.2,0.6,0.3,1.1,0.5c0.9,0.3,1.6,0.6,2,1c0.4,0.4,0.6,0.9,0.6,1.5
			c0,0.7-0.3,1.2-0.8,1.6c-0.5,0.4-1.2,0.6-2.1,0.6c-0.6,0-1.1-0.1-1.6-0.3c-0.5-0.2-0.9-0.5-1.1-0.9c-0.3-0.4-0.4-0.8-0.4-1.3h1.6
			c0,0.9,0.5,1.3,1.5,1.3c0.4,0,0.7-0.1,0.9-0.2C89.9,101.5,90.1,101.3,90.1,101z"/>
	</defs>
	<clipPath id="SVGID_110_">
		<use xlink:href="#SVGID_109_"  style="overflow:visible;"/>
	</clipPath>
	<g class="st54">
		<defs>
			<rect id="SVGID_111_" x="-99.6" y="-40.2" width="1400" height="7424"/>
		</defs>
		<clipPath id="SVGID_112_">
			<use xlink:href="#SVGID_111_"  style="overflow:visible;"/>
		</clipPath>
		<rect x="80.7" y="90.1" class="st55" width="16" height="18"/>
	</g>
</g>
<g>
	<defs>
		<polygon id="SVGID_113_" points="98.4,96.5 96,96.5 96,103 94.4,103 94.4,96.5 92.1,96.5 92.1,95.2 98.4,95.2 98.4,96.5 		"/>
	</defs>
	<clipPath id="SVGID_114_">
		<use xlink:href="#SVGID_113_"  style="overflow:visible;"/>
	</clipPath>
	<g class="st56">
		<defs>
			<rect id="SVGID_115_" x="-99.6" y="-40.2" width="1400" height="7424"/>
		</defs>
		<clipPath id="SVGID_116_">
			<use xlink:href="#SVGID_115_"  style="overflow:visible;"/>
		</clipPath>
		<rect x="87.1" y="90.2" class="st57" width="16.4" height="17.8"/>
	</g>
</g>
</svg>
