
<svg width="99" height="99" viewBox="0 0 99 99" fill="none" xmlns="http://www.w3.org/2000/svg">
<g filter="url(#filter0_d)">
<circle cx="49.5" cy="42.5" r="34.5" fill="#FBFBFB"/>
</g>
<path fill-rule="evenodd" clip-rule="evenodd" d="M35.3125 36.7609C35.8163 36.2573 36.6329 36.2575 37.1364 36.7612L49.1215 48.7509L61.1065 36.7612C61.6101 36.2575 62.4267 36.2573 62.9305 36.7609C63.4342 37.2644 63.4344 38.0811 62.9308 38.5848L50.0336 51.487C49.7917 51.7289 49.4636 51.8649 49.1215 51.8649C48.7793 51.8649 48.4512 51.7289 48.2093 51.487L35.3121 38.5848C34.8086 38.0811 34.8087 37.2644 35.3125 36.7609Z" fill="#4787D3"/>
<path fill-rule="evenodd" clip-rule="evenodd" d="M34.8569 36.3046C35.6126 35.5493 36.8375 35.5495 37.5928 36.3052L49.1218 47.8386L60.6508 36.3052C61.4061 35.5495 62.6311 35.5493 63.3867 36.3046C64.1423 37.06 64.1426 38.2849 63.3872 39.0406L50.49 51.9427C50.1272 52.3057 49.635 52.5096 49.1218 52.5096C48.6086 52.5096 48.1164 52.3057 47.7536 51.9427L34.8564 39.0406C34.101 38.2849 34.1013 37.06 34.8569 36.3046ZM36.6807 37.217C36.4289 36.9651 36.0206 36.965 35.7687 37.2168C35.5168 37.4686 35.5168 37.8769 35.7685 38.1288L48.6657 51.0309C48.7867 51.1519 48.9507 51.2199 49.1218 51.2199C49.2929 51.2199 49.4569 51.1519 49.5779 51.0309L62.4751 38.1288C62.7269 37.8769 62.7268 37.4686 62.4749 37.2168C62.223 36.965 61.8147 36.9651 61.5629 37.217L49.5779 49.2066C49.4569 49.3276 49.2929 49.3956 49.1218 49.3956C48.9507 49.3956 48.7867 49.3276 48.6657 49.2066L36.6807 37.217Z" fill="#4787D3"/>
<defs>
<filter id="filter0_d" x="0" y="0" width="99" height="99" filterUnits="userSpaceOnUse" color-interpolation-filters="sRGB">
<feFlood flood-opacity="0" result="BackgroundImageFix"/>
<feColorMatrix in="SourceAlpha" type="matrix" values="0 0 0 0 0 0 0 0 0 0 0 0 0 0 0 0 0 0 127 0"/>
<feOffset dy="7"/>
<feGaussianBlur stdDeviation="7.5"/>
<feColorMatrix type="matrix" values="0 0 0 0 0.212353 0 0 0 0 0.462626 0 0 0 0 0.759825 0 0 0 0.4 0"/>
<feBlend mode="normal" in2="BackgroundImageFix" result="effect1_dropShadow"/>
<feBlend mode="normal" in="SourceGraphic" in2="effect1_dropShadow" result="shape"/>
</filter>
</defs>
</svg>
