<svg width="93" height="91" viewBox="0 0 93 91" fill="none" xmlns="http://www.w3.org/2000/svg">
<path fill-rule="evenodd" clip-rule="evenodd" d="M46.3634 39.2978L68.8008 17.4567C70.4562 15.8452 73.1403 15.8452 74.7958 17.4567C76.4513 19.0682 76.4513 21.6809 74.7958 23.2924L52.3585 45.1335L74.7958 66.9746C76.4513 68.5861 76.4513 71.1989 74.7958 72.8104C73.1403 74.4219 70.4562 74.4219 68.8008 72.8104L46.3634 50.9693L23.9261 72.8104C22.2706 74.4219 19.5866 74.4219 17.9311 72.8104C16.2756 71.1989 16.2756 68.5861 17.9311 66.9746L40.3684 45.1335L17.9311 23.2924C16.2756 21.6809 16.2756 19.0682 17.9311 17.4567C19.5866 15.8452 22.2706 15.8452 23.9261 17.4567L46.3634 39.2978Z" fill="#FDE9EE"/>
<mask id="mask0" mask-type="alpha" maskUnits="userSpaceOnUse" x="9" y="9" width="75" height="73">
<path fill-rule="evenodd" clip-rule="evenodd" d="M46.3675 37.8426L74.4153 10.5401C76.4847 8.52568 79.8399 8.52568 81.9094 10.5401C83.9788 12.5546 83.9788 15.8207 81.9094 17.8351L53.8616 45.1376L81.9094 72.4401C83.9788 74.4546 83.9788 77.7207 81.9094 79.7351C79.8399 81.7496 76.4847 81.7496 74.4153 79.7351L46.3675 52.4326L18.3196 79.7351C16.2502 81.7496 12.895 81.7496 10.8255 79.7351C8.75608 77.7207 8.75608 74.4546 10.8255 72.4401L38.8733 45.1376L10.8255 17.8351C8.75608 15.8207 8.75608 12.5546 10.8255 10.5401C12.895 8.52568 16.2502 8.52568 18.3196 10.5401L46.3675 37.8426Z" fill="white"/>
</mask>
<g mask="url(#mask0)">
</g>
</svg>
