<svg width="25" height="24" viewBox="0 0 25 24" fill="none" xmlns="http://www.w3.org/2000/svg">
<path fill-rule="evenodd" clip-rule="evenodd" d="M12.1158 10.2695L17.9791 4.56193C18.4118 4.14081 19.1132 4.14081 19.5458 4.56193C19.9784 4.98305 19.9784 5.66582 19.5458 6.08694L13.6824 11.7945L19.5458 17.5021C19.9784 17.9232 19.9784 18.6059 19.5458 19.0271C19.1132 19.4482 18.4118 19.4482 17.9791 19.0271L12.1158 13.3195L6.25243 19.0271C5.81981 19.4482 5.1184 19.4482 4.68579 19.0271C4.25317 18.6059 4.25317 17.9232 4.68579 17.5021L10.5491 11.7945L4.68579 6.08694C4.25317 5.66582 4.25317 4.98305 4.68579 4.56193C5.1184 4.14081 5.81981 4.14081 6.25243 4.56193L12.1158 10.2695Z" fill="white"/>
<mask id="mask0" mask-type="alpha" maskUnits="userSpaceOnUse" x="2" y="2" width="20" height="20">
<path fill-rule="evenodd" clip-rule="evenodd" d="M12.1173 9.88893L19.4468 2.75419C19.9876 2.22777 20.8644 2.22777 21.4052 2.75419C21.946 3.28061 21.946 4.13411 21.4052 4.66053L14.0757 11.7953L21.4052 18.93C21.946 19.4564 21.946 20.3099 21.4052 20.8364C20.8644 21.3628 19.9876 21.3628 19.4468 20.8364L12.1173 13.7016L4.7878 20.8364C4.24701 21.3628 3.37021 21.3628 2.82942 20.8364C2.28863 20.3099 2.28863 19.4564 2.82942 18.93L10.1589 11.7953L2.82942 4.66053C2.28863 4.13411 2.28863 3.28061 2.82942 2.75419C3.37021 2.22777 4.24701 2.22777 4.7878 2.75419L12.1173 9.88893Z" fill="white"/>
</mask>
<g mask="url(#mask0)">
</g>
</svg>
