<?xml version="1.0" encoding="utf-8"?>
<!-- Generator: Adobe Illustrator 19.0.0, SVG Export Plug-In . SVG Version: 6.00 Build 0)  -->
<svg version="1.1" id="Layer_1" xmlns="http://www.w3.org/2000/svg" xmlns:xlink="http://www.w3.org/1999/xlink" x="0px" y="0px"
	 viewBox="-255.5 -422.7 2560 1440" style="enable-background:new -255.5 -422.7 2560 1440;" xml:space="preserve">
<style type="text/css">
	.st0{fill:none;}
	.st1{opacity:1;}
	.st2{opacity:0;fill:#67BCFB;}
	.st3{fill:#67BCFB;}
	.st4{opacity:0.5;fill:#67BCFB;}
	.st5{fill-opacity:0;}
	.st6{fill:#767676;}
	.st7{fill:#757575;}
	.st8{opacity:0.4;fill:url(#Final_x5F_pattern3);fill-opacity:0.3;}
</style>
<pattern  x="302" y="1092.3" width="438.3" height="623" patternUnits="userSpaceOnUse" id="Final_x5F_pattern3" viewBox="74.5 -678.9 438.3 623" style="overflow:visible;">
	<g>
		<polygon class="st0" points="74.5,-678.9 512.8,-678.9 512.8,-56 74.5,-56 		"/>
		<g>
			<g class="st1">
				<polygon class="st2" points="423.6,-73.8 329,-73.8 329,-168.4 423.6,-168.4 				"/>
			</g>
			<g class="st1">
				<path class="st3" d="M395.6-89c-0.3,0.3-0.4,0.6-0.5,0.9c-0.1,0.4-0.1,0.7,0,1.1c0.1,0.4,0.3,0.7,0.6,0.9c0.3,0.2,0.6,0.4,1,0.5
					l25.9,5.8c0.3,0.1,0.7,0.1,1,0c0.3-0.1,0.6-0.3,0.9-0.5c0.2-0.2,0.4-0.5,0.5-0.9c0.1-0.3,0.1-0.7,0-1l-5.8-25.9
					c-0.1-0.4-0.3-0.7-0.5-0.9c-0.2-0.3-0.6-0.5-0.9-0.6c-0.3-0.1-0.7-0.1-1.1,0c-0.4,0.1-0.7,0.3-0.9,0.5L395.6-89z"/>
				<path class="st3" d="M353.8-146.6c-0.2-0.2-0.5-0.3-0.7-0.3c-0.3,0-0.5,0.1-0.7,0.3l-7.2,7.2c-0.2,0.2-0.3,0.4-0.4,0.7
					c-0.1,0.2-0.2,0.5-0.2,0.8c0,0.3,0.1,0.5,0.2,0.8c0.1,0.2,0.3,0.5,0.4,0.7l43.2,43.2c0.4,0.4,0.9,0.6,1.4,0.6
					c0.5,0,1.1-0.2,1.4-0.6l7.2-7.2c0.2-0.2,0.3-0.4,0.3-0.7c0-0.3-0.1-0.5-0.3-0.7L353.8-146.6L353.8-146.6z"/>
				<path class="st3" d="M358.1-152.4c-0.1,0.1-0.2,0.2-0.2,0.3c-0.1,0.1-0.1,0.3-0.1,0.4c0,0.1,0,0.3,0.1,0.4
					c0.1,0.1,0.1,0.2,0.2,0.3l44.6,44.6c0.2,0.2,0.5,0.3,0.7,0.3s0.5-0.1,0.7-0.3l7.2-7.2c0.2-0.2,0.3-0.4,0.4-0.7
					c0.1-0.2,0.2-0.5,0.2-0.8s-0.1-0.5-0.2-0.8c-0.1-0.2-0.3-0.5-0.4-0.7l-43.2-43.2c-0.4-0.4-0.9-0.6-1.4-0.6
					c-0.5,0-1.1,0.2-1.4,0.6L358.1-152.4L358.1-152.4z"/>
				<path class="st3" d="M335.1-169.6c-3,3.1-4.8,7.2-4.8,11.5c0,4.3,1.7,8.5,4.8,11.5l2.9,2.9c0.4,0.4,0.9,0.6,1.4,0.6
					c0.5,0,1.1-0.2,1.4-0.6l20.2-20.1c0.4-0.4,0.6-0.9,0.6-1.4c0-0.5-0.2-1.1-0.6-1.4l-2.9-2.9c-3.1-3.1-7.2-4.8-11.5-4.8
					C342.3-174.4,338.2-172.7,335.1-169.6L335.1-169.6z"/>
			</g>
			<g class="st1">
				<polygon class="st2" points="466.9,0 548.5,0 548.5,-103.6 466.9,-103.6 				"/>
			</g>
			<g class="st1">
				<path class="st3" d="M543.5-20.2c-3.2,3.2-7.6,5.1-12.2,5.1h-2.2v4.3c0,1.4-0.3,2.8-0.8,4.1c-0.5,1.3-1.3,2.5-2.3,3.5
					c-1,1-2.2,1.8-3.5,2.3c-1.3,0.5-2.7,0.8-4.1,0.8h-38.8c-1.4,0-2.8-0.3-4.1-0.8c-1.3-0.5-2.5-1.3-3.5-2.3c-1-1-1.8-2.2-2.3-3.5
					c-0.5-1.3-0.8-2.7-0.8-4.1v-41c0-1.1,0.5-2.2,1.3-3.1c0.8-0.8,1.9-1.3,3.1-1.3h51.8c1.1,0,2.2,0.5,3.1,1.3
					c0.8,0.8,1.3,1.9,1.3,3.1v2.2h2.2c4.6,0,9,1.8,12.2,5.1c3.2,3.2,5.1,7.6,5.1,12.2S546.7-23.4,543.5-20.2z M537.4-26.3
					c1.6-1.6,2.5-3.8,2.5-6.1c0-2.3-0.9-4.5-2.5-6.1c-1.6-1.6-3.8-2.5-6.1-2.5h-1.1c-0.3,0-0.6,0.1-0.8,0.3
					c-0.2,0.2-0.3,0.5-0.3,0.8v15.1c0,0.1,0,0.3,0.1,0.4c0.1,0.1,0.1,0.3,0.2,0.4c0.1,0.1,0.2,0.2,0.4,0.2c0.1,0.1,0.3,0.1,0.4,0.1
					h1.1C533.6-23.8,535.8-24.7,537.4-26.3z"/>
				<path class="st3" d="M470.3-85.8c-0.2,0.1-0.3,0.1-0.5,0.1c-0.2,0-0.3,0-0.5-0.1c-0.2-0.1-0.3-0.2-0.4-0.3
					c-0.1-0.1-0.2-0.3-0.2-0.5l-1.8-10.9c-0.1-0.4,0-0.8,0.1-1.2c0.2-0.4,0.4-0.7,0.8-0.9c0.3-0.2,0.7-0.4,1.2-0.4
					c0.4,0,0.8,0.1,1.2,0.3l10.2,6.6c0.2,0.1,0.3,0.2,0.4,0.4c0.1,0.2,0.1,0.4,0.1,0.5c0,0.2-0.1,0.4-0.2,0.5
					c-0.1,0.2-0.2,0.3-0.4,0.4L470.3-85.8z"/>
				<path class="st3" d="M483-87.8c0.3-0.1,0.5-0.2,0.8-0.1c0.3,0.1,0.5,0.3,0.6,0.5l13.1,23.8c0.2,0.3,0.3,0.7,0.3,1.1
					c0,0.4-0.1,0.7-0.3,1.1c-0.2,0.3-0.5,0.6-0.8,0.8c-0.3,0.2-0.7,0.3-1.1,0.3h-12.9c-0.4,0-0.8-0.1-1.1-0.3
					c-0.3-0.2-0.6-0.5-0.8-0.9l-9.6-18.6c-0.1-0.2-0.2-0.5-0.1-0.8c0.1-0.3,0.3-0.5,0.5-0.6L483-87.8z"/>
				<path class="st3" d="M515.6-71.7c1,0.3,1.9,0.5,2.9,0.7c0.2,0,0.3,0.1,0.5,0.2c0.1,0.1,0.2,0.2,0.3,0.3c0.1,0.1,0.1,0.3,0.1,0.5
					c0,0.2,0,0.3-0.1,0.5l-2.9,7.7c-0.2,0.4-0.4,0.8-0.8,1c-0.4,0.2-0.8,0.4-1.2,0.4h-7.9c-0.4,0-0.7-0.1-1.1-0.3
					c-0.3-0.2-0.6-0.5-0.8-0.8c-0.2-0.3-0.3-0.7-0.3-1.1c0-0.4,0.1-0.7,0.3-1.1l5.4-9.6c0.1-0.1,0.2-0.2,0.3-0.3
					c0.1-0.1,0.3-0.2,0.4-0.2c0.1,0,0.3,0,0.4,0c0.1,0,0.3,0.1,0.4,0.2c0.9,0.6,1.8,1.1,2.7,1.5h0C514.8-72,515.2-71.8,515.6-71.7z"
					/>
				<path class="st3" d="M529.4-91.5c0.7,2.5,0.8,5.1,0.1,7.6c-0.6,2.5-1.9,4.8-3.8,6.6c-1.3,1.1-3,1.8-4.7,2
					c-1.7,0.2-3.5-0.1-5-0.9c-1.2-0.4-2.2-1.1-3.1-1.9c-0.9-0.8-1.6-1.9-2.1-3c-0.5-1.1-0.7-2.3-0.7-3.6c0-1.2,0.3-2.4,0.8-3.5
					c0.6-1.3,1.4-2.5,2.3-3.5c2.4-3.1,3.8-5.1,1.5-8.6c-0.2-0.4-0.4-0.8-0.4-1.2c0-0.4,0.1-0.9,0.4-1.2c0.2-0.4,0.6-0.6,1-0.8
					c0.4-0.2,0.8-0.2,1.3-0.1c3,0.6,5.7,2.1,7.8,4.3C527.2-97.2,528.7-94.5,529.4-91.5L529.4-91.5z"/>
			</g>
			<g class="st1">
				<polygon class="st2" points="438.3,-176 491.4,-123 565.7,-197.2 512.6,-250.3 				"/>
			</g>
			<g class="st1">
				<path class="st3" d="M454.6-195.5l14.2,14.2l-17.7,3.5L454.6-195.5z"/>
				<path class="st3" d="M493.5-234.4l14.2,14.2l-35.4,35.4l-14.2-14.2L493.5-234.4z"/>
				<path class="st3" d="M514.7-241.5c3.9,3.9,3.7,10.5-0.5,14.7l-3,3L497-238l3-3C504.2-245.2,510.8-245.4,514.7-241.5"/>
				<path class="st3" d="M571.3-206.1l-74.3,74.3l-28.3-28.3l7.1-7.1l10.6,10.6l7.1-7.1l-10.6-10.6l10.6-10.6l10.6,10.6l7.1-7.1
					L500.6-192l10.6-10.6l10.6,10.6l7.1-7.1l-10.6-10.6l10.6-10.6l10.6,10.6l7.1-7.1L536-227.3l7.1-7.1L571.3-206.1z"/>
			</g>
		</g>
		<g>
			<g class="st1">
				<polygon class="st2" points="142,-70.2 236.6,-70.2 236.6,-154.2 142,-154.2 				"/>
			</g>
			<g class="st1">
				<path class="st3" d="M218.8-67.7c0,2-2.4,3.2-4,1.9l-7.1-5.6c-0.4-0.3-1-0.5-1.5-0.5H179c-2.7,0-5-2.2-5-5v-64.9
					c0-2.8,2.2-5,5-5h29.9c1.1,0,2.2,0.4,3.1,1.1l5.9,4.8c0.6,0.5,0.9,1.2,0.9,1.9V-67.7z"/>
				<path class="st3" d="M268.6-141.8v64.9c0,2.8-2.2,5-5,5h-27.3c-0.5,0-1.1,0.2-1.5,0.5l-7.1,5.6c-1.6,1.3-4,0.1-4-1.9V-139
					c0-0.7,0.3-1.4,0.9-1.9l5.9-4.8c0.9-0.7,2-1.1,3.1-1.1h29.9C266.4-146.8,268.6-144.5,268.6-141.8z"/>
			</g>
			<g class="st1">
				<polygon class="st2" points="28.6,0 110.2,0 110.2,-103.6 28.6,-103.6 				"/>
			</g>
			<g class="st1">
				<path class="st3" d="M105.2-20.2c-3.2,3.2-7.6,5.1-12.2,5.1h-2.2v4.3c0,1.4-0.3,2.8-0.8,4.1c-0.5,1.3-1.3,2.5-2.3,3.5
					c-1,1-2.2,1.8-3.5,2.3C82.8-0.3,81.4,0,80,0H41.2c-1.4,0-2.8-0.3-4.1-0.8c-1.3-0.5-2.5-1.3-3.5-2.3c-1-1-1.8-2.2-2.3-3.5
					c-0.5-1.3-0.8-2.7-0.8-4.1v-41c0-1.1,0.5-2.2,1.3-3.1c0.8-0.8,1.9-1.3,3.1-1.3h51.8c1.1,0,2.2,0.5,3.1,1.3
					c0.8,0.8,1.3,1.9,1.3,3.1v2.2H93c4.6,0,9,1.8,12.2,5.1c3.2,3.2,5.1,7.6,5.1,12.2S108.4-23.4,105.2-20.2z M99.1-26.3
					c1.6-1.6,2.5-3.8,2.5-6.1c0-2.3-0.9-4.5-2.5-6.1C97.5-40.1,95.3-41,93-41h-1.1c-0.3,0-0.6,0.1-0.8,0.3c-0.2,0.2-0.3,0.5-0.3,0.8
					v15.1c0,0.1,0,0.3,0.1,0.4c0.1,0.1,0.1,0.3,0.2,0.4c0.1,0.1,0.2,0.2,0.4,0.2c0.1,0.1,0.3,0.1,0.4,0.1H93
					C95.3-23.8,97.5-24.7,99.1-26.3z"/>
				<path class="st3" d="M77.3-71.7c1,0.3,1.9,0.5,2.9,0.7c0.2,0,0.3,0.1,0.5,0.2c0.1,0.1,0.2,0.2,0.3,0.3c0.1,0.1,0.1,0.3,0.1,0.5
					c0,0.2,0,0.3-0.1,0.5l-2.9,7.7c-0.2,0.4-0.4,0.8-0.8,1c-0.4,0.2-0.8,0.4-1.2,0.4h-7.9c-0.4,0-0.7-0.1-1.1-0.3
					c-0.3-0.2-0.6-0.5-0.8-0.8c-0.2-0.3-0.3-0.7-0.3-1.1c0-0.4,0.1-0.7,0.3-1.1l5.4-9.6c0.1-0.1,0.2-0.2,0.3-0.3
					c0.1-0.1,0.3-0.2,0.4-0.2c0.1,0,0.3,0,0.4,0c0.1,0,0.3,0.1,0.4,0.2c0.9,0.6,1.8,1.1,2.7,1.5h0C76.5-72,76.9-71.8,77.3-71.7z"/>
				<path class="st3" d="M91.1-91.5c0.7,2.5,0.8,5.1,0.1,7.6c-0.6,2.5-1.9,4.8-3.8,6.6c-1.3,1.1-3,1.8-4.7,2c-1.7,0.2-3.5-0.1-5-0.9
					c-1.2-0.4-2.2-1.1-3.1-1.9c-0.9-0.8-1.6-1.9-2.1-3c-0.5-1.1-0.7-2.3-0.7-3.6c0-1.2,0.3-2.4,0.8-3.5c0.6-1.3,1.4-2.5,2.3-3.5
					c2.4-3.1,3.8-5.1,1.5-8.6c-0.2-0.4-0.4-0.8-0.4-1.2c0-0.4,0.1-0.9,0.4-1.2c0.2-0.4,0.6-0.6,1-0.8c0.4-0.2,0.8-0.2,1.3-0.1
					c3,0.6,5.7,2.1,7.8,4.3C88.9-97.2,90.4-94.5,91.1-91.5L91.1-91.5z"/>
			</g>
			<g class="st1">
				<polygon class="st2" points="0,-176 53.1,-123 127.4,-197.2 74.3,-250.3 				"/>
			</g>
			<g class="st1">
				<path class="st3" d="M76.4-241.5c3.9,3.9,3.7,10.5-0.5,14.7l-3,3L58.7-238l3-3C65.9-245.2,72.5-245.4,76.4-241.5"/>
				<path class="st3" d="M133-206.1l-74.3,74.3l-28.3-28.3l7.1-7.1l10.6,10.6l7.1-7.1l-10.6-10.6l10.6-10.6l10.6,10.6l7.1-7.1
					L62.3-192l10.6-10.6L83.5-192l7.1-7.1L80-209.6l10.6-10.6l10.6,10.6l7.1-7.1l-10.6-10.6l7.1-7.1L133-206.1z"/>
			</g>
		</g>
		<g>
			<g class="st1">
				<polygon class="st2" points="204.5,-385.3 109.9,-385.3 109.9,-479.9 204.5,-479.9 				"/>
			</g>
			<g class="st1">
				<path class="st3" d="M176.4-400.5c-0.3,0.3-0.4,0.6-0.5,0.9c-0.1,0.4-0.1,0.7,0,1.1c0.1,0.4,0.3,0.7,0.6,0.9
					c0.3,0.2,0.6,0.4,1,0.5l25.9,5.8c0.3,0.1,0.7,0.1,1,0c0.3-0.1,0.6-0.3,0.9-0.5c0.2-0.2,0.4-0.5,0.5-0.9c0.1-0.3,0.1-0.7,0-1
					l-5.8-25.9c-0.1-0.4-0.3-0.7-0.5-0.9c-0.2-0.3-0.6-0.5-0.9-0.6s-0.7-0.1-1.1,0c-0.4,0.1-0.7,0.3-0.9,0.5L176.4-400.5z"/>
				<path class="st3" d="M134.7-458.1c-0.2-0.2-0.5-0.3-0.7-0.3c-0.3,0-0.5,0.1-0.7,0.3l-7.2,7.2c-0.2,0.2-0.3,0.4-0.4,0.7
					c-0.1,0.2-0.2,0.5-0.2,0.8c0,0.3,0.1,0.5,0.2,0.8c0.1,0.2,0.3,0.5,0.4,0.7l43.2,43.2c0.4,0.4,0.9,0.6,1.4,0.6
					c0.5,0,1.1-0.2,1.4-0.6l7.2-7.2c0.2-0.2,0.3-0.5,0.3-0.7c0-0.3-0.1-0.5-0.3-0.7L134.7-458.1L134.7-458.1z"/>
				<path class="st3" d="M139-463.8c-0.1,0.1-0.2,0.2-0.2,0.3c-0.1,0.1-0.1,0.3-0.1,0.4c0,0.1,0,0.3,0.1,0.4
					c0.1,0.1,0.1,0.2,0.2,0.3l44.6,44.6c0.2,0.2,0.5,0.3,0.7,0.3c0.3,0,0.5-0.1,0.7-0.3l7.2-7.2c0.2-0.2,0.3-0.4,0.4-0.7
					c0.1-0.2,0.2-0.5,0.2-0.8c0-0.3-0.1-0.5-0.2-0.8c-0.1-0.2-0.3-0.5-0.4-0.7L149.1-471c-0.4-0.4-0.9-0.6-1.4-0.6
					c-0.5,0-1.1,0.2-1.4,0.6L139-463.8L139-463.8z"/>
				<path class="st3" d="M115.9-481.1c-3,3.1-4.8,7.2-4.8,11.5c0,4.3,1.7,8.5,4.8,11.5l2.9,2.9c0.4,0.4,0.9,0.6,1.4,0.6
					s1.1-0.2,1.4-0.6l20.2-20.1c0.4-0.4,0.6-0.9,0.6-1.4c0-0.5-0.2-1.1-0.6-1.4l-2.9-2.9c-3.1-3.1-7.2-4.8-11.5-4.8
					C123.1-485.9,119-484.2,115.9-481.1L115.9-481.1z"/>
			</g>
			<g class="st1">
				<polygon class="st2" points="235.3,-173.1 316.9,-173.1 316.9,-254.8 235.3,-254.8 				"/>
			</g>
			<path class="st4" d="M294.4-270.2c4.5,0,8.2,3.7,8.2,8.2v49c0,4.5-3.7,8.2-8.2,8.2h-36.7l-16.3,16.3v-16.3h-12.2
				c-4.5,0-8.2-3.7-8.2-8.2v-49c0-4.5,3.7-8.2,8.2-8.2H294.4z"/>
			<g class="st1">
				<polygon class="st2" points="361.2,-381.6 455.8,-381.6 455.8,-465.7 361.2,-465.7 				"/>
			</g>
			<g class="st1">
				<path class="st3" d="M438-379.2c0,2-2.4,3.2-4,1.9l-7.1-5.6c-0.4-0.3-1-0.5-1.5-0.5h-27.3c-2.7,0-5-2.2-5-5v-64.9
					c0-2.8,2.2-5,5-5H428c1.1,0,2.2,0.4,3.1,1.1l5.9,4.8c0.6,0.5,0.9,1.2,0.9,1.9V-379.2z"/>
				<path class="st3" d="M487.8-453.2v64.9c0,2.8-2.2,5-5,5h-27.3c-0.5,0-1.1,0.2-1.5,0.5l-7.1,5.6c-1.6,1.3-4,0.1-4-1.9v-71.3
					c0-0.7,0.3-1.4,0.9-1.9l5.9-4.8c0.9-0.7,2-1.1,3.1-1.1h29.9C485.5-458.2,487.8-456,487.8-453.2z"/>
			</g>
			<g class="st1">
				<polygon class="st2" points="102.6,-254.8 211.6,-254.8 211.6,-344 102.6,-344 				"/>
			</g>
			<g class="st1">
				<path class="st3" d="M205.7-329.7c1.7,0.9,2.8,2.7,2.7,4.6c-0.1,2-1.3,3.7-3.1,4.4L154-300.9l-44.7-18.6v22.8c0,2.7-2.2,5-5,5
					c-2.7,0-5-2.2-5-5v-28.6c0-0.5,0.2-1.5,0.5-2.1c0.4-0.9,1.2-1.8,2.2-2.3l49.6-24.8c1.4-0.7,3-0.7,4.4,0L205.7-329.7"/>
				<path class="st3" d="M154-290.6c0.6,0,1.2-0.1,1.8-0.3l32.9-12.7v13.9c0,1.9-1.1,3.6-2.7,4.4c-8.5,4.2-17.3,9.5-31.9,9.5
					c-14.7,0-23.4-5.3-31.9-9.5c-1.7-0.8-2.7-2.6-2.7-4.4v-14.9l32.8,13.7C152.7-290.7,153.3-290.6,154-290.6"/>
				<path class="st3" d="M104.4-285.6c2.7,0,5,2.2,5,5v9.9c0,2.7-2.2,5-5,5c-2.7,0-5-2.2-5-5v-9.9
					C99.5-283.4,101.7-285.6,104.4-285.6"/>
			</g>
			<g class="st1">
				<polygon class="st2" points="247.8,-311.5 329.4,-311.5 329.4,-415.1 247.8,-415.1 				"/>
			</g>
			<g class="st1">
				<path class="st3" d="M324.3-331.7c-3.2,3.2-7.6,5.1-12.2,5.1H310v4.3c0,1.4-0.3,2.8-0.8,4.1c-0.5,1.3-1.3,2.5-2.3,3.5
					c-1,1-2.2,1.8-3.5,2.3c-1.3,0.5-2.7,0.8-4.1,0.8h-38.8c-1.4,0-2.8-0.3-4.1-0.8c-1.3-0.5-2.5-1.3-3.5-2.3c-1-1-1.8-2.2-2.3-3.5
					c-0.5-1.3-0.8-2.7-0.8-4.1v-41c0-1.1,0.5-2.2,1.3-3.1c0.8-0.8,1.9-1.3,3.1-1.3h51.8c1.1,0,2.2,0.5,3.1,1.3
					c0.8,0.8,1.3,1.9,1.3,3.1v2.2h2.2c4.6,0,9,1.8,12.2,5.1c3.2,3.2,5.1,7.6,5.1,12.2C329.4-339.3,327.6-334.9,324.3-331.7z
					 M318.2-337.8c1.6-1.6,2.5-3.8,2.5-6.1s-0.9-4.5-2.5-6.1c-1.6-1.6-3.8-2.5-6.1-2.5H311c-0.3,0-0.6,0.1-0.8,0.3
					c-0.2,0.2-0.3,0.5-0.3,0.8v15.1c0,0.1,0,0.3,0.1,0.4c0.1,0.1,0.1,0.3,0.2,0.4c0.1,0.1,0.2,0.2,0.4,0.2c0.1,0.1,0.3,0.1,0.4,0.1
					h1.1C314.4-335.2,316.6-336.1,318.2-337.8z"/>
				<path class="st3" d="M251.2-397.3c-0.2,0.1-0.3,0.1-0.5,0.1c-0.2,0-0.3,0-0.5-0.1c-0.2-0.1-0.3-0.2-0.4-0.3
					c-0.1-0.1-0.2-0.3-0.2-0.5l-1.8-10.9c-0.1-0.4,0-0.8,0.1-1.2c0.2-0.4,0.4-0.7,0.8-0.9c0.3-0.2,0.7-0.4,1.2-0.4
					c0.4,0,0.8,0.1,1.2,0.3l10.2,6.6c0.2,0.1,0.3,0.2,0.4,0.4c0.1,0.2,0.1,0.4,0.1,0.5c0,0.2-0.1,0.4-0.2,0.5
					c-0.1,0.2-0.2,0.3-0.4,0.4L251.2-397.3z"/>
				<path class="st3" d="M263.9-399.3c0.3-0.1,0.5-0.2,0.8-0.1c0.3,0.1,0.5,0.3,0.6,0.5l13.1,23.8c0.2,0.3,0.3,0.7,0.3,1.1
					c0,0.4-0.1,0.7-0.3,1.1c-0.2,0.3-0.5,0.6-0.8,0.8c-0.3,0.2-0.7,0.3-1.1,0.3h-12.9c-0.4,0-0.8-0.1-1.1-0.3
					c-0.3-0.2-0.6-0.5-0.8-0.9l-9.6-18.6c-0.1-0.2-0.2-0.5-0.1-0.8c0.1-0.3,0.3-0.5,0.5-0.6L263.9-399.3z"/>
				<path class="st3" d="M296.4-383.2c1,0.3,1.9,0.5,2.9,0.7c0.2,0,0.3,0.1,0.5,0.2c0.1,0.1,0.2,0.2,0.3,0.3
					c0.1,0.1,0.1,0.3,0.1,0.5c0,0.2,0,0.3-0.1,0.5l-2.9,7.7c-0.2,0.4-0.4,0.8-0.8,1c-0.4,0.2-0.8,0.4-1.2,0.4h-7.9
					c-0.4,0-0.7-0.1-1.1-0.3c-0.3-0.2-0.6-0.5-0.8-0.8c-0.2-0.3-0.3-0.7-0.3-1.1c0-0.4,0.1-0.7,0.3-1.1l5.4-9.6
					c0.1-0.1,0.2-0.2,0.3-0.3c0.1-0.1,0.3-0.2,0.4-0.2c0.1,0,0.3,0,0.4,0c0.1,0,0.3,0.1,0.4,0.2c0.9,0.6,1.8,1.1,2.7,1.5h0
					C295.6-383.5,296-383.3,296.4-383.2z"/>
				<path class="st3" d="M310.2-403c0.7,2.5,0.8,5.1,0.1,7.6c-0.6,2.5-1.9,4.8-3.8,6.6c-1.3,1.1-3,1.8-4.7,2c-1.7,0.2-3.5-0.1-5-0.9
					c-1.2-0.4-2.2-1.1-3.1-1.9c-0.9-0.8-1.6-1.9-2.1-3c-0.5-1.1-0.7-2.3-0.7-3.6c0-1.2,0.3-2.4,0.8-3.5c0.6-1.3,1.4-2.5,2.3-3.5
					c2.4-3.1,3.8-5.1,1.5-8.6c-0.2-0.4-0.4-0.8-0.4-1.2c0-0.4,0.1-0.9,0.4-1.2c0.2-0.4,0.6-0.6,1-0.8c0.4-0.2,0.8-0.2,1.3-0.1
					c3,0.6,5.7,2.1,7.8,4.3C308.1-408.6,309.6-405.9,310.2-403L310.2-403z"/>
			</g>
			<g class="st1">
				<polygon class="st2" points="381.8,-254.3 462.5,-254.3 462.5,-339.6 381.8,-339.6 				"/>
			</g>
			<g class="st1">
				<path class="st3" d="M453.5-324.9c2.3,2.3,3.6,5.4,3.6,8.6c0,3.2-1.3,6.3-3.6,8.6l-11.5,11.5c-0.4,0.4-0.9,0.6-1.4,0.6
					c-0.5,0-1.1-0.2-1.4-0.6l-14.3-14.4c-0.4-0.4-0.6-0.9-0.6-1.4c0-0.5,0.2-1.1,0.6-1.4l8.7-8.7l-1.4-1.4c-0.8-0.8-1.9-1.2-3-1.2
					c-1.1,0-2.2,0.4-3,1.2l-21.4,21.4c-0.7,0.7-1.7,1.1-2.8,1.1s-2-0.4-2.8-1.1c-0.7-0.7-1.1-1.7-1.1-2.8s0.4-2,1.1-2.8l21.4-21.4
					c2.3-2.3,5.3-3.5,8.5-3.5c3.2,0,6.2,1.3,8.5,3.5c0.5,0.5,1.7,1.8,1.8,2c2.3-1.2,4.9-1.6,7.4-1.2
					C449.4-327.9,451.7-326.7,453.5-324.9L453.5-324.9z"/>
				<path class="st3" d="M434.9-291.9c0.4,0.4,0.6,0.9,0.6,1.4s-0.2,1.1-0.6,1.4l-32.2,32.3c-0.6,0.6-1.2,1-2,1.3
					c-0.7,0.3-1.5,0.5-2.3,0.5s-1.6-0.2-2.3-0.5c-0.7-0.3-1.4-0.8-2-1.3l-8.6-8.6c-0.6-0.6-1-1.2-1.3-2c-0.3-0.7-0.5-1.5-0.5-2.3
					s0.2-1.6,0.5-2.3c0.3-0.7,0.8-1.4,1.3-2l32.2-32.3c0.4-0.4,0.9-0.6,1.4-0.6c0.5,0,1.1,0.2,1.4,0.6L434.9-291.9z"/>
				<path class="st3" d="M392.6-249.5c0.2,0.2,0.4,0.5,0.5,0.8c0.1,0.3,0.1,0.7,0,1c-0.1,0.3-0.2,0.6-0.4,0.9
					c-0.2,0.2-0.5,0.4-0.8,0.5l-21.1,7.6c-0.4,0.1-0.7,0.1-1.1,0.1c-0.4-0.1-0.7-0.3-1-0.5c-0.3-0.3-0.4-0.6-0.5-1
					c-0.1-0.4-0.1-0.7,0.1-1.1l7.6-21.1c0.1-0.3,0.3-0.6,0.5-0.8c0.2-0.2,0.5-0.4,0.9-0.4c0.3-0.1,0.7-0.1,1,0
					c0.3,0.1,0.6,0.3,0.8,0.5L392.6-249.5z"/>
			</g>
			<g class="st1">
				<polygon class="st2" points="219.2,-487.5 272.2,-434.4 346.5,-508.7 293.4,-561.8 				"/>
			</g>
			<g class="st1">
				<path class="st3" d="M235.4-507l14.2,14.2l-17.7,3.5L235.4-507z"/>
				<path class="st3" d="M274.4-545.9l14.2,14.2l-35.4,35.4L239-510.5L274.4-545.9z"/>
				<path class="st3" d="M295.6-553c3.9,3.9,3.7,10.5-0.5,14.7l-3,3l-14.2-14.2l3-3C285.1-556.6,291.7-556.9,295.6-553"/>
				<path class="st3" d="M352.2-517.6l-74.3,74.3l-28.3-28.3l7.1-7.1l10.6,10.6l7.1-7.1l-10.6-10.6l10.6-10.6l10.6,10.6l7.1-7.1
					l-10.6-10.6l10.6-10.6l10.6,10.6l7.1-7.1l-10.6-10.6l10.6-10.6l10.6,10.6l7.1-7.1l-10.6-10.6l7.1-7.1L352.2-517.6z"/>
			</g>
		</g>
		<g>
			<g class="st1">
				<polygon class="st2" points="454.4,-484.6 536.1,-484.6 536.1,-566.2 454.4,-566.2 				"/>
			</g>
			<path class="st4" d="M513.5-581.7c4.5,0,8.2,3.7,8.2,8.2v49c0,4.5-3.7,8.2-8.2,8.2h-36.7L460.5-500v-16.3h-12.2
				c-4.5,0-8.2-3.7-8.2-8.2v-49c0-4.5,3.7-8.2,8.2-8.2H513.5z"/>
			<g class="st1">
				<polygon class="st2" points="321.7,-566.2 430.7,-566.2 430.7,-655.5 321.7,-655.5 				"/>
			</g>
			<g class="st1">
				<path class="st3" d="M424.9-641.2c1.7,0.9,2.8,2.7,2.7,4.6c-0.1,2-1.3,3.7-3.1,4.4l-51.3,19.8L328.5-631v22.8c0,2.7-2.2,5-5,5
					c-2.7,0-5-2.2-5-5v-28.6c0-0.5,0.2-1.5,0.5-2.1c0.4-0.9,1.2-1.8,2.2-2.3l49.6-24.8c1.4-0.7,3-0.7,4.4,0L424.9-641.2"/>
				<path class="st3" d="M373.1-602c0.6,0,1.2-0.1,1.8-0.3l32.9-12.7v13.9c0,1.9-1.1,3.6-2.7,4.4c-8.5,4.2-17.3,9.5-31.9,9.5
					c-14.7,0-23.4-5.3-31.9-9.5c-1.7-0.8-2.7-2.6-2.7-4.4v-14.9l32.8,13.7C371.8-602.2,372.5-602,373.1-602"/>
				<path class="st3" d="M323.6-597.1c2.7,0,5,2.2,5,5v9.9c0,2.7-2.2,5-5,5s-5-2.2-5-5v-9.9C318.6-594.9,320.8-597.1,323.6-597.1"/>
			</g>
			<g class="st1">
				<polygon class="st2" points="466.9,-623 548.5,-623 548.5,-726.6 466.9,-726.6 				"/>
			</g>
			<g class="st1">
				<path class="st3" d="M543.5-643.1c-3.2,3.2-7.6,5.1-12.2,5.1h-2.2v4.3c0,1.4-0.3,2.8-0.8,4.1c-0.5,1.3-1.3,2.5-2.3,3.5
					c-1,1-2.2,1.8-3.5,2.3s-2.7,0.8-4.1,0.8h-38.8c-1.4,0-2.8-0.3-4.1-0.8c-1.3-0.5-2.5-1.3-3.5-2.3c-1-1-1.8-2.2-2.3-3.5
					c-0.5-1.3-0.8-2.7-0.8-4.1v-41c0-1.1,0.5-2.2,1.3-3.1c0.8-0.8,1.9-1.3,3.1-1.3h51.8c1.1,0,2.2,0.5,3.1,1.3
					c0.8,0.8,1.3,1.9,1.3,3.1v2.2h2.2c4.6,0,9,1.8,12.2,5.1c3.2,3.2,5.1,7.6,5.1,12.2C548.5-650.8,546.7-646.4,543.5-643.1z
					 M537.4-649.2c1.6-1.6,2.5-3.8,2.5-6.1c0-2.3-0.9-4.5-2.5-6.1c-1.6-1.6-3.8-2.5-6.1-2.5h-1.1c-0.3,0-0.6,0.1-0.8,0.3
					c-0.2,0.2-0.3,0.5-0.3,0.8v15.1c0,0.1,0,0.3,0.1,0.4c0.1,0.1,0.1,0.3,0.2,0.4c0.1,0.1,0.2,0.2,0.4,0.2c0.1,0.1,0.3,0.1,0.4,0.1
					h1.1C533.6-646.7,535.8-647.6,537.4-649.2z"/>
			</g>
		</g>
		<g>
			<g class="st1">
				<polygon class="st2" points="16.1,-484.6 97.8,-484.6 97.8,-566.2 16.1,-566.2 				"/>
			</g>
			<path class="st4" d="M75.2-581.7c4.5,0,8.2,3.7,8.2,8.2v49c0,4.5-3.7,8.2-8.2,8.2H38.5L22.2-500v-16.3H9.9
				c-4.5,0-8.2-3.7-8.2-8.2v-49c0-4.5,3.7-8.2,8.2-8.2H75.2z"/>
			<g class="st1">
				<polygon class="st2" points="28.6,-623 110.2,-623 110.2,-726.6 28.6,-726.6 				"/>
			</g>
			<g class="st1">
				<path class="st3" d="M105.2-643.1c-3.2,3.2-7.6,5.1-12.2,5.1h-2.2v4.3c0,1.4-0.3,2.8-0.8,4.1c-0.5,1.3-1.3,2.5-2.3,3.5
					c-1,1-2.2,1.8-3.5,2.3c-1.3,0.5-2.7,0.8-4.1,0.8H41.2c-1.4,0-2.8-0.3-4.1-0.8c-1.3-0.5-2.5-1.3-3.5-2.3c-1-1-1.8-2.2-2.3-3.5
					c-0.5-1.3-0.8-2.7-0.8-4.1v-41c0-1.1,0.5-2.2,1.3-3.1c0.8-0.8,1.9-1.3,3.1-1.3h51.8c1.1,0,2.2,0.5,3.1,1.3
					c0.8,0.8,1.3,1.9,1.3,3.1v2.2H93c4.6,0,9,1.8,12.2,5.1c3.2,3.2,5.1,7.6,5.1,12.2C110.2-650.8,108.4-646.4,105.2-643.1z
					 M99.1-649.2c1.6-1.6,2.5-3.8,2.5-6.1c0-2.3-0.9-4.5-2.5-6.1c-1.6-1.6-3.8-2.5-6.1-2.5h-1.1c-0.3,0-0.6,0.1-0.8,0.3
					c-0.2,0.2-0.3,0.5-0.3,0.8v15.1c0,0.1,0,0.3,0.1,0.4c0.1,0.1,0.1,0.3,0.2,0.4c0.1,0.1,0.2,0.2,0.4,0.2c0.1,0.1,0.3,0.1,0.4,0.1
					H93C95.3-646.7,97.5-647.6,99.1-649.2z"/>
			</g>
			<g class="st1">
				<polygon class="st2" points="162.6,-565.8 243.3,-565.8 243.3,-651.1 162.6,-651.1 				"/>
			</g>
			<g class="st1">
				<path class="st3" d="M234.4-636.4c2.3,2.3,3.6,5.4,3.6,8.6s-1.3,6.3-3.6,8.6l-11.5,11.5c-0.4,0.4-0.9,0.6-1.4,0.6
					c-0.5,0-1.1-0.2-1.4-0.6L205.7-622c-0.4-0.4-0.6-0.9-0.6-1.4c0-0.5,0.2-1.1,0.6-1.4l8.7-8.7l-1.4-1.4c-0.8-0.8-1.9-1.2-3-1.2
					c-1.1,0-2.2,0.4-3,1.2l-21.4,21.4c-0.7,0.7-1.7,1.1-2.8,1.1s-2-0.4-2.8-1.1c-0.7-0.7-1.1-1.7-1.1-2.8s0.4-2,1.1-2.8l21.4-21.4
					c2.3-2.3,5.3-3.5,8.5-3.5c3.2,0,6.2,1.3,8.5,3.5c0.5,0.5,1.7,1.8,1.8,2c2.3-1.2,4.9-1.6,7.4-1.2
					C230.2-639.4,232.6-638.2,234.4-636.4L234.4-636.4z"/>
				<path class="st3" d="M215.7-603.3c0.4,0.4,0.6,0.9,0.6,1.4s-0.2,1.1-0.6,1.4l-32.2,32.3c-0.6,0.6-1.2,1-2,1.3
					c-0.7,0.3-1.5,0.5-2.3,0.5c-0.8,0-1.6-0.2-2.3-0.5c-0.7-0.3-1.4-0.8-2-1.3l-8.6-8.6c-0.6-0.6-1-1.2-1.3-2
					c-0.3-0.7-0.5-1.5-0.5-2.3c0-0.8,0.2-1.6,0.5-2.3c0.3-0.7,0.8-1.4,1.3-2l32.2-32.3c0.4-0.4,0.9-0.6,1.4-0.6
					c0.5,0,1.1,0.2,1.4,0.6L215.7-603.3z"/>
				<path class="st3" d="M173.4-561c0.2,0.2,0.4,0.5,0.5,0.8c0.1,0.3,0.1,0.7,0,1c-0.1,0.3-0.2,0.6-0.4,0.9
					c-0.2,0.2-0.5,0.4-0.8,0.5l-21.1,7.6c-0.4,0.1-0.7,0.1-1.1,0.1c-0.4-0.1-0.7-0.3-1-0.5c-0.3-0.3-0.4-0.6-0.5-1
					c-0.1-0.4-0.1-0.7,0.1-1.1l7.6-21.1c0.1-0.3,0.3-0.6,0.5-0.8c0.2-0.2,0.5-0.4,0.9-0.4c0.3-0.1,0.7-0.1,1,0
					c0.3,0.1,0.6,0.3,0.8,0.5L173.4-561z"/>
			</g>
		</g>
	</g>
</pattern>
<g>
	<rect x="-966.4" y="-1315.5" class="st5" width="94.6" height="94.6"/>
	<path class="st6" d="M-881.1-1250.3c0.3-0.3,0.6-0.4,0.9-0.5c0.4-0.1,0.7-0.1,1.1,0s0.7,0.3,0.9,0.6c0.2,0.3,0.4,0.6,0.5,0.9
		l5.8,25.9c0.1,0.3,0.1,0.7,0,1c-0.1,0.3-0.3,0.6-0.5,0.9c-0.2,0.2-0.5,0.4-0.9,0.5c-0.3,0.1-0.7,0.1-1,0l-25.9-5.8
		c-0.4-0.1-0.7-0.3-1-0.5c-0.3-0.2-0.5-0.6-0.6-0.9c-0.1-0.4-0.1-0.7,0-1.1c0.1-0.4,0.3-0.7,0.5-0.9L-881.1-1250.3z"/>
	<path class="st6" d="M-942.9-1287.7l44.6,44.6c0.2,0.2,0.3,0.5,0.3,0.7c0,0.3-0.1,0.5-0.3,0.7l-7.2,7.2c-0.4,0.4-0.9,0.6-1.4,0.6
		c-0.5,0-1.1-0.2-1.4-0.6l-43.2-43.2c-0.2-0.2-0.3-0.4-0.4-0.7c-0.1-0.2-0.2-0.5-0.2-0.8c0-0.3,0.1-0.5,0.2-0.8
		c0.1-0.2,0.3-0.5,0.4-0.7l7.2-7.2c0.2-0.2,0.5-0.3,0.7-0.3C-943.4-1288-943.1-1287.9-942.9-1287.7L-942.9-1287.7z"/>
	<path class="st6" d="M-938.6-1293.5l7.2-7.2c0.4-0.4,0.9-0.6,1.4-0.6c0.5,0,1.1,0.2,1.4,0.6l43.2,43.2c0.2,0.2,0.3,0.4,0.4,0.7
		c0.1,0.2,0.2,0.5,0.2,0.8c0,0.3-0.1,0.5-0.2,0.8c-0.1,0.2-0.3,0.5-0.4,0.7l-7.2,7.2c-0.2,0.2-0.5,0.3-0.7,0.3
		c-0.3,0-0.5-0.1-0.7-0.3l-44.6-44.6c-0.1-0.1-0.2-0.2-0.2-0.3c-0.1-0.1-0.1-0.3-0.1-0.4c0-0.1,0-0.3,0.1-0.4
		C-938.8-1293.3-938.7-1293.4-938.6-1293.5L-938.6-1293.5z"/>
	<path class="st6" d="M-961.7-1310.8c3.1-3.1,7.2-4.8,11.5-4.8c4.3,0,8.5,1.7,11.5,4.8l2.9,2.9c0.4,0.4,0.6,0.9,0.6,1.4
		c0,0.5-0.2,1.1-0.6,1.4l-20.2,20.1c-0.4,0.4-0.9,0.6-1.4,0.6c-0.5,0-1.1-0.2-1.4-0.6l-2.9-2.9c-3-3.1-4.8-7.2-4.8-11.5
		C-966.4-1303.6-964.7-1307.7-961.7-1310.8L-961.7-1310.8z"/>
	<rect x="-841" y="-1090.4" class="st5" width="81.6" height="81.6"/>
	<path class="st7" d="M-832.9-1090.4c-4.5,0-8.2,3.7-8.2,8.2v49c0,4.5,3.7,8.2,8.2,8.2h12.2v16.3l16.3-16.3h36.7
		c4.5,0,8.2-3.7,8.2-8.2v-49c0-4.5-3.7-8.2-8.2-8.2H-832.9z"/>
	<rect x="-715.1" y="-1301.3" class="st5" width="94.6" height="84.1"/>
	<path class="st6" d="M-670.3-1293.6c0-0.7-0.3-1.4-0.9-1.9l-5.9-4.8c-0.9-0.7-2-1.1-3.1-1.1h-29.9c-2.7,0-5,2.2-5,5v64.9
		c0,2.8,2.2,5,5,5h27.3c0.5,0,1.1,0.2,1.5,0.5l7.1,5.6c1.6,1.3,4,0.1,4-1.9V-1293.6z"/>
	<path class="st6" d="M-625.5-1301.3h-29.9c-1.1,0-2.2,0.4-3.1,1.1l-5.9,4.8c-0.6,0.5-0.9,1.2-0.9,1.9v71.3c0,2,2.4,3.2,4,1.9
		l7.1-5.6c0.4-0.3,1-0.5,1.5-0.5h27.3c2.7,0,5-2.2,5-5v-64.9C-620.5-1299.1-622.8-1301.3-625.5-1301.3z"/>
	<rect x="-973.8" y="-1179.6" class="st5" width="109" height="89.2"/>
	<path class="st6" d="M-867.5-1154.3l-49.6-24.8c-1.4-0.7-3-0.7-4.4,0l-49.6,24.8c-1,0.5-1.8,1.4-2.2,2.3c-0.3,0.6-0.5,1.6-0.5,2.1
		v28.6c0,2.7,2.2,5,5,5c2.7,0,5-2.2,5-5v-22.8l44.7,18.6l51.3-19.8c1.8-0.7,3-2.4,3.1-4.4C-864.7-1151.6-865.7-1153.4-867.5-1154.3"
		/>
	<path class="st6" d="M-919.2-1115.2c-0.6,0-1.3-0.1-1.9-0.4l-32.8-13.7v14.9c0,1.9,1.1,3.6,2.7,4.4c8.5,4.3,17.3,9.5,31.9,9.5
		c14.7,0,23.5-5.3,31.9-9.5c1.7-0.8,2.7-2.6,2.7-4.4v-13.9l-32.9,12.7C-918-1115.3-918.6-1115.2-919.2-1115.2"/>
	<path class="st6" d="M-968.8-1110.2c-2.7,0-5,2.2-5,5v9.9c0,2.7,2.2,5,5,5s5-2.2,5-5v-9.9C-963.8-1108-966.1-1110.2-968.8-1110.2"
		/>
	<rect x="-828.6" y="-1250.7" class="st5" width="81.6" height="103.6"/>
	<path class="st6" d="M-746.9-1179.5c0-4.6-1.8-9-5.1-12.2c-3.2-3.2-7.6-5.1-12.2-5.1h-2.2v-2.2c0-1.1-0.5-2.2-1.3-3.1
		c-0.8-0.8-1.9-1.3-3.1-1.3h-51.8c-1.1,0-2.2,0.5-3.1,1.3c-0.8,0.8-1.3,1.9-1.3,3.1v41c0,1.4,0.3,2.8,0.8,4.1
		c0.5,1.3,1.3,2.5,2.3,3.5c1,1,2.2,1.8,3.5,2.3c1.3,0.5,2.7,0.8,4.1,0.8h38.8c1.4,0,2.8-0.3,4.1-0.8c1.3-0.5,2.5-1.3,3.5-2.3
		c1-1,1.8-2.2,2.3-3.5c0.5-1.3,0.8-2.7,0.8-4.1v-4.3h2.2c4.6,0,9-1.8,12.2-5.1C-748.7-1170.5-746.9-1174.9-746.9-1179.5z
		 M-764.2-1170.8h-1.1c-0.1,0-0.3,0-0.4-0.1c-0.1-0.1-0.3-0.1-0.4-0.2c-0.1-0.1-0.2-0.2-0.2-0.4s-0.1-0.3-0.1-0.4v-15.1
		c0-0.3,0.1-0.6,0.3-0.8c0.2-0.2,0.5-0.3,0.8-0.3h1.1c2.3,0,4.5,0.9,6.1,2.5c1.6,1.6,2.5,3.8,2.5,6.1s-0.9,4.5-2.5,6.1
		C-759.7-1171.8-761.9-1170.8-764.2-1170.8z"/>
	<path class="st6" d="M-815.1-1238.4c0.2-0.1,0.3-0.2,0.4-0.4c0.1-0.2,0.2-0.3,0.2-0.5c0-0.2,0-0.4-0.1-0.5
		c-0.1-0.2-0.2-0.3-0.4-0.4l-10.2-6.6c-0.4-0.2-0.8-0.3-1.2-0.3c-0.4,0-0.8,0.1-1.2,0.4c-0.3,0.2-0.6,0.6-0.8,0.9
		c-0.2,0.4-0.2,0.8-0.1,1.2l1.8,10.9c0,0.2,0.1,0.3,0.2,0.5c0.1,0.1,0.2,0.2,0.4,0.3c0.2,0.1,0.3,0.1,0.5,0.1c0.2,0,0.3,0,0.5-0.1
		L-815.1-1238.4z"/>
	<path class="st6" d="M-823.8-1228.7c-0.2,0.1-0.4,0.4-0.5,0.6c-0.1,0.3-0.1,0.6,0.1,0.8l9.6,18.6c0.2,0.4,0.5,0.6,0.8,0.9
		s0.7,0.3,1.1,0.3h12.9c0.4,0,0.7-0.1,1.1-0.3c0.3-0.2,0.6-0.5,0.8-0.8c0.2-0.3,0.3-0.7,0.3-1.1c0-0.4-0.1-0.7-0.3-1.1l-13.1-23.8
		c-0.1-0.3-0.4-0.4-0.6-0.5c-0.3-0.1-0.6,0-0.8,0.1L-823.8-1228.7z"/>
	<path class="st6" d="M-781.1-1219.2L-781.1-1219.2c-1-0.4-1.9-0.9-2.8-1.5c-0.1-0.1-0.3-0.1-0.4-0.2c-0.1,0-0.3,0-0.4,0
		c-0.1,0-0.3,0.1-0.4,0.2c-0.1,0.1-0.2,0.2-0.3,0.3l-5.4,9.6c-0.2,0.3-0.3,0.7-0.3,1.1c0,0.4,0.1,0.7,0.3,1.1
		c0.2,0.3,0.5,0.6,0.8,0.8c0.3,0.2,0.7,0.3,1.1,0.3h7.9c0.4,0,0.9-0.1,1.2-0.4c0.4-0.2,0.6-0.6,0.8-1l2.9-7.7
		c0.1-0.2,0.1-0.3,0.1-0.5c0-0.2-0.1-0.3-0.1-0.5c-0.1-0.1-0.2-0.3-0.3-0.3c-0.1-0.1-0.3-0.1-0.5-0.2c-1-0.1-2-0.4-2.9-0.7
		C-780.3-1218.9-780.7-1219.1-781.1-1219.2z"/>
	<path class="st6" d="M-766.1-1238.6c-0.7-3-2.1-5.7-4.3-7.8c-2.2-2.1-4.9-3.6-7.8-4.3c-0.4-0.1-0.9-0.1-1.3,0.1
		c-0.4,0.2-0.8,0.4-1,0.8c-0.2,0.4-0.4,0.8-0.4,1.2c0,0.4,0.1,0.9,0.4,1.2c2.3,3.5,0.9,5.5-1.5,8.6c-0.9,1.1-1.7,2.3-2.3,3.5
		c-0.5,1.1-0.8,2.3-0.8,3.5c0,1.2,0.2,2.4,0.7,3.6c0.5,1.1,1.2,2.2,2.1,3c0.9,0.8,1.9,1.5,3.1,1.9c1.5,0.8,3.3,1.1,5,0.9
		c1.7-0.2,3.4-0.9,4.7-2c1.8-1.8,3.1-4.1,3.8-6.6C-765.3-1233.5-765.4-1236.1-766.1-1238.6L-766.1-1238.6z"/>
	<rect x="-705.6" y="-1175.2" class="st5" width="80.7" height="85.3"/>
	<path class="st6" d="M-628.2-1168.2c-1.6-1.6-3.8-2.7-6.1-3.1c-2.3-0.4-4.6,0-6.7,1.1c-0.1-0.2-1.2-1.4-1.6-1.8
		c-2-2-4.8-3.2-7.7-3.2c-2.9,0-5.7,1.1-7.7,3.2l-19.4,19.4c-0.7,0.7-1,1.6-1,2.5c0,0.9,0.4,1.8,1,2.5c0.7,0.7,1.6,1,2.5,1
		c0.9,0,1.8-0.4,2.5-1l19.4-19.4c0.7-0.7,1.7-1.1,2.7-1.1c1,0,2,0.4,2.7,1.1l1.3,1.3l-7.9,7.9c-0.3,0.3-0.5,0.8-0.5,1.3
		s0.2,1,0.5,1.3l13,13c0.3,0.3,0.8,0.5,1.3,0.5c0.5,0,1-0.2,1.3-0.5l10.4-10.4c2.1-2.1,3.2-4.9,3.2-7.8
		C-624.9-1163.3-626.1-1166.1-628.2-1168.2L-628.2-1168.2z"/>
	<path class="st6" d="M-658.1-1151.3c-0.3-0.3-0.8-0.5-1.3-0.5c-0.5,0-1,0.2-1.3,0.5l-29.2,29.3c-0.5,0.5-0.9,1.1-1.2,1.8
		c-0.3,0.7-0.4,1.4-0.4,2.1s0.1,1.4,0.4,2.1c0.3,0.7,0.7,1.3,1.2,1.8l7.8,7.8c0.5,0.5,1.1,0.9,1.8,1.2c0.7,0.3,1.4,0.4,2.1,0.4
		c0.7,0,1.4-0.1,2.1-0.4c0.7-0.3,1.3-0.7,1.8-1.2l29.2-29.2c0.3-0.3,0.5-0.8,0.5-1.3s-0.2-1-0.5-1.3L-658.1-1151.3z"/>
	<path class="st6" d="M-695.7-1112.1c-0.2-0.2-0.5-0.4-0.8-0.4c-0.3-0.1-0.6-0.1-0.9,0c-0.3,0.1-0.6,0.2-0.8,0.4
		c-0.2,0.2-0.4,0.4-0.5,0.7l-6.9,19.1c-0.1,0.3-0.1,0.7-0.1,1c0.1,0.3,0.2,0.6,0.5,0.9c0.2,0.2,0.5,0.4,0.9,0.5
		c0.3,0.1,0.7,0.1,1-0.1l19.1-6.9c0.3-0.1,0.5-0.3,0.7-0.5c0.2-0.2,0.3-0.5,0.4-0.8c0.1-0.3,0.1-0.6,0-0.9c-0.1-0.3-0.2-0.6-0.4-0.8
		L-695.7-1112.1z"/>
	
		<rect x="-831" y="-1386.2" transform="matrix(-0.7071 -0.7071 0.7071 -0.7071 -411.4653 -2837.8821)" class="st5" width="75.1" height="105"/>
	<path class="st6" d="M-850.1-1316l17.7-3.5l-14.2-14.2L-850.1-1316z"/>
	<path class="st6" d="M-843-1337.3l14.2,14.2l35.4-35.4l-14.2-14.2L-843-1337.3z"/>
	<path class="st6" d="M-786.4-1379.7c-3.9-3.9-10.5-3.7-14.7,0.5l-3,3l14.2,14.2l3-3C-782.7-1369.2-782.5-1375.8-786.4-1379.7"/>
	<path class="st6" d="M-758.1-1372.6l-7.1,7.1l10.6,10.6l-7.1,7.1l-10.6-10.6l-10.6,10.6l10.6,10.6l-7.1,7.1l-10.6-10.6l-10.6,10.6
		l10.6,10.6l-7.1,7.1l-10.6-10.6l-10.6,10.6l10.6,10.6l-7.1,7.1l-10.6-10.6l-7.1,7.1l28.3,28.3l74.3-74.3L-758.1-1372.6z"/>
</g>
<rect x="-255.5" y="-422.7" class="st8" width="2560" height="1440"/>
</svg>
