<svg width="25" height="24" viewBox="0 0 25 24" fill="none" xmlns="http://www.w3.org/2000/svg">
<path fill-rule="evenodd" clip-rule="evenodd" d="M14.1413 12.9844L14.7256 12.524C15.7988 11.6785 16.4815 10.3843 16.4815 8.93226C16.4815 6.39171 14.386 4.33219 11.8011 4.33219C9.21618 4.33219 7.12068 6.39171 7.12068 8.93226C7.12068 10.3843 7.80337 11.6785 8.87658 12.524L9.46089 12.9844V15.8324C9.46089 16.6792 10.1594 17.3657 11.021 17.3657H12.5812C13.4428 17.3657 14.1413 16.6792 14.1413 15.8324V12.9844ZM15.7014 13.7204V15.8324C15.7014 17.5261 14.3045 18.8991 12.5812 18.8991H11.021C9.29773 18.8991 7.90075 17.5261 7.90075 15.8324V13.7204C6.47407 12.5964 5.56055 10.8692 5.56055 8.93226C5.56055 5.54486 8.35454 2.79883 11.8011 2.79883C15.2477 2.79883 18.0417 5.54486 18.0417 8.93226C18.0417 10.8692 17.1281 12.5964 15.7014 13.7204Z" fill="white"/>
<rect x="8.68164" y="19.666" width="6.24055" height="1.53336" rx="0.766679" fill="white"/>
</svg>
