<svg width="93" height="91" viewBox="0 0 93 91" fill="none" xmlns="http://www.w3.org/2000/svg">
<path fill-rule="evenodd" clip-rule="evenodd" d="M54.1934 48.7721L56.4294 47.0104C60.5362 43.7747 63.1487 38.8221 63.1487 33.2657C63.1487 23.5438 55.1298 15.6626 45.2381 15.6626C35.3464 15.6626 27.3276 23.5438 27.3276 33.2657C27.3276 38.8221 29.94 43.7747 34.0469 47.0104L36.2829 48.7721V59.6703C36.2829 62.911 38.9558 65.538 42.253 65.538H48.2232C51.5205 65.538 54.1934 62.911 54.1934 59.6703V48.7721ZM60.1636 51.5886V59.6703C60.1636 66.1516 54.8178 71.4057 48.2232 71.4057H42.253C35.6585 71.4057 30.3127 66.1516 30.3127 59.6703V51.5886C24.8532 47.2873 21.3574 40.6777 21.3574 33.2657C21.3574 20.3032 32.0492 9.79492 45.2381 9.79492C58.4271 9.79492 69.1189 20.3032 69.1189 33.2657C69.1189 40.6777 65.6231 47.2873 60.1636 51.5886Z" fill="#DFEDFF"/>
<rect x="33.2969" y="74.3418" width="23.8807" height="5.8677" rx="2.93385" fill="#DFEDFF"/>
</svg>
