<svg width="85" height="85" viewBox="0 0 85 85" fill="none" xmlns="http://www.w3.org/2000/svg">
<path fill-rule="evenodd" clip-rule="evenodd" d="M42.2812 0C18.9297 0 0 18.9355 0 42.2949C0 65.6543 18.9297 84.5898 42.2812 84.5898C65.6328 84.5898 84.5586 65.6543 84.5586 42.2949C84.5586 18.9355 65.6328 0 42.2812 0ZM32.9844 19.875C35.3906 19.7656 36.1562 19.7383 42.2812 19.7383C48.4023 19.7383 49.168 19.7656 51.5703 19.875C53.9727 19.9844 55.6133 20.3652 57.0508 20.9219C58.5352 21.498 59.7891 22.2695 61.043 23.5234C62.2969 24.7773 63.0664 26.0352 63.6445 27.5195C64.1992 28.9531 64.582 30.5938 64.6914 32.9941C64.8008 35.4004 64.8281 36.1699 64.8281 42.2949C64.8281 48.4219 64.8008 49.1895 64.6914 51.5957C64.582 53.9961 64.1992 55.6348 63.6445 57.0703C63.0664 58.5527 62.2969 59.8125 61.043 61.0664C59.7891 62.3203 58.5352 63.0938 57.0508 63.6699C55.6172 64.2266 53.9766 64.6074 51.5742 64.7168C49.1719 64.8262 48.4023 64.8535 42.2773 64.8535C36.1562 64.8535 35.3867 64.8262 32.9805 64.7168C30.582 64.6074 28.9414 64.2266 27.5078 63.6699C26.0273 63.0938 24.7695 62.3203 23.5156 61.0664C22.2617 59.8125 21.4922 58.5527 20.9141 57.0703C20.3555 55.6348 19.9766 53.9961 19.8672 51.5957C19.7578 49.1895 19.7305 48.4219 19.7305 42.2949C19.7305 36.1699 19.7578 35.4004 19.8672 32.9941C19.9727 30.5938 20.3555 28.9531 20.9141 27.5195C21.4922 26.0352 22.2617 24.7773 23.5156 23.5234C24.7695 22.2695 26.0273 21.498 27.5117 20.9219C28.9453 20.3652 30.582 19.9844 32.9844 19.875Z" transform="translate(0 0.410156)" fill="#FFFFFF"/>
<path fill-rule="evenodd" clip-rule="evenodd" d="M16.4648 9.05639e-05H18.4844C24.5078 9.05639e-05 25.2188 0.0215749 27.5977 0.128997C29.7969 0.230559 30.9883 0.597747 31.7852 0.906341C32.8359 1.31454 33.5859 1.80478 34.375 2.59384C35.1641 3.3829 35.6523 4.13486 36.0625 5.18759C36.3711 5.98251 36.7383 7.17587 36.8398 9.37509C36.9492 11.752 36.9727 12.4669 36.9727 18.4864C36.9727 24.5079 36.9492 25.2208 36.8398 27.5997C36.7383 29.7989 36.3711 30.9923 36.0625 31.7872C35.6562 32.8399 35.1641 33.5899 34.375 34.379C33.5859 35.1681 32.8359 35.6563 31.7852 36.0645C30.9922 36.3751 29.7969 36.7423 27.5977 36.8419C25.2227 36.9513 24.5078 36.9747 18.4844 36.9747C12.4648 36.9747 11.75 36.9513 9.375 36.8419C7.17578 36.7403 5.98047 36.3731 5.1875 36.0645C4.13281 35.6563 3.38281 35.1681 2.59375 34.377C1.80469 33.588 1.31641 32.838 0.90625 31.7852C0.597656 30.9903 0.230469 29.797 0.128906 27.5977C0.0234375 25.2188 0 24.5059 0 18.4825C0 12.4571 0.0234375 11.7481 0.128906 9.36923C0.230469 7.17001 0.597656 5.97665 0.90625 5.18173C1.31641 4.129 1.80469 3.37704 2.59375 2.58603C3.38281 1.79697 4.13281 1.30868 5.1875 0.898528C5.98047 0.587981 7.17578 0.222747 9.375 0.121184C11.4531 0.0274343 12.2617 -0.00186256 16.4648 9.05639e-05ZM30.5234 3.74423C29.0273 3.74423 27.8164 4.95712 27.8164 6.45126C27.8164 7.9454 29.0273 9.15829 30.5234 9.15829C32.0156 9.15829 33.2266 7.9454 33.2266 6.45126C33.2266 4.95712 32.0156 3.74423 30.5234 3.74423ZM6.90625 18.4923C6.90625 12.0958 12.0898 6.90829 18.4883 6.90829C24.8828 6.90829 30.0664 12.0958 30.0664 18.4923C30.0664 24.8907 24.8828 30.0743 18.4883 30.0743C12.0898 30.0743 6.90625 24.8907 6.90625 18.4923Z" transform="translate(23.793 24.2129)" fill="#FFFFFF"/>
<path fill-rule="evenodd" clip-rule="evenodd" d="M7.51656 0C11.6676 0 15.0331 3.36625 15.0331 7.5192C15.0331 11.6717 11.6676 15.0384 7.51656 15.0384C3.36507 15.0384 0 11.6717 0 7.5192C0 3.36625 3.36507 0 7.51656 0V0Z" transform="translate(34.7656 35.1855)" fill="#FFFFFF"/>
</svg>
