<svg width="180" height="46" viewBox="0 0 180 46" fill="none" xmlns="http://www.w3.org/2000/svg">
<path fill-rule="evenodd" clip-rule="evenodd" d="M19.4753 0.00283012C19.4754 0.00283104 19.4754 0.00287333 19.4754 0.00292753C19.4754 0.00298107 19.4755 0.00302311 19.4755 0.00302489C21.7852 0.079621 23.871 1.61614 25.388 4.06001C25.6228 4.43828 25.7402 4.62741 25.6971 4.83575C25.6541 5.04409 25.4539 5.18319 25.0537 5.46137C19.5864 9.26135 16.0001 15.6388 16.0001 22.8651C16.0001 30.0602 19.5555 36.4137 24.9829 40.2195C25.3752 40.4945 25.5713 40.6321 25.615 40.8371C25.6587 41.0421 25.5461 41.2301 25.3211 41.6059C23.7961 44.1526 21.6662 45.7621 19.3014 45.8411C19.3006 45.8412 19.3 45.8418 19.2999 45.8426C19.2999 45.8435 19.2992 45.8441 19.2983 45.8441C19.2649 45.8443 19.2315 45.8444 19.198 45.8444C8.59526 45.8444 0 35.5819 0 22.9225C0 10.263 8.59526 0.000488281 19.198 0.000488281C19.2906 0.000488281 19.383 0.00127064 19.4753 0.00283012Z" fill="white"/>
<path fill-rule="evenodd" clip-rule="evenodd" d="M28.6028 35.6294C28.9 33.6903 30.4589 32.0906 32.4206 32.0906L35.0745 32.0906L42.4996 32.0906C44.5041 32.0906 46.1635 33.781 45.5551 35.6909C43.5621 41.948 36.9632 45.8438 29.5463 45.8438L21.1186 45.8438C21.1178 45.8438 21.1171 45.8431 21.1172 45.8422C21.1172 45.8415 21.1178 45.8409 21.1186 45.8409C24.7108 45.7108 27.715 41.421 28.6028 35.6294Z" fill="white"/>
<path fill-rule="evenodd" clip-rule="evenodd" d="M28.7627 10.2144C29.06 12.1534 30.6189 13.7532 32.5806 13.7532L35.2346 13.7532L42.6597 13.7532C44.6642 13.7532 46.3236 12.0628 45.7153 10.1529C43.7223 3.89578 37.1233 3.04625e-06 29.7064 1.62041e-06L21.2789 2.93437e-10C21.278 1.24047e-10 21.2773 0.000743984 21.2773 0.00162334C21.2774 0.00240598 21.278 0.00302366 21.2788 0.00305209C24.8709 0.133369 27.8749 4.42301 28.7627 10.2144Z" fill="white"/>
<path d="M81.4569 35.7579C79.0936 35.7579 76.9554 35.2402 75.0423 34.2049C73.1516 33.147 71.6661 31.7065 70.5858 29.8834C69.5054 28.0378 68.9653 25.9672 68.9653 23.6714C68.9653 21.3757 69.5054 19.3162 70.5858 17.4931C71.6661 15.6475 73.1629 14.207 75.076 13.1717C76.9891 12.1139 79.1274 11.5849 81.4906 11.5849C83.3362 11.5849 85.0243 11.9 86.5548 12.5302C88.0853 13.1379 89.3907 14.0495 90.4711 15.2649L88.2766 17.3918C86.4985 15.5237 84.2815 14.5897 81.6257 14.5897C79.8701 14.5897 78.2833 14.9835 76.8654 15.7713C75.4474 16.5591 74.3333 17.6507 73.523 19.0461C72.7352 20.4191 72.3414 21.9608 72.3414 23.6714C72.3414 25.382 72.7352 26.935 73.523 28.3304C74.3333 29.7034 75.4474 30.7837 76.8654 31.5715C78.2833 32.3593 79.8701 32.7531 81.6257 32.7531C84.259 32.7531 86.476 31.8078 88.2766 29.9172L90.4711 32.0442C89.3907 33.2596 88.074 34.1824 86.521 34.8126C84.9905 35.4428 83.3025 35.7579 81.4569 35.7579ZM101.72 35.6904C99.942 35.6904 98.344 35.2965 96.926 34.5087C95.5081 33.721 94.394 32.6406 93.5837 31.2677C92.7959 29.8722 92.4021 28.2967 92.4021 26.5411C92.4021 24.7855 92.7959 23.2213 93.5837 21.8483C94.394 20.4528 95.5081 19.3725 96.926 18.6072C98.344 17.8195 99.942 17.4256 101.72 17.4256C103.498 17.4256 105.085 17.8195 106.48 18.6072C107.898 19.3725 109.001 20.4528 109.789 21.8483C110.599 23.2213 111.004 24.7855 111.004 26.5411C111.004 28.2967 110.599 29.8722 109.789 31.2677C109.001 32.6406 107.898 33.721 106.48 34.5087C105.085 35.2965 103.498 35.6904 101.72 35.6904ZM101.72 32.8544C102.868 32.8544 103.892 32.5956 104.792 32.0779C105.715 31.5377 106.435 30.795 106.953 29.8497C107.471 28.8819 107.73 27.779 107.73 26.5411C107.73 25.3032 107.471 24.2116 106.953 23.2663C106.435 22.2985 105.715 21.5557 104.792 21.038C103.892 20.5204 102.868 20.2615 101.72 20.2615C100.572 20.2615 99.5369 20.5204 98.6141 21.038C97.7138 21.5557 96.9936 22.2985 96.4534 23.2663C95.9357 24.2116 95.6769 25.3032 95.6769 26.5411C95.6769 27.779 95.9357 28.8819 96.4534 29.8497C96.9936 30.795 97.7138 31.5377 98.6141 32.0779C99.5369 32.5956 100.572 32.8544 101.72 32.8544ZM132.604 17.5944V33.057C132.604 36.1855 131.827 38.4925 130.274 39.978C128.721 41.486 126.403 42.24 123.319 42.24C121.631 42.24 120.022 42.0037 118.491 41.531C116.961 41.0809 115.723 40.4282 114.778 39.5729L116.331 37.0746C117.164 37.7948 118.188 38.3575 119.403 38.7626C120.641 39.1903 121.913 39.4041 123.218 39.4041C125.311 39.4041 126.853 38.9089 127.843 37.9186C128.856 36.9283 129.363 35.4203 129.363 33.3946V31.9766C128.597 32.8994 127.652 33.5972 126.527 34.0698C125.424 34.52 124.22 34.745 122.914 34.745C121.204 34.745 119.651 34.3849 118.255 33.6647C116.882 32.9219 115.802 31.8979 115.014 30.5924C114.226 29.2645 113.832 27.7565 113.832 26.0684C113.832 24.3804 114.226 22.8836 115.014 21.5782C115.802 20.2503 116.882 19.2262 118.255 18.506C119.651 17.7857 121.204 17.4256 122.914 17.4256C124.265 17.4256 125.514 17.6732 126.662 18.1683C127.832 18.6635 128.789 19.395 129.531 20.3628V17.5944H132.604ZM123.286 31.9091C124.456 31.9091 125.503 31.6615 126.425 31.1664C127.371 30.6712 128.102 29.9847 128.62 29.1069C129.16 28.2066 129.43 27.1938 129.43 26.0684C129.43 24.3354 128.856 22.9399 127.708 21.8821C126.56 20.8017 125.086 20.2615 123.286 20.2615C121.462 20.2615 119.977 20.8017 118.829 21.8821C117.681 22.9399 117.107 24.3354 117.107 26.0684C117.107 27.1938 117.366 28.2066 117.884 29.1069C118.424 29.9847 119.155 30.6712 120.078 31.1664C121.024 31.6615 122.093 31.9091 123.286 31.9091ZM138.796 17.5944H142.037V35.4878H138.796V17.5944ZM140.417 14.1508C139.787 14.1508 139.258 13.9482 138.83 13.5431C138.425 13.1379 138.222 12.6428 138.222 12.0576C138.222 11.4724 138.425 10.9772 138.83 10.5721C139.258 10.1445 139.787 9.93064 140.417 9.93064C141.047 9.93064 141.565 10.1332 141.97 10.5383C142.398 10.921 142.611 11.4049 142.611 11.9901C142.611 12.5978 142.398 13.1154 141.97 13.5431C141.565 13.9482 141.047 14.1508 140.417 14.1508ZM158.287 34.4412C157.814 34.8463 157.229 35.1614 156.531 35.3865C155.833 35.5891 155.113 35.6904 154.37 35.6904C152.57 35.6904 151.174 35.2065 150.184 34.2386C149.194 33.2708 148.698 31.8866 148.698 30.086V20.2615H145.66V17.5944H148.698V13.6781H151.94V17.5944H157.071V20.2615H151.94V29.951C151.94 30.9188 152.176 31.6615 152.648 32.1792C153.144 32.6969 153.841 32.9557 154.742 32.9557C155.732 32.9557 156.576 32.6744 157.274 32.1117L158.287 34.4412ZM169.275 35.6904C167.497 35.6904 165.899 35.2965 164.481 34.5087C163.063 33.721 161.949 32.6406 161.139 31.2677C160.351 29.8722 159.957 28.2967 159.957 26.5411C159.957 24.7855 160.351 23.2213 161.139 21.8483C161.949 20.4528 163.063 19.3725 164.481 18.6072C165.899 17.8195 167.497 17.4256 169.275 17.4256C171.053 17.4256 172.64 17.8195 174.036 18.6072C175.454 19.3725 176.556 20.4528 177.344 21.8483C178.154 23.2213 178.56 24.7855 178.56 26.5411C178.56 28.2967 178.154 29.8722 177.344 31.2677C176.556 32.6406 175.454 33.721 174.036 34.5087C172.64 35.2965 171.053 35.6904 169.275 35.6904ZM169.275 32.8544C170.423 32.8544 171.447 32.5956 172.348 32.0779C173.27 31.5377 173.991 30.795 174.508 29.8497C175.026 28.8819 175.285 27.779 175.285 26.5411C175.285 25.3032 175.026 24.2116 174.508 23.2663C173.991 22.2985 173.27 21.5557 172.348 21.038C171.447 20.5204 170.423 20.2615 169.275 20.2615C168.127 20.2615 167.092 20.5204 166.169 21.038C165.269 21.5557 164.549 22.2985 164.009 23.2663C163.491 24.2116 163.232 25.3032 163.232 26.5411C163.232 27.779 163.491 28.8819 164.009 29.8497C164.549 30.795 165.269 31.5377 166.169 32.0779C167.092 32.5956 168.127 32.8544 169.275 32.8544Z" fill="white"/>
</svg>
