<svg width="1222" height="616" viewBox="0 0 1222 616" fill="none" xmlns="http://www.w3.org/2000/svg">
<path d="M30.6443 1.96638C29.7863 1.11365 28.7153 0.506618 27.5429 0.20855C26.3705 -0.0895186 25.1396 -0.0677249 23.9785 0.271662C22.8174 0.611049 21.7685 1.25563 20.9412 2.1382C20.1139 3.02078 19.5384 4.10906 19.2747 5.28967L0.159621 91.2897C-0.085729 92.399 -0.0477302 93.5522 0.270111 94.6429C0.587952 95.7337 1.1754 96.7268 1.97824 97.5307C2.78811 98.3246 3.78162 98.906 4.87041 99.2233C5.9592 99.5406 7.10953 99.5839 8.21909 99.3493L94.2042 80.2469C95.3863 79.9828 96.4759 79.4062 97.359 78.5772C98.2421 77.7482 98.8865 76.6972 99.2247 75.5341C99.5629 74.371 99.5826 73.1385 99.2818 71.9651C98.9809 70.7918 98.3705 69.7208 97.5144 68.864L30.6443 1.96638Z" transform="translate(314 214.502) scale(-1 1)" fill="#4787D3" fill-opacity="0.35"/>
<path d="M149.085 0.990692L0.978837 149.1C0.351608 149.736 0 150.594 0 151.487C0 152.381 0.351608 153.239 0.978837 153.875L24.8694 177.779C26.1526 179.019 27.8671 179.712 29.6514 179.712C31.4358 179.712 33.1503 179.019 34.4335 177.779L177.751 34.4329C178.38 33.8069 178.879 33.0627 179.219 32.2431C179.56 31.4236 179.735 30.5448 179.735 29.6573C179.735 28.7699 179.56 27.8911 179.219 27.0716C178.879 26.252 178.38 25.5079 177.751 24.8818L153.873 0.990692C153.238 0.356311 152.377 0 151.479 0C150.581 0 149.72 0.356311 149.085 0.990692Z" transform="translate(227.016 91.2559) scale(-1 1)" fill="#4787D3" fill-opacity="0.35"/>
<path d="M178.756 25.8648L154.866 1.97373C153.598 0.70976 151.881 0 150.09 0C148.3 0 146.583 0.70976 145.315 1.97373L1.98454 145.307C1.35556 145.933 0.85645 146.677 0.515883 147.497C0.175317 148.316 0 149.195 0 150.083C0 150.97 0.175317 151.849 0.515883 152.668C0.85645 153.488 1.35556 154.232 1.98454 154.858L25.8751 178.749C26.5116 179.377 27.3693 179.728 28.2629 179.728C29.1564 179.728 30.0142 179.377 30.6506 178.749L178.756 30.6404C179.07 30.3269 179.319 29.9547 179.489 29.545C179.659 29.1352 179.746 28.6961 179.746 28.2526C179.746 27.8091 179.659 27.3699 179.489 26.9602C179.319 26.5505 179.07 26.1783 178.756 25.8648Z" transform="translate(271.02 47.2754) scale(-1 1)" fill="#4787D3" fill-opacity="0.35"/>
<path d="M87.9861 15.8094C77.8412 5.68566 64.0945 0 49.7625 0C35.4305 0 21.6839 5.68566 11.5389 15.8094L1.97483 25.3606C0.710086 26.6308 0 28.3502 0 30.1427C0 31.9352 0.710086 33.6547 1.97483 34.9249L68.871 101.796C70.1597 103.02 71.8692 103.703 73.6465 103.703C75.4239 103.703 77.1334 103.02 78.4221 101.796L87.9861 92.2451C98.1089 82.1022 103.794 68.3574 103.794 54.0272C103.794 39.6971 98.1089 25.9523 87.9861 15.8094Z" transform="translate(103.793) scale(-1 1)" fill="#4787D3" fill-opacity="0.35"/>
<path d="M874.312 0H74.4722C54.721 0 35.7787 7.84908 21.8124 21.8205C7.84616 35.7919 0 54.7413 0 74.4998C0 94.2584 7.84616 113.208 21.8124 127.179C35.7787 141.151 54.721 149 74.4722 149L1096.53 149C1116.28 149 1135.22 156.849 1149.19 170.821C1163.15 184.792 1171 203.742 1171 223.5C1171 243.259 1163.15 262.208 1149.19 276.18C1135.22 290.151 1116.28 298 1096.53 298H435.726" transform="translate(1217 313) scale(-1 1)" stroke="#4787D3" stroke-opacity="0.35" stroke-width="10" stroke-linecap="round" stroke-linejoin="round"/>
</svg>
