<svg width="83" height="39" viewBox="0 0 83 39" fill="none" xmlns="http://www.w3.org/2000/svg">
<path fill-rule="evenodd" clip-rule="evenodd" d="M16.5756 0.00247757C16.5757 0.00247859 16.5757 0.00252555 16.5757 0.0025858C16.5757 0.00264533 16.5758 0.00269202 16.5758 0.00269399C18.5389 0.0677645 20.3119 1.37133 21.6026 3.44527C21.8051 3.77061 21.9063 3.93328 21.8694 4.11278C21.8324 4.29227 21.66 4.41218 21.3152 4.652C16.6667 7.88536 13.618 13.3078 13.618 19.4515C13.618 25.5688 16.6405 30.9709 21.2552 34.2091C21.5931 34.4463 21.762 34.5648 21.7995 34.7415C21.837 34.9181 21.74 35.0798 21.5459 35.4031C20.2483 37.5645 18.4376 38.9301 16.4275 38.9972C16.4269 38.9972 16.4263 38.9977 16.4263 38.9984C16.4262 38.9991 16.4268 38.9998 16.4276 38.9998H16.4431C16.4087 39 16.3742 39.0002 16.3398 39.0002C7.31557 39.0002 0 30.2698 0 19.5003C0 8.73086 7.31557 0.000488281 16.3398 0.000488281C16.4185 0.000488281 16.4971 0.00115286 16.5756 0.00247757Z" fill="#FBFBFB"/>
<path fill-rule="evenodd" clip-rule="evenodd" d="M24.3383 30.3463C24.5975 28.6774 25.9392 27.2999 27.628 27.2999L29.852 27.2999L36.1357 27.2999C37.8614 27.2999 39.2905 28.7557 38.7609 30.3981C37.051 35.7003 31.4455 38.9998 25.1468 38.9998L17.974 38.9998C17.9733 38.9998 17.9727 38.9991 17.9727 38.9984C17.9728 38.9977 17.9733 38.9972 17.974 38.9972C21.0239 38.8867 23.5757 35.2549 24.3383 30.3463Z" fill="#FBFBFB"/>
<path fill-rule="evenodd" clip-rule="evenodd" d="M25.2844 1.39471e-06L18.1115 1.094e-06C18.1108 1.09397e-06 18.1102 0.000632191 18.1102 0.0013781C18.1103 0.00204199 18.1108 0.00256592 18.1115 0.00258998C21.1614 0.112992 23.7133 3.7448 24.4759 8.6535C24.7351 10.3223 26.0768 11.6999 27.7656 11.6999L29.9895 11.6999L36.2733 11.6999C37.9989 11.6999 39.4281 10.2441 38.8984 8.60168C37.1886 3.29945 31.583 2.6192e-06 25.2844 1.39471e-06Z" fill="#FBFBFB"/>
<path fill-rule="evenodd" clip-rule="evenodd" d="M52.25 25C51.0074 25 50 26.0074 50 27.25V36.25C50 37.4926 51.0074 38.5 52.25 38.5H80.75C81.9926 38.5 83 37.4926 83 36.25V27.25C83 26.0074 81.9926 25 80.75 25H52.25ZM56.0718 28.6016V35H58.5591C59.2856 34.9941 59.8452 34.833 60.2378 34.5166C60.6304 34.2002 60.8267 33.7344 60.8267 33.1191C60.8267 32.7588 60.7314 32.4541 60.541 32.2051C60.3535 31.9561 60.0957 31.7905 59.7676 31.7085C60.0547 31.5972 60.2788 31.4229 60.4399 31.1855C60.6011 30.9453 60.6816 30.6685 60.6816 30.355C60.6816 29.7808 60.481 29.3457 60.0796 29.0498C59.6782 28.751 59.0894 28.6016 58.313 28.6016H56.0718ZM57.3901 33.9409V32.2139H58.5986C59.2051 32.2227 59.5083 32.52 59.5083 33.106C59.5083 33.3667 59.4204 33.5718 59.2446 33.7212C59.0718 33.8677 58.8301 33.9409 58.5195 33.9409H57.3901ZM58.3657 31.2822H57.3901V29.6694H58.313C58.6763 29.6694 58.9414 29.7339 59.1084 29.8628C59.2783 29.9888 59.3633 30.1968 59.3633 30.4868C59.3633 31.0054 59.0308 31.2705 58.3657 31.2822ZM63.1382 32.2271H65.6694V31.1943H63.1382V29.6694H66.1001V28.6016H61.8198V35H66.1089V33.9409H63.1382V32.2271ZM69.8267 29.6694H71.7866V28.6016H66.5747V29.6694H68.5083V35H69.8267V29.6694ZM73.3159 33.6816H75.6274L76.0713 35H77.4731L75.0781 28.6016H73.8564L71.4746 35H72.8765L73.3159 33.6816ZM75.2715 32.6138H73.6719L74.4673 30.2188L75.2715 32.6138Z" fill="white"/>
</svg>
