<?xml version="1.0" encoding="utf-8"?>
<!-- Generator: Adobe Illustrator 19.0.0, SVG Export Plug-In . SVG Version: 6.00 Build 0)  -->
<svg version="1.1" id="Layer_1" xmlns="http://www.w3.org/2000/svg" xmlns:xlink="http://www.w3.org/1999/xlink" x="0px" y="0px"
	 viewBox="490 258.3 177.8 78.9" style="enable-background:new 490 258.3 177.8 78.9;" xml:space="preserve">
<style type="text/css">
	.st0{fill:#FFFFFF;}
</style>
<g>
	<polygon class="st0" points="639.3,315.7 638.2,315.7 638.2,308.2 629,308.2 629,315.7 627.9,315.7 627.9,300.7 629,300.7 
		629,307.1 638.2,307.1 638.2,300.7 639.3,300.7 	"/>
	<path class="st0" d="M618.9,303.7c0-0.7-0.2-1.2-0.6-1.6c-0.4-0.4-1-0.5-1.6-0.5c-0.4,0-0.7,0.1-1,0.2s-0.5,0.3-0.7,0.5
		s-0.3,0.4-0.4,0.7c-0.1,0.3-0.1,0.5-0.1,0.8c0,0.2,0.1,0.5,0.2,0.7c0.1,0.2,0.3,0.5,0.5,0.7s0.4,0.5,0.6,0.7
		c0.2,0.2,0.4,0.5,0.7,0.7c0.4-0.2,0.7-0.4,1-0.6s0.6-0.4,0.8-0.6s0.4-0.5,0.5-0.7C618.9,304.3,618.9,304,618.9,303.7L618.9,303.7z
		 M616.1,307.7c-0.4,0.2-0.7,0.5-1,0.8s-0.6,0.6-0.8,1c-0.2,0.3-0.4,0.7-0.6,1c-0.1,0.4-0.2,0.7-0.2,1c0,0.5,0.1,0.9,0.3,1.3
		c0.2,0.4,0.4,0.8,0.8,1.1c0.3,0.3,0.7,0.5,1.2,0.7s1,0.3,1.5,0.3c1.4,0,2.7-0.8,3.8-2.4L616.1,307.7L616.1,307.7z M624.7,314.7
		l-0.8,0.8l-2.2-2.1c-0.4,0.5-0.7,0.9-1.1,1.3c-0.4,0.3-0.8,0.6-1.2,0.8s-0.8,0.3-1.3,0.4c-0.4,0.1-0.9,0.1-1.3,0.1
		c-0.6,0-1.2-0.1-1.8-0.3s-1-0.5-1.4-0.9s-0.7-0.8-1-1.4c-0.2-0.5-0.4-1.1-0.4-1.7c0-1.8,1-3.3,3.1-4.5c-0.7-0.7-1.2-1.4-1.5-2
		s-0.5-1.1-0.5-1.5c0-0.5,0.1-0.9,0.3-1.3s0.4-0.7,0.7-1s0.6-0.5,1-0.6s0.8-0.2,1.3-0.2s0.9,0.1,1.3,0.2c0.4,0.2,0.8,0.4,1.1,0.7
		c0.3,0.3,0.5,0.6,0.7,1s0.3,0.8,0.3,1.2c0,0.3-0.1,0.6-0.2,1c-0.1,0.3-0.4,0.6-0.6,0.9c-0.3,0.3-0.6,0.6-1,0.9s-0.8,0.5-1.2,0.8
		l4.5,4.4c0.1-0.2,0.2-0.5,0.3-0.8s0.2-0.6,0.3-1c0.1-0.3,0.1-0.7,0.2-1.1c0-0.4,0.1-0.7,0.1-1.1h1c0,1.8-0.4,3.3-1.1,4.6
		L624.7,314.7L624.7,314.7z"/>
	<path class="st0" d="M587.4,305.8c-0.5-0.2-1-0.4-1.4-0.6s-0.9-0.3-1.3-0.3c-1.1,0-2,0.3-2.6,0.9c-0.6,0.6-0.9,1.1-0.9,2.2
		c0,0.5,0.2,1.6,0.7,2.2c0.5,0.6,1.2,0.9,2.2,0.9c0.6,0,1.3-0.3,1.8-0.5s1-0.5,1.4-0.8L587.4,305.8L587.4,305.8z M593.7,307.2
		c0,0.8-0.1,1.5-0.3,2.2c-0.2,0.7-0.4,1.4-0.7,2s-0.7,1-1.1,1.3c-0.4,0.3-0.9,0.5-1.4,0.5c-0.3,0-0.6,0-0.9-0.1s-0.5-0.2-0.8-0.4
		c-0.2-0.2-0.5-0.4-0.7-0.7s-0.4-0.6-0.5-1c-0.5,0.4-1,0.7-1.7,0.9c-0.6,0.2-1.3,0.3-1.9,0.3c-0.6,0-1.1-0.1-1.6-0.3s-0.9-0.5-1.2-1
		c-0.3-0.4-0.6-0.9-0.8-1.5c-0.2-0.6-0.2-1.1-0.2-1.3c0-0.9,0.1-1.2,0.3-1.7c0.2-0.6,0.5-0.9,0.9-1.3c0.4-0.4,0.9-0.7,1.4-1
		c0.5-0.2,1.1-0.3,1.8-0.3c0.4,0,0.8,0.1,1.3,0.2c0.5,0.2,1,0.3,1.6,0.6v-1h1.2v6.7c0,0.6,0.1,1,0.4,1.4c0.3,0.3,0.7,0.5,1.3,0.5
		c0.3,0,0.7-0.1,1-0.4c0.3-0.3,0.5-0.6,0.7-1.1s0.4-1,0.5-1.6s0.2-1.3,0.2-2c0-0.8-0.2-1.4-0.5-2.4c-0.4-1-0.9-1.9-1.5-2.6
		c-0.7-0.7-1.5-1.2-2.4-1.6c-1-0.4-2-0.6-3.3-0.6c-1.2,0-2.2,0.2-3.2,0.7c-1,0.4-1.9,1-2.6,1.8s-1.3,1.6-1.7,2.7
		c-0.4,1-0.6,2.1-0.6,3.2c0,1.2,0.2,2.3,0.6,3.4c0.4,1,0.9,1.9,1.7,2.6c0.7,0.7,1.6,1.3,2.6,1.7s2.1,0.6,3.3,0.6
		c0.7,0,1.3,0,1.9-0.1s1.2-0.2,1.8-0.3v1.1c-0.6,0.1-1.2,0.2-1.8,0.3c-0.6,0.1-1.2,0.1-1.9,0.1c-1.3,0-2.6-0.2-3.7-0.7
		c-1.1-0.5-2.1-1.1-2.9-1.9c-0.8-0.8-1.4-1.8-1.9-3c-0.5-1.1-0.7-2.4-0.7-3.8c0-1.3,0.2-2.5,0.7-3.7c0.5-1.1,1.1-2.1,2-3
		c0.8-0.8,1.8-1.5,2.9-2s2.3-0.7,3.6-0.7c1.3,0,2.6,0.2,3.7,0.7c1.1,0.4,2,1.1,2.8,1.9c0.8,0.8,1.3,1.8,1.8,2.9
		C593.5,305.5,593.7,306.3,593.7,307.2L593.7,307.2z"/>
	<polygon class="st0" points="609,315.7 607.3,315.7 600.9,308.7 600,309.4 600,315.7 598.8,315.8 598.8,300.8 600,300.8 600,307.8 
		607,300.8 608.5,300.8 601.8,307.8 	"/>
	<path class="st0" d="M543.7,326.4l-12.9-15.7h20V321L543.7,326.4L543.7,326.4z M534.9,333.2H510L494,321v-10.3h31.7l14.9,18.1
		L534.9,333.2L534.9,333.2z M523,262.6l27.8,8.4v35.8H494v-10.6L523,262.6L523,262.6z M494,271l22.4-6.8L494,290V271L494,271z
		 M553.4,267.6l-30.6-9.2c-0.1,0-0.1,0-0.2,0l0,0c-0.3-0.1-0.6-0.1-1,0l-30.2,9.2c-0.8,0.3-1.4,1-1.4,1.9V322c0,0.6,0.3,1.2,0.8,1.6
		l17.3,13.2c0.3,0.3,0.8,0.4,1.2,0.4h26.2c0.4,0,0.9-0.1,1.2-0.4l17.3-13.2c0.5-0.4,0.8-1,0.8-1.6v-52.5
		C554.9,268.6,554.3,267.8,553.4,267.6L553.4,267.6z"/>
	<polygon class="st0" points="667.8,277.7 657.7,277.7 657.7,280.2 661.4,280.2 661.4,292.4 664.1,292.4 664.1,280.2 667.8,280.2 	
		"/>
	<polygon class="st0" points="651,292.4 653.7,292.4 653.7,277.7 651,277.7 	"/>
	<polygon class="st0" points="639.9,277.7 629.8,277.7 629.8,280.2 633.5,280.2 633.5,292.4 636.2,292.4 636.2,280.2 639.9,280.2 	
		"/>
	<path class="st0" d="M621.4,283.4h-2.1v-3.3h2.1c1.4,0,2,1,2,1.7C623.3,282.7,622.7,283.5,621.4,283.4L621.4,283.4z M623.5,285.7
		c2.3-0.9,2.9-2.9,2.9-4.2c0-1.8-1.6-3.9-3.9-3.9h-6v14.8h2.9v-6.6h0.8l5.4,6.6h3.6L623.5,285.7L623.5,285.7z"/>
	<path class="st0" d="M603.9,286.4l1.8-4.2l1.8,4.2H603.9L603.9,286.4z M607.2,278.6l-0.4-0.9h-2.3l-0.4,0.9l-5.9,13.9h3.1l1.5-3.5
		h5.8l1.5,3.5h3.1L607.2,278.6L607.2,278.6z"/>
	<polygon class="st0" points="597.2,277.7 587.1,277.7 587.1,280.2 590.8,280.2 590.8,292.4 593.4,292.4 593.4,280.2 597.2,280.2 	
		"/>
	<path class="st0" d="M584.2,279l-1.7,2c-2.2-1.6-4.3-0.6-4.3,0.5c0,2.5,6.6,1,6.6,6.9c0,2.7-3,4.2-5.2,4.2c-1.5,0-4.2-1.1-5.3-2.5
		l2.1-1.9c1.5,2.1,5.5,2.1,5.5,0c0-2.4-6.8-2.3-6.8-6.2c0-3.3,3-4.5,4.7-4.5C582.2,277.4,583.3,278.1,584.2,279L584.2,279z"/>
</g>
</svg>
