<?xml version="1.0" encoding="utf-8"?>
<!-- Generator: Adobe Illustrator 19.0.0, SVG Export Plug-In . SVG Version: 6.00 Build 0)  -->
<svg version="1.1" id="Layer_1" xmlns="http://www.w3.org/2000/svg" xmlns:xlink="http://www.w3.org/1999/xlink" x="0px" y="0px"
	 viewBox="-331 258.4 177.8 78.9" style="enable-background:new -331 258.4 177.8 78.9;" xml:space="preserve">
<style type="text/css">
	.st0{fill:#353535;}
</style>
<g>
	<polygon class="st0" points="-181.7,315.8 -182.8,315.8 -182.8,308.3 -192,308.3 -192,315.8 -193.1,315.8 -193.1,300.8 -192,300.8 
		-192,307.2 -182.8,307.2 -182.8,300.8 -181.7,300.8 	"/>
	<path class="st0" d="M-202.1,303.8c0-0.7-0.2-1.2-0.6-1.6c-0.4-0.4-1-0.5-1.6-0.5c-0.4,0-0.7,0.1-1,0.2s-0.5,0.3-0.7,0.5
		s-0.3,0.4-0.4,0.7c-0.1,0.3-0.1,0.5-0.1,0.8c0,0.2,0.1,0.5,0.2,0.7c0.1,0.2,0.3,0.5,0.5,0.7s0.4,0.5,0.6,0.7
		c0.2,0.2,0.4,0.5,0.7,0.7c0.4-0.2,0.7-0.4,1-0.6s0.6-0.4,0.8-0.6s0.4-0.5,0.5-0.7C-202.1,304.4-202.1,304.1-202.1,303.8
		L-202.1,303.8z M-204.9,307.8c-0.4,0.2-0.7,0.5-1,0.8s-0.6,0.6-0.8,1c-0.2,0.3-0.4,0.7-0.6,1c-0.1,0.4-0.2,0.7-0.2,1
		c0,0.5,0.1,0.9,0.3,1.3s0.4,0.8,0.8,1.1c0.3,0.3,0.7,0.5,1.2,0.7s1,0.3,1.5,0.3c1.4,0,2.7-0.8,3.8-2.4L-204.9,307.8L-204.9,307.8z
		 M-196.3,314.8l-0.8,0.8l-2.2-2.1c-0.4,0.5-0.7,0.9-1.1,1.3c-0.4,0.3-0.8,0.6-1.2,0.8s-0.8,0.3-1.3,0.4c-0.4,0.1-0.9,0.1-1.3,0.1
		c-0.6,0-1.2-0.1-1.8-0.3s-1-0.5-1.4-0.9s-0.7-0.8-1-1.4c-0.2-0.5-0.4-1.1-0.4-1.7c0-1.8,1-3.3,3.1-4.5c-0.7-0.7-1.2-1.4-1.5-2
		s-0.5-1.1-0.5-1.5c0-0.5,0.1-0.9,0.3-1.3s0.4-0.7,0.7-1s0.6-0.5,1-0.6s0.8-0.2,1.3-0.2s0.9,0.1,1.3,0.2c0.4,0.2,0.8,0.4,1.1,0.7
		c0.3,0.3,0.5,0.6,0.7,1s0.3,0.8,0.3,1.2c0,0.3-0.1,0.6-0.2,1c-0.1,0.3-0.4,0.6-0.6,0.9c-0.3,0.3-0.6,0.6-1,0.9s-0.8,0.5-1.2,0.8
		l4.5,4.4c0.1-0.2,0.2-0.5,0.3-0.8s0.2-0.6,0.3-1c0.1-0.3,0.1-0.7,0.2-1.1c0-0.4,0.1-0.7,0.1-1.1h1c0,1.8-0.4,3.3-1.1,4.6
		L-196.3,314.8L-196.3,314.8z"/>
	<path class="st0" d="M-233.6,305.9c-0.5-0.2-1-0.4-1.4-0.6s-0.9-0.3-1.3-0.3c-1.1,0-2,0.3-2.6,0.9s-0.9,1.1-0.9,2.2
		c0,0.5,0.2,1.6,0.7,2.2s1.2,0.9,2.2,0.9c0.6,0,1.3-0.3,1.8-0.5s1-0.5,1.4-0.8L-233.6,305.9L-233.6,305.9z M-227.3,307.3
		c0,0.8-0.1,1.5-0.3,2.2s-0.4,1.4-0.7,2s-0.7,1-1.1,1.3c-0.4,0.3-0.9,0.5-1.4,0.5c-0.3,0-0.6,0-0.9-0.1s-0.5-0.2-0.8-0.4
		c-0.2-0.2-0.5-0.4-0.7-0.7s-0.4-0.6-0.5-1c-0.5,0.4-1,0.7-1.7,0.9c-0.6,0.2-1.3,0.3-1.9,0.3c-0.6,0-1.1-0.1-1.6-0.3s-0.9-0.5-1.2-1
		c-0.3-0.4-0.6-0.9-0.8-1.5s-0.2-1.1-0.2-1.3c0-0.9,0.1-1.2,0.3-1.7c0.2-0.6,0.5-0.9,0.9-1.3s0.9-0.7,1.4-1c0.5-0.2,1.1-0.3,1.8-0.3
		c0.4,0,0.8,0.1,1.3,0.2c0.5,0.2,1,0.3,1.6,0.6v-1h1.2v6.7c0,0.6,0.1,1,0.4,1.4c0.3,0.3,0.7,0.5,1.3,0.5c0.3,0,0.7-0.1,1-0.4
		s0.5-0.6,0.7-1.1s0.4-1,0.5-1.6s0.2-1.3,0.2-2c0-0.8-0.2-1.4-0.5-2.4c-0.4-1-0.9-1.9-1.5-2.6c-0.7-0.7-1.5-1.2-2.4-1.6
		c-1-0.4-2-0.6-3.3-0.6c-1.2,0-2.2,0.2-3.2,0.7c-1,0.4-1.9,1-2.6,1.8s-1.3,1.6-1.7,2.7c-0.4,1-0.6,2.1-0.6,3.2
		c0,1.2,0.2,2.3,0.6,3.4c0.4,1,0.9,1.9,1.7,2.6c0.7,0.7,1.6,1.3,2.6,1.7s2.1,0.6,3.3,0.6c0.7,0,1.3,0,1.9-0.1s1.2-0.2,1.8-0.3v1.1
		c-0.6,0.1-1.2,0.2-1.8,0.3c-0.6,0.1-1.2,0.1-1.9,0.1c-1.3,0-2.6-0.2-3.7-0.7c-1.1-0.5-2.1-1.1-2.9-1.9c-0.8-0.8-1.4-1.8-1.9-3
		c-0.5-1.1-0.7-2.4-0.7-3.8c0-1.3,0.2-2.5,0.7-3.7c0.5-1.1,1.1-2.1,2-3c0.8-0.8,1.8-1.5,2.9-2s2.3-0.7,3.6-0.7s2.6,0.2,3.7,0.7
		c1.1,0.4,2,1.1,2.8,1.9s1.3,1.8,1.8,2.9C-227.5,305.6-227.3,306.4-227.3,307.3L-227.3,307.3z"/>
	<polygon class="st0" points="-212,315.8 -213.7,315.8 -220.1,308.8 -221,309.5 -221,315.8 -222.2,315.9 -222.2,300.9 -221,300.9 
		-221,307.9 -214,300.9 -212.5,300.9 -219.2,307.9 	"/>
	<path class="st0" d="M-277.3,326.5l-12.9-15.7h20v10.3L-277.3,326.5L-277.3,326.5z M-286.1,333.3H-311l-16-12.2v-10.3h31.7
		l14.9,18.1L-286.1,333.3L-286.1,333.3z M-298,262.7l27.8,8.4v35.8H-327v-10.6L-298,262.7L-298,262.7z M-327,271.1l22.4-6.8
		l-22.4,25.8V271.1L-327,271.1z M-267.6,267.7l-30.6-9.2c-0.1,0-0.1,0-0.2,0l0,0c-0.3-0.1-0.6-0.1-1,0l-30.2,9.2
		c-0.8,0.3-1.4,1-1.4,1.9v52.5c0,0.6,0.3,1.2,0.8,1.6l17.3,13.2c0.3,0.3,0.8,0.4,1.2,0.4h26.2c0.4,0,0.9-0.1,1.2-0.4l17.3-13.2
		c0.5-0.4,0.8-1,0.8-1.6v-52.5C-266.1,268.7-266.7,267.9-267.6,267.7L-267.6,267.7z"/>
	<polygon class="st0" points="-153.2,277.8 -163.3,277.8 -163.3,280.3 -159.6,280.3 -159.6,292.5 -156.9,292.5 -156.9,280.3 
		-153.2,280.3 	"/>
	<polygon class="st0" points="-170,292.5 -167.3,292.5 -167.3,277.8 -170,277.8 	"/>
	<polygon class="st0" points="-181.1,277.8 -191.2,277.8 -191.2,280.3 -187.5,280.3 -187.5,292.5 -184.8,292.5 -184.8,280.3 
		-181.1,280.3 	"/>
	<path class="st0" d="M-199.6,283.5h-2.1v-3.3h2.1c1.4,0,2,1,2,1.7C-197.7,282.8-198.3,283.6-199.6,283.5L-199.6,283.5z
		 M-197.5,285.8c2.3-0.9,2.9-2.9,2.9-4.2c0-1.8-1.6-3.9-3.9-3.9h-6v14.8h2.9v-6.6h0.8l5.4,6.6h3.6L-197.5,285.8L-197.5,285.8z"/>
	<path class="st0" d="M-217.1,286.5l1.8-4.2l1.8,4.2H-217.1L-217.1,286.5z M-213.8,278.7l-0.4-0.9h-2.3l-0.4,0.9l-5.9,13.9h3.1
		l1.5-3.5h5.8l1.5,3.5h3.1L-213.8,278.7L-213.8,278.7z"/>
	<polygon class="st0" points="-223.8,277.8 -233.9,277.8 -233.9,280.3 -230.2,280.3 -230.2,292.5 -227.6,292.5 -227.6,280.3 
		-223.8,280.3 	"/>
	<path class="st0" d="M-236.8,279.1l-1.7,2c-2.2-1.6-4.3-0.6-4.3,0.5c0,2.5,6.6,1,6.6,6.9c0,2.7-3,4.2-5.2,4.2
		c-1.5,0-4.2-1.1-5.3-2.5l2.1-1.9c1.5,2.1,5.5,2.1,5.5,0c0-2.4-6.8-2.3-6.8-6.2c0-3.3,3-4.5,4.7-4.5
		C-238.8,277.5-237.7,278.2-236.8,279.1L-236.8,279.1z"/>
</g>
</svg>
