<svg width="234" height="234" viewBox="0 0 234 234" fill="none" xmlns="http://www.w3.org/2000/svg">
<path d="M106.4 53.2006C106.4 67.3103 100.795 80.842 90.8181 90.8191C80.8411 100.796 67.3095 106.401 53.2 106.401C39.0905 106.401 25.5589 100.796 15.5819 90.8191C5.60499 80.842 0 67.3103 0 53.2006V0H106.4V53.2006Z" transform="translate(63.8008 3)" stroke="white" stroke-width="6" stroke-linecap="round" stroke-linejoin="round"/>
<path d="M0 98.8011C0 72.5974 10.4093 47.467 28.9378 28.9382C47.4664 10.4094 72.5966 0 98.8 0C125.003 0 150.134 10.4094 168.662 28.9382C187.191 47.467 197.6 72.5974 197.6 98.8011" transform="translate(18.1953 132.197)" stroke="white" stroke-width="6" stroke-linecap="round" stroke-linejoin="round"/>
<path d="M0 0H228" transform="translate(3 3)" stroke="white" stroke-width="6" stroke-linecap="round" stroke-linejoin="round"/>
<path d="M0 0H106.4" transform="translate(63.8008 48.6035)" stroke="white" stroke-width="6" stroke-linecap="round" stroke-linejoin="round"/>
<path d="M0 0V76.0009" transform="translate(18.1953 3)" stroke="white" stroke-width="6" stroke-linecap="round" stroke-linejoin="round"/>
<path d="M0 0L50.5349 39.3076L101.07 0" transform="translate(66.4531 146.098)" stroke="white" stroke-width="6" stroke-linecap="round" stroke-linejoin="round"/>
</svg>
