<svg width="20" height="20" viewBox="0 0 20 20" fill="none" xmlns="http://www.w3.org/2000/svg">
<path fill-rule="evenodd" clip-rule="evenodd" d="M6.9417 6.15948L6.95992 6.1597L6.97814 6.15948H13.0218L13.04 6.1597L13.0583 6.15948H14.56V16.0397C14.56 16.4594 14.2198 16.7997 13.8 16.7997H6.19987C5.78012 16.7997 5.43985 16.4594 5.43985 16.0397V6.15948H6.9417ZM13.8 4.63945H15.32H16.8402C17.2599 4.63945 17.6002 4.97972 17.6002 5.39947C17.6002 5.81921 17.2599 6.15948 16.8402 6.15948H16.0801V16.0397C16.0801 17.2989 15.0592 18.3197 13.8 18.3197H6.19987C4.94063 18.3197 3.91982 17.2989 3.91982 16.0397V6.15948H3.15992C2.74017 6.15948 2.3999 5.81921 2.3999 5.39947C2.3999 4.97972 2.74017 4.63945 3.15992 4.63945H4.67984H6.1999V3.87965C6.1999 2.62042 7.22071 1.59961 8.47995 1.59961H11.52C12.7792 1.59961 13.8 2.62042 13.8 3.87965V4.63945ZM12.28 4.63945V3.87965C12.28 3.45991 11.9397 3.11964 11.52 3.11964H8.47995C8.0602 3.11964 7.71993 3.45991 7.71993 3.87965V4.63945H12.28ZM7.72061 9.19947V13.7596C7.72061 14.1793 8.06088 14.5196 8.48062 14.5196C8.90036 14.5196 9.24063 14.1793 9.24063 13.7596V9.19947C9.24063 8.77972 8.90036 8.43945 8.48062 8.43945C8.06088 8.43945 7.72061 8.77972 7.72061 9.19947ZM10.7603 13.7596V9.19947C10.7603 8.77972 11.1005 8.43945 11.5203 8.43945C11.94 8.43945 12.2803 8.77972 12.2803 9.19947V13.7596C12.2803 14.1793 11.94 14.5196 11.5203 14.5196C11.1005 14.5196 10.7603 14.1793 10.7603 13.7596Z" fill="#FF2B5E"/>
</svg>
