<svg width="85" height="85" viewBox="0 0 85 85" fill="none" xmlns="http://www.w3.org/2000/svg">
<path fill-rule="evenodd" clip-rule="evenodd" d="M42.2812 0C18.9297 0 0 18.9355 0 42.2949C0 65.6543 18.9297 84.5898 42.2812 84.5898C65.6328 84.5898 84.5586 65.6543 84.5586 42.2949C84.5586 18.9355 65.6328 0 42.2812 0ZM41.0977 35.8418L41.0117 34.377C40.7461 30.584 43.082 27.1191 46.7773 25.7754C48.1367 25.2988 50.4453 25.2383 51.9531 25.6562C52.543 25.8359 53.668 26.4336 54.4648 26.9707L55.9141 27.957L57.5117 27.4492C58.3984 27.1797 59.582 26.7324 60.1172 26.4336C60.6172 26.1641 61.0625 26.0156 61.0625 26.1055C61.0625 26.6133 59.9688 28.3438 59.0508 29.3008C57.8086 30.6445 58.1641 30.7637 60.6758 29.8672C62.1875 29.3594 62.2148 29.3594 61.918 29.9277C61.7422 30.2266 60.8242 31.2715 59.8477 32.2266C58.1914 33.8711 58.1055 34.0488 58.1055 35.4238C58.1055 37.543 57.0977 41.9648 56.0938 44.3828C54.2305 48.9238 50.2383 53.6133 46.2461 55.9727C40.625 59.2871 33.1445 60.123 26.8438 58.1816C24.7461 57.5254 21.1367 55.8535 21.1367 55.5547C21.1367 55.4648 22.2305 55.3457 23.5625 55.3145C26.3398 55.2559 29.1211 54.4785 31.4883 53.1055L33.0859 52.1484L31.25 51.5215C28.6484 50.625 26.3125 48.5645 25.7227 46.623C25.543 45.9961 25.6016 45.9668 27.2578 45.9668L28.9727 45.9375L27.5234 45.25C25.8086 44.3828 24.2422 42.9199 23.4727 41.4258C22.9102 40.3516 22.2031 37.6328 22.4102 37.4238C22.4688 37.334 23.0898 37.5137 23.7969 37.752C25.8398 38.5 26.1055 38.3203 24.9219 37.0664C22.7031 34.7969 22.0234 31.4219 23.0898 28.2246L23.5898 26.791L25.543 28.7324C29.5352 32.6465 34.2383 34.9746 39.6211 35.6621L41.0977 35.8418Z" transform="translate(0 0.410156)" fill="#FFFFFF"/>
</svg>
