<svg width="135" height="137" viewBox="0 0 147 150" fill="none" xmlns="http://www.w3.org/2000/svg">
<g opacity="0.1">
<path d="M72.2895 3.31195L5.27791 41.2496C3.04419 42.5193 3.92479 46 6.48068 46H140.504C143.081 46 143.962 42.5193 141.707 41.2496L74.7166 3.31195C73.9648 2.89602 73.0413 2.89602 72.2895 3.31195Z" stroke="#4787D3" stroke-width="6" stroke-miterlimit="10"/>
<path d="M140.705 134H6.31667C5.02963 134 4 134.96 4 136.16V140.84C4 142.04 5.02963 143 6.31667 143H140.683C141.97 143 143 142.04 143 140.84V136.16C143 134.98 141.97 134 140.705 134Z" stroke="#4787D3" stroke-width="6" stroke-miterlimit="10"/>
<path d="M20 51V129" stroke="#4787D3" stroke-width="6" stroke-miterlimit="10"/>
<path d="M35 51V129" stroke="#4787D3" stroke-width="6" stroke-miterlimit="10"/>
<path d="M66 51V129" stroke="#4787D3" stroke-width="6" stroke-miterlimit="10"/>
<path d="M81 51V129" stroke="#4787D3" stroke-width="6" stroke-miterlimit="10"/>
<path d="M112 51V129" stroke="#4787D3" stroke-width="6" stroke-miterlimit="10"/>
<path d="M127 51V129" stroke="#4787D3" stroke-width="6" stroke-miterlimit="10"/>
</g>
</svg>
