<svg width="309" height="312" viewBox="0 0 309 312" fill="none" xmlns="http://www.w3.org/2000/svg">
<path d="M143.635 0.64382L2.68787 78.9413C-2.01038 81.5618 -0.158187 88.7455 5.21769 88.7455H287.112C292.533 88.7455 294.386 81.5618 289.642 78.9413L148.74 0.64382C147.159 -0.214607 145.216 -0.214607 143.635 0.64382Z" transform="translate(8.33203 3)" stroke="white" stroke-width="6" stroke-miterlimit="10"/>
<path d="M287.903 0H4.87895C2.16842 0 0 2.16865 0 4.87947V15.4517C0 18.1625 2.16842 20.3312 4.87895 20.3312H287.858C290.568 20.3312 292.737 18.1625 292.737 15.4517V4.87947C292.737 2.21383 290.568 0 287.903 0Z" transform="translate(8.13281 277.211)" stroke="white" stroke-width="6" stroke-miterlimit="10"/>
<path d="M0 0V164.231" transform="translate(40.6602 103.041)" stroke="white" stroke-width="6" stroke-miterlimit="10"/>
<path d="M0 0V164.231" transform="translate(73.1875 103.041)" stroke="white" stroke-width="6" stroke-miterlimit="10"/>
<path d="M0 0V164.231" transform="translate(138.238 103.043)" stroke="white" stroke-width="6" stroke-miterlimit="10"/>
<path d="M0 0V164.231" transform="translate(170.762 103.043)" stroke="white" stroke-width="6" stroke-miterlimit="10"/>
<path d="M0 0V164.231" transform="translate(235.812 103.041)" stroke="white" stroke-width="6" stroke-miterlimit="10"/>
<path d="M0 0V164.231" transform="translate(268.34 103.041)" stroke="white" stroke-width="6" stroke-miterlimit="10"/>
</svg>
