<svg width="39" height="39" viewBox="0 0 39 39" fill="none" xmlns="http://www.w3.org/2000/svg">
<path d="M12.5931 33.5506H8.31324C7.5565 33.5506 6.83076 33.2546 6.29567 32.7278C5.76057 32.201 5.45996 31.4865 5.45996 30.7415V20.9098C5.45996 20.1648 5.76057 19.4503 6.29567 18.9235C6.83076 18.3967 7.5565 18.1007 8.31324 18.1007H12.5931M22.5796 15.2917V9.67356C22.5796 8.55604 22.1287 7.4843 21.3261 6.69409C20.5234 5.90389 19.4348 5.45996 18.2997 5.45996L12.5931 18.1007V33.5506H28.6856C29.3737 33.5583 30.0415 33.3208 30.5658 32.882C31.0901 32.4433 31.4357 31.8327 31.5389 31.1629L33.5076 18.5221C33.5697 18.1195 33.5421 17.7084 33.4268 17.3174C33.3115 16.9263 33.1112 16.5646 32.8398 16.2573C32.5684 15.95 32.2323 15.7045 31.855 15.5378C31.4776 15.371 31.068 15.2871 30.6544 15.2917H22.5796Z" stroke="#4787D3" stroke-width="2.0" stroke-linecap="round" stroke-linejoin="round"/>
</svg>
