<svg width="100" height="100" viewBox="0 0 100 100" fill="none" xmlns="http://www.w3.org/2000/svg">
<mask id="mask0" mask-type="alpha" maskUnits="userSpaceOnUse" x="0" y="0" width="101" height="101">
<path fill-rule="evenodd" clip-rule="evenodd" d="M0.00292969 50C0.00292969 77.6142 22.3887 100 50.0029 100C77.6172 100 100.003 77.6142 100.003 50C100.003 22.3858 77.6172 0 50.0029 0C22.3887 0 0.00292969 22.3858 0.00292969 50ZM90.9059 49.9986C90.9059 72.5921 72.5903 90.9077 49.9968 90.9077C27.4034 90.9077 9.08775 72.5921 9.08775 49.9986C9.08775 27.4052 27.4034 9.08955 49.9968 9.08955C72.5903 9.08955 90.9059 27.4052 90.9059 49.9986ZM45.45 31.8182V50C45.45 52.5104 47.4851 54.5455 49.9955 54.5455C52.5059 54.5455 54.5409 52.5104 54.5409 50V31.8182C54.5409 29.3078 52.5059 27.2727 49.9955 27.2727C47.4851 27.2727 45.45 29.3078 45.45 31.8182ZM53.2096 60.4175C54.9847 62.1926 54.9847 65.0706 53.2096 66.8457C51.4345 68.6208 48.5565 68.6208 46.7814 66.8457C45.0063 65.0706 45.0063 62.1926 46.7814 60.4175C48.5565 58.6424 51.4345 58.6424 53.2096 60.4175Z" fill="white"/>
</mask>
<g mask="url(#mask0)">
<path fill-rule="evenodd" clip-rule="evenodd" d="M0 0H100V100H0V0Z" fill="#FFE03F"/>
</g>
</svg>
