<svg width="1966" height="1533" viewBox="0 0 1966 1533" fill="none" xmlns="http://www.w3.org/2000/svg">
<g opacity="0.25">
<path d="M362.265 1259.6L411.502 1279.5" stroke="black" stroke-miterlimit="10"/>
<path d="M372.032 1267.06L396.341 1276.89" stroke="black" stroke-miterlimit="10"/>
<path d="M355.374 1274.48L391.42 1289.06" stroke="black" stroke-miterlimit="10"/>
<path d="M365.759 1282.58L404.061 1298.06" stroke="black" stroke-miterlimit="10"/>
<path d="M396.39 1276.91C399.75 1278.27 401.371 1282.1 400.014 1285.45C398.656 1288.81 394.829 1290.44 391.469 1289.08" stroke="black" stroke-miterlimit="10"/>
<path d="M411.502 1279.5C416.62 1281.57 419.092 1287.4 417.023 1292.51C414.954 1297.63 409.131 1300.1 404.015 1298.03" stroke="black" stroke-miterlimit="10"/>
<path d="M356.125 1274.79C351.929 1273.09 349.903 1268.32 351.601 1264.13C353.295 1259.93 358.07 1257.9 362.265 1259.6" stroke="black" stroke-miterlimit="10"/>
<path d="M1344 210.454L1760.71 0.999762" stroke="#0055CC" stroke-width="0.852792" stroke-miterlimit="10"/>
<path d="M1350.06 222.506L1766.77 13.0515" stroke="#0055CC" stroke-width="0.852792" stroke-miterlimit="10"/>
<path d="M1356.11 234.556L1772.82 25.1013" stroke="#0055CC" stroke-width="0.852792" stroke-miterlimit="10"/>
<path d="M1368.01 258.223L1784.72 48.7683" stroke="#0055CC" stroke-width="0.852792" stroke-miterlimit="10"/>
<path d="M1373.99 270.129L1790.7 60.6746" stroke="#0055CC" stroke-width="0.852792" stroke-miterlimit="10"/>
<path d="M1379.98 282.036L1796.69 72.5818" stroke="#0055CC" stroke-width="0.852792" stroke-miterlimit="10"/>
<path d="M1385.96 293.939L1802.67 84.4851" stroke="#0055CC" stroke-width="0.852792" stroke-miterlimit="10"/>
<path d="M1391.95 305.847L1808.66 96.3923" stroke="#0055CC" stroke-width="0.852792" stroke-miterlimit="10"/>
<path d="M1397.93 317.753L1814.64 108.299" stroke="#0055CC" stroke-width="0.852792" stroke-miterlimit="10"/>
<path d="M1403.92 329.66L1820.63 120.206" stroke="#0055CC" stroke-width="0.852792" stroke-miterlimit="10"/>
<path d="M1409.9 341.565L1826.61 132.111" stroke="#0055CC" stroke-width="0.852792" stroke-miterlimit="10"/>
<path d="M1415.89 353.471L1832.59 144.016" stroke="#0055CC" stroke-width="0.852792" stroke-miterlimit="10"/>
<path d="M1421.9 365.439L1838.61 155.985" stroke="#0055CC" stroke-width="0.852792" stroke-miterlimit="10"/>
<path d="M1362.03 246.317L1778.74 36.863" stroke="#0055CC" stroke-width="0.852792" stroke-miterlimit="10"/>
<path d="M1427.86 377.284L1844.56 167.83" stroke="#0055CC" stroke-width="0.852792" stroke-miterlimit="10"/>
<path d="M1433.91 389.333L1850.62 179.879" stroke="#0055CC" stroke-width="0.852792" stroke-miterlimit="10"/>
<path d="M1439.97 401.386L1856.68 191.931" stroke="#0055CC" stroke-width="0.852792" stroke-miterlimit="10"/>
<path d="M1451.86 425.051L1868.57 215.596" stroke="#0055CC" stroke-width="0.852792" stroke-miterlimit="10"/>
<path d="M1457.85 436.958L1874.56 227.504" stroke="#0055CC" stroke-width="0.852792" stroke-miterlimit="10"/>
<path d="M1463.83 448.863L1880.54 239.409" stroke="#0055CC" stroke-width="0.852792" stroke-miterlimit="10"/>
<path d="M1469.82 460.771L1886.53 251.316" stroke="#0055CC" stroke-width="0.852792" stroke-miterlimit="10"/>
<path d="M1475.8 472.676L1892.51 263.221" stroke="#0055CC" stroke-width="0.852792" stroke-miterlimit="10"/>
<path d="M1481.79 484.581L1898.5 275.127" stroke="#0055CC" stroke-width="0.852792" stroke-miterlimit="10"/>
<path d="M1487.77 496.487L1904.48 287.033" stroke="#0055CC" stroke-width="0.852792" stroke-miterlimit="10"/>
<path d="M1493.76 508.395L1910.47 298.94" stroke="#0055CC" stroke-width="0.852792" stroke-miterlimit="10"/>
<path d="M1499.74 520.3L1916.45 310.845" stroke="#0055CC" stroke-width="0.852792" stroke-miterlimit="10"/>
<path d="M1505.76 532.27L1922.47 322.815" stroke="#0055CC" stroke-width="0.852792" stroke-miterlimit="10"/>
<path d="M1511.6 543.902L1928.31 334.448" stroke="#0055CC" stroke-width="0.852792" stroke-miterlimit="10"/>
<path d="M1517.59 555.81L1934.3 346.355" stroke="#0055CC" stroke-width="0.852792" stroke-miterlimit="10"/>
<path d="M1523.57 567.716L1940.28 358.261" stroke="#0055CC" stroke-width="0.852792" stroke-miterlimit="10"/>
<path d="M1529.56 579.621L1946.27 370.167" stroke="#0055CC" stroke-width="0.852792" stroke-miterlimit="10"/>
<path d="M1535.54 591.528L1952.25 382.074" stroke="#0055CC" stroke-width="0.852792" stroke-miterlimit="10"/>
<path d="M1541.56 603.496L1958.27 394.042" stroke="#0055CC" stroke-width="0.852792" stroke-miterlimit="10"/>
<path d="M1547.94 616.19L1964.65 406.736" stroke="#0055CC" stroke-width="0.852792" stroke-miterlimit="10"/>
<path d="M1445.88 413.147L1862.59 203.693" stroke="#0055CC" stroke-width="0.852792" stroke-miterlimit="10"/>
<path d="M1760.71 1L1964.65 406.736" stroke="#0055CC" stroke-width="0.852792" stroke-miterlimit="10"/>
<path d="M1748.66 7.05762L1952.6 412.794" stroke="#0055CC" stroke-width="0.852792" stroke-miterlimit="10"/>
<path d="M1736.61 13.1152L1940.55 418.851" stroke="#0055CC" stroke-width="0.852792" stroke-miterlimit="10"/>
<path d="M1712.94 25.0107L1916.88 430.747" stroke="#0055CC" stroke-width="0.852792" stroke-miterlimit="10"/>
<path d="M1701.03 30.9951L1904.97 436.731" stroke="#0055CC" stroke-width="0.852792" stroke-miterlimit="10"/>
<path d="M1689.13 36.9795L1893.07 442.716" stroke="#0055CC" stroke-width="0.852792" stroke-miterlimit="10"/>
<path d="M1677.22 42.9639L1881.16 448.7" stroke="#0055CC" stroke-width="0.852792" stroke-miterlimit="10"/>
<path d="M1665.32 48.9482L1869.25 454.684" stroke="#0055CC" stroke-width="0.852792" stroke-miterlimit="10"/>
<path d="M1653.41 54.9336L1857.35 460.67" stroke="#0055CC" stroke-width="0.852792" stroke-miterlimit="10"/>
<path d="M1641.5 60.917L1845.44 466.653" stroke="#0055CC" stroke-width="0.852792" stroke-miterlimit="10"/>
<path d="M1629.6 66.9014L1833.54 472.637" stroke="#0055CC" stroke-width="0.852792" stroke-miterlimit="10"/>
<path d="M1617.69 72.8857L1821.63 478.622" stroke="#0055CC" stroke-width="0.852792" stroke-miterlimit="10"/>
<path d="M1605.72 78.9014L1809.66 484.637" stroke="#0055CC" stroke-width="0.852792" stroke-miterlimit="10"/>
<path d="M1724.85 19.0264L1928.79 424.762" stroke="#0055CC" stroke-width="0.852792" stroke-miterlimit="10"/>
<path d="M1593.88 84.8545L1797.82 490.591" stroke="#0055CC" stroke-width="0.852792" stroke-miterlimit="10"/>
<path d="M1581.83 90.9121L1785.77 496.648" stroke="#0055CC" stroke-width="0.852792" stroke-miterlimit="10"/>
<path d="M1569.78 96.9697L1773.72 502.706" stroke="#0055CC" stroke-width="0.852792" stroke-miterlimit="10"/>
<path d="M1546.11 108.866L1750.05 514.602" stroke="#0055CC" stroke-width="0.852792" stroke-miterlimit="10"/>
<path d="M1534.21 114.85L1738.14 520.586" stroke="#0055CC" stroke-width="0.852792" stroke-miterlimit="10"/>
<path d="M1522.3 120.834L1726.24 526.57" stroke="#0055CC" stroke-width="0.852792" stroke-miterlimit="10"/>
<path d="M1510.39 126.819L1714.33 532.555" stroke="#0055CC" stroke-width="0.852792" stroke-miterlimit="10"/>
<path d="M1498.49 132.804L1702.43 538.54" stroke="#0055CC" stroke-width="0.852792" stroke-miterlimit="10"/>
<path d="M1486.58 138.788L1690.52 544.524" stroke="#0055CC" stroke-width="0.852792" stroke-miterlimit="10"/>
<path d="M1474.68 144.771L1678.62 550.508" stroke="#0055CC" stroke-width="0.852792" stroke-miterlimit="10"/>
<path d="M1462.77 150.756L1666.71 556.492" stroke="#0055CC" stroke-width="0.852792" stroke-miterlimit="10"/>
<path d="M1450.86 156.741L1654.8 562.477" stroke="#0055CC" stroke-width="0.852792" stroke-miterlimit="10"/>
<path d="M1438.89 162.757L1642.83 568.493" stroke="#0055CC" stroke-width="0.852792" stroke-miterlimit="10"/>
<path d="M1427.26 168.605L1631.2 574.342" stroke="#0055CC" stroke-width="0.852792" stroke-miterlimit="10"/>
<path d="M1415.35 174.589L1619.29 580.325" stroke="#0055CC" stroke-width="0.852792" stroke-miterlimit="10"/>
<path d="M1403.45 180.573L1607.39 586.309" stroke="#0055CC" stroke-width="0.852792" stroke-miterlimit="10"/>
<path d="M1391.54 186.558L1595.48 592.294" stroke="#0055CC" stroke-width="0.852792" stroke-miterlimit="10"/>
<path d="M1379.64 192.543L1583.58 598.279" stroke="#0055CC" stroke-width="0.852792" stroke-miterlimit="10"/>
<path d="M1367.67 198.558L1571.61 604.294" stroke="#0055CC" stroke-width="0.852792" stroke-miterlimit="10"/>
<path d="M1354.97 204.939L1558.91 610.676" stroke="#0055CC" stroke-width="0.852792" stroke-miterlimit="10"/>
<path d="M1344 210.454L1547.94 616.19" stroke="#0055CC" stroke-width="0.852792" stroke-miterlimit="10"/>
<path d="M1558.02 102.881L1761.96 508.617" stroke="#0055CC" stroke-width="0.852792" stroke-miterlimit="10"/>
<path d="M951.202 230.039L719.532 132L578 466.445L809.67 564.484L951.202 230.039Z" fill="white" stroke="#0055CC" stroke-width="1.06518" stroke-miterlimit="10"/>
<path d="M718.936 191.57L908.355 271.73" stroke="#0055CC" stroke-width="1.00479" stroke-miterlimit="10"/>
<path d="M712.178 207.541L901.597 287.701" stroke="#0055CC" stroke-width="1.00479" stroke-miterlimit="10"/>
<path d="M705.418 223.515L894.837 303.674" stroke="#0055CC" stroke-width="1.00479" stroke-miterlimit="10"/>
<path d="M692.145 254.88L881.564 335.04" stroke="#0055CC" stroke-width="1.00479" stroke-miterlimit="10"/>
<path d="M685.468 270.656L874.887 350.816" stroke="#0055CC" stroke-width="1.00479" stroke-miterlimit="10"/>
<path d="M678.79 286.438L868.209 366.597" stroke="#0055CC" stroke-width="1.00479" stroke-miterlimit="10"/>
<path d="M672.113 302.216L861.532 382.375" stroke="#0055CC" stroke-width="1.00479" stroke-miterlimit="10"/>
<path d="M665.436 317.994L854.855 398.154" stroke="#0055CC" stroke-width="1.00479" stroke-miterlimit="10"/>
<path d="M658.758 333.773L848.177 413.933" stroke="#0055CC" stroke-width="1.00479" stroke-miterlimit="10"/>
<path d="M652.081 349.552L841.5 429.711" stroke="#0055CC" stroke-width="1.00479" stroke-miterlimit="10"/>
<path d="M645.403 365.332L834.822 445.492" stroke="#0055CC" stroke-width="1.00479" stroke-miterlimit="10"/>
<path d="M638.726 381.109L828.145 461.269" stroke="#0055CC" stroke-width="1.00479" stroke-miterlimit="10"/>
<path d="M632.013 396.974L821.432 477.133" stroke="#0055CC" stroke-width="1.00479" stroke-miterlimit="10"/>
<path d="M698.823 239.1L888.242 319.259" stroke="#0055CC" stroke-width="1.00479" stroke-miterlimit="10"/>
<path d="M625.371 412.669L720.08 452.749" stroke="#0055CC" stroke-width="1.00479" stroke-miterlimit="10"/>
<path d="M512.745 949.036L506.263 1001.75" stroke="black" stroke-miterlimit="10"/>
<path d="M508.066 960.4L504.863 986.425" stroke="black" stroke-miterlimit="10"/>
<path d="M496.584 946.232L491.836 984.822" stroke="black" stroke-miterlimit="10"/>
<path d="M491.457 958.357L486.412 999.362" stroke="black" stroke-miterlimit="10"/>
<path d="M504.858 986.478C504.413 990.076 501.136 992.632 497.542 992.19C493.945 991.748 491.388 988.471 491.831 984.874" stroke="black" stroke-miterlimit="10"/>
<path d="M506.263 1001.75C505.589 1007.23 500.602 1011.12 495.124 1010.45C489.648 1009.77 485.754 1004.79 486.427 999.312" stroke="black" stroke-miterlimit="10"/>
<path d="M496.482 947.037C497.039 942.544 501.125 939.352 505.613 939.907C510.105 940.457 513.3 944.544 512.744 949.036" stroke="black" stroke-miterlimit="10"/>
<path d="M692.637 1128.55L640.045 1135.93" stroke="black" stroke-miterlimit="10"/>
<path d="M680.448 1126.97L654.481 1130.61" stroke="black" stroke-miterlimit="10"/>
<path d="M691.163 1112.21L652.659 1117.62" stroke="black" stroke-miterlimit="10"/>
<path d="M678.123 1110.4L637.21 1116.14" stroke="black" stroke-miterlimit="10"/>
<path d="M654.43 1130.62C650.839 1131.12 647.522 1128.62 647.019 1125.03C646.515 1121.45 649.018 1118.13 652.607 1117.62" stroke="black" stroke-miterlimit="10"/>
<path d="M640.044 1135.93C634.578 1136.7 629.524 1132.89 628.758 1127.42C627.992 1121.96 631.799 1116.91 637.263 1116.14" stroke="black" stroke-miterlimit="10"/>
<path d="M690.358 1112.32C694.843 1111.7 698.984 1114.82 699.609 1119.3C700.24 1123.78 697.119 1127.92 692.637 1128.55" stroke="black" stroke-miterlimit="10"/>
<path d="M1607.64 780.55L1555.04 787.931" stroke="black" stroke-miterlimit="10"/>
<path d="M1595.45 778.972L1569.48 782.613" stroke="black" stroke-miterlimit="10"/>
<path d="M1606.16 764.213L1567.66 769.614" stroke="black" stroke-miterlimit="10"/>
<path d="M1593.12 762.398L1552.21 768.139" stroke="black" stroke-miterlimit="10"/>
<path d="M1569.43 782.622C1565.84 783.123 1562.52 780.619 1562.02 777.033C1561.51 773.445 1564.02 770.126 1567.61 769.623" stroke="black" stroke-miterlimit="10"/>
<path d="M1555.04 787.93C1549.58 788.697 1544.52 784.889 1543.76 779.423C1542.99 773.958 1546.8 768.907 1552.26 768.139" stroke="black" stroke-miterlimit="10"/>
<path d="M1605.36 764.323C1609.84 763.698 1613.98 766.818 1614.61 771.298C1615.24 775.779 1612.12 779.922 1607.64 780.548" stroke="black" stroke-miterlimit="10"/>
<path d="M1246 1312.54L1465.82 1144L1634.37 1363.82L1414.54 1532.37L1246 1312.54Z" fill="#CCE1FF"/>
<path d="M1113.26 699.6L1162.5 719.504" stroke="black" stroke-miterlimit="10"/>
<path d="M1123.03 707.061L1147.34 716.891" stroke="black" stroke-miterlimit="10"/>
<path d="M1106.37 714.484L1142.42 729.058" stroke="black" stroke-miterlimit="10"/>
<path d="M1116.76 722.576L1155.06 738.061" stroke="black" stroke-miterlimit="10"/>
<path d="M1147.39 716.909C1150.75 718.27 1152.37 722.097 1151.01 725.454C1149.66 728.814 1145.83 730.436 1142.47 729.077" stroke="black" stroke-miterlimit="10"/>
<path d="M1162.5 719.504C1167.62 721.573 1170.09 727.398 1168.02 732.515C1165.95 737.63 1160.13 740.101 1155.01 738.034" stroke="black" stroke-miterlimit="10"/>
<path d="M1107.12 714.792C1102.93 713.091 1100.9 708.318 1102.6 704.126C1104.29 699.93 1109.07 697.902 1113.26 699.601" stroke="black" stroke-miterlimit="10"/>
<path d="M0 819.618L151.928 588L383.546 739.929L231.618 971.546L0 819.618Z" fill="#CCFFF6"/>
</g>
</svg>
